SplineFontDB: 3.0
FontName: ModernDOS8x8
FullName: Modern DOS 8x8
FamilyName: Modern DOS 8x8
Weight: Regular
Copyright: © 2009-2019 Jayvee Enaguas (HarvettFox96) <harvettfox96@protonmail.com>. Released under a libre/free public domain licence as Creative Commons Zero (CC0) 1.0. Applies worldwide countries including the Philippines, Spain, etc.
Version: 20190101.02
ItalicAngle: 0
UnderlinePosition: -50
UnderlineWidth: 100
Ascent: 1200
Descent: 400
InvalidEm: 0
LayerCount: 2
Layer: 0 0 "Back" 1
Layer: 1 0 "Fore" 0
FSType: 0
OS2Version: 0
OS2_WeightWidthSlopeOnly: 0
OS2_UseTypoMetrics: 1
CreationTime: 1384539481
PfmFamily: 49
TTFWeight: 400
TTFWidth: 5
LineGap: 0
VLineGap: 0
Panose: 2 1 5 9 1 1 1 1 1 1
OS2TypoAscent: 700
OS2TypoAOffset: 0
OS2TypoDescent: -100
OS2TypoDOffset: 0
OS2TypoLinegap: 0
OS2WinAscent: 700
OS2WinAOffset: 0
OS2WinDescent: 100
OS2WinDOffset: 0
HheadAscent: 700
HheadAOffset: 0
HheadDescent: -100
HheadDOffset: 0
OS2SubXSize: 400
OS2SubYSize: 400
OS2SubXOff: 0
OS2SubYOff: 300
OS2SupXSize: 400
OS2SupYSize: 400
OS2SupXOff: 0
OS2SupYOff: -100
OS2StrikeYSize: 100
OS2StrikeYPos: 350
OS2CapHeight: 700
OS2XHeight: 500
OS2Vendor: 'HF96'
MarkAttachClasses: 1
DEI: 91125
LangName: 1033 "" "" "" "ModernDOS8x8:FontForge:20190101.02" "" "20190101.02" "" "" "" "Jayvee Enaguas (HarvettFox96)" "" "" "mailto:harvettfox96@protonmail.com" "Public Domain, Creative Commons Zero (CC0) 1.0" "https://creativecommons.org/licenses/zero/1.0/"
UnicodeInterp: none
NameList: AGL For New Fonts
DisplaySize: -48
AntiAlias: 1
FitToEm: 0
WinInfo: 0 16 8
BeginPrivate: 0
EndPrivate
TeXData: 1 0 0 524288 262144 174762 327680 1048576 115343 783286 444596 497025 792723 393216 433062 380633 303038 157286 324010 404750 52429 2506097 1059062 262144
BeginChars: 361 361

StartChar: exclam
Encoding: 1 33 1
Width: 800
HStem: 0 100<300 500> 400 200<200 300 500 600> 680 20G<300 500>
VStem: 300 200<0 100 200 400 600 700>
Fore
SplineSet
300 700 m 1
 500 700 l 1
 500 600 l 1
 600 600 l 1
 600 400 l 1
 500 400 l 1
 500 200 l 1
 300 200 l 1
 300 400 l 1
 200 400 l 1
 200 600 l 1
 300 600 l 1
 300 700 l 1
300 100 m 1
 500 100 l 1
 500 0 l 1
 300 0 l 1
 300 100 l 1
EndSplineSet
Colour: f46a4b
EndChar

StartChar: quotedbl
Encoding: 2 34 2
Width: 800
HStem: 600 100<100 200 400 500>
VStem: 200 100<400 600> 500 100<400 600>
Fore
SplineSet
100 700 m 1
 300 700 l 1
 300 400 l 1
 200 400 l 1
 200 600 l 1
 100 600 l 1
 100 700 l 1
400 700 m 1
 600 700 l 1
 600 400 l 1
 500 400 l 1
 500 600 l 1
 400 600 l 1
 400 700 l 1
EndSplineSet
EndChar

StartChar: numbersign
Encoding: 3 35 3
Width: 800
HStem: 0 21G<100 300 400 600> 200 100<0 100 300 400 600 700> 400 100<0 100 300 400 600 700> 680 20G<100 300 400 600>
VStem: 100 200<0 200 300 400 500 700> 400 200<0 200 300 400 500 700>
Fore
SplineSet
400 400 m 1
 300 400 l 1
 300 300 l 1
 400 300 l 1
 400 400 l 1
100 700 m 1
 300 700 l 1
 300 500 l 1
 400 500 l 1
 400 700 l 1
 600 700 l 1
 600 500 l 1
 700 500 l 1
 700 400 l 1
 600 400 l 1
 600 300 l 1
 700 300 l 1
 700 200 l 1
 600 200 l 1
 600 0 l 1
 400 0 l 1
 400 200 l 1
 300 200 l 1
 300 0 l 1
 100 0 l 1
 100 200 l 1
 0 200 l 1
 0 300 l 1
 100 300 l 1
 100 400 l 1
 0 400 l 1
 0 500 l 1
 100 500 l 1
 100 700 l 1
EndSplineSet
EndChar

StartChar: dollar
Encoding: 4 36 4
Width: 800
HStem: 0 21G<300 400> 100 100<0 300 400 500> 200 100<600 700> 300 100<200 300 400 500> 400 100<0 100> 500 100<200 300 400 600> 680 20G<300 400>
VStem: 300 100<0 100 200 300 400 500 600 700>
Fore
SplineSet
300 500 m 1x97
 200 500 l 1
 200 400 l 1
 300 400 l 1
 300 500 l 1x97
500 300 m 1
 400 300 l 1
 400 200 l 1
 500 200 l 1xd3
 500 300 l 1
300 700 m 1
 400 700 l 1
 400 600 l 1
 600 600 l 1
 600 500 l 1
 400 500 l 1
 400 400 l 1x97
 600 400 l 1
 600 300 l 1
 700 300 l 1
 700 200 l 1
 600 200 l 1xab
 600 100 l 1
 400 100 l 1
 400 0 l 1
 300 0 l 1
 300 100 l 1
 0 100 l 1
 0 200 l 1
 300 200 l 1
 300 300 l 1
 100 300 l 1xd3
 100 400 l 1
 0 400 l 1
 0 500 l 1
 100 500 l 1x8b
 100 600 l 1
 300 600 l 1x87
 300 700 l 1
EndSplineSet
EndChar

StartChar: percent
Encoding: 5 37 5
Width: 800
HStem: 0 200<100 200 400 500> 0 100<0 100 500 600> 100 200<200 300 600 700> 200 100<500 600> 300 200<0 100 400 500> 300 100<100 200> 400 200<200 300 500 600> 500 100<100 200 600 700>
VStem: 0 200<0 100 300 400> 0 100<400 500> 100 200<100 200 500 600> 200 100<400 500> 400 200<0 100 400 500> 400 100<100 200> 500 200<200 300 500 600> 600 100<100 200>
Fore
SplineSet
100 600 m 1x0120
 300 600 l 1x0220
 300 400 l 1x0210
 200 400 l 1x0480
 200 500 l 1x0510
 100 500 l 1x0850
 100 600 l 1x0120
0 500 m 1x0840
 100 500 l 1x0840
 100 400 l 1x0440
 200 400 l 1x0480
 200 300 l 1x2080
 0 300 l 1x0880
 0 500 l 1x0840
500 600 m 1x0202
 700 600 l 1
 700 500 l 1x0102
 600 500 l 1x0108
 600 400 l 1x0208
 500 400 l 1
 500 300 l 1x1202
 400 300 l 1
 400 200 l 1x8804
 300 200 l 1x1024
 300 100 l 1x2024
 200 100 l 1x2080
 200 0 l 1x8080
 0 0 l 1
 0 100 l 1x4080
 100 100 l 1x4020
 100 200 l 1x8020
 200 200 l 1x8010
 200 300 l 1x2080
 300 300 l 1
 300 400 l 1
 400 400 l 1x2218
 400 500 l 1x0818
 500 500 l 1x0802
 500 600 l 1x0202
500 300 m 1x1002
 700 300 l 1x2002
 700 100 l 1x2001
 600 100 l 1x4008
 600 200 l 1x5001
 500 200 l 1x8005
 500 300 l 1x1002
400 200 m 1x8004
 500 200 l 1x8004
 500 100 l 1x4004
 600 100 l 1
 600 0 l 1x4008
 400 0 l 1x8008
 400 200 l 1x8004
EndSplineSet
EndChar

StartChar: ampersand
Encoding: 6 38 6
Width: 800
HStem: 0 100<200 400 600 700> 100 200<0 100 500 600> 200 100<600 700> 300 200<200 400> 500 100<100 200 500 600> 600 100<200 400>
VStem: 0 200<100 300> 100 100<500 600> 400 200<100 200 500 600> 600 100<0 100>
Fore
SplineSet
400 300 m 1x9280
 200 300 l 1
 200 100 l 1
 400 100 l 1
 400 300 l 1x9280
200 700 m 1x0580
 500 700 l 1x0580
 500 600 l 1
 600 600 l 1
 600 500 l 1
 500 500 l 1
 500 300 l 1x4980
 700 300 l 1
 700 200 l 1x2040
 600 200 l 1
 600 100 l 1xa080
 500 100 l 1x4080
 500 0 l 1
 100 0 l 1x8180
 100 100 l 1x4180
 0 100 l 1
 0 300 l 1x42
 100 300 l 1x41
 100 400 l 1
 200 400 l 1
 200 500 l 1
 400 500 l 1
 400 600 l 1x1580
 200 600 l 1x0980
 200 700 l 1x0580
100 600 m 1x09
 200 600 l 1x09
 200 500 l 1x11
 100 500 l 1
 100 600 l 1x09
600 100 m 1x8080
 700 100 l 1
 700 0 l 1
 600 0 l 1x8040
 600 100 l 1x8080
EndSplineSet
EndChar

StartChar: quotesingle
Encoding: 7 39 7
Width: 800
HStem: 400 100<200 300> 500 21G<300 400> 600 100<200 300>
VStem: 200 100<400 500> 300 100<500 600>
Fore
SplineSet
200 700 m 1xb0
 400 700 l 1
 400 500 l 1x68
 300 500 l 1xb0
 300 600 l 1xa8
 200 600 l 1
 200 700 l 1xb0
200 500 m 1xb0
 300 500 l 1
 300 400 l 1
 200 400 l 1
 200 500 l 1xb0
EndSplineSet
EndChar

StartChar: parenleft
Encoding: 8 40 8
Width: 800
HStem: 0 100<400 500> 600 100<400 500>
VStem: 100 200<200 500> 200 200<100 200 500 600> 300 200<0 100 600 700>
Fore
SplineSet
300 700 m 1xc8
 500 700 l 1
 500 600 l 1xc8
 400 600 l 1
 400 500 l 1xd0
 300 500 l 1
 300 200 l 1xe0
 400 200 l 1
 400 100 l 1xd0
 500 100 l 1
 500 0 l 1
 300 0 l 1
 300 100 l 1xc8
 200 100 l 1
 200 200 l 1xd0
 100 200 l 1
 100 500 l 1xe0
 200 500 l 1
 200 600 l 1xd0
 300 600 l 1
 300 700 l 1xc8
EndSplineSet
EndChar

StartChar: parenright
Encoding: 9 41 9
Width: 800
HStem: 0 100<100 200> 600 100<100 200>
VStem: 100 200<0 100 600 700> 200 200<100 200 500 600> 300 200<200 500>
Fore
SplineSet
100 700 m 1xe0
 300 700 l 1
 300 600 l 1xe0
 400 600 l 1
 400 500 l 1xd0
 500 500 l 1
 500 200 l 1xc8
 400 200 l 1
 400 100 l 1xd0
 300 100 l 1
 300 0 l 1
 100 0 l 1
 100 100 l 1xe0
 200 100 l 1
 200 200 l 1xd0
 300 200 l 1
 300 500 l 1xc8
 200 500 l 1
 200 600 l 1xd0
 100 600 l 1
 100 700 l 1xe0
EndSplineSet
EndChar

StartChar: asterisk
Encoding: 10 42 10
Width: 800
HStem: 100 100<100 200 600 700> 300 100<0 200 600 800> 500 100<100 200 600 700>
VStem: 100 200<100 200 500 600> 500 200<100 200 500 600>
Fore
SplineSet
100 600 m 1
 300 600 l 1
 300 500 l 1
 500 500 l 1
 500 600 l 1
 700 600 l 1
 700 500 l 1
 600 500 l 1
 600 400 l 1
 800 400 l 1
 800 300 l 1
 600 300 l 1
 600 200 l 1
 700 200 l 1
 700 100 l 1
 500 100 l 1
 500 200 l 1
 300 200 l 1
 300 100 l 1
 100 100 l 1
 100 200 l 1
 200 200 l 1
 200 300 l 1
 0 300 l 1
 0 400 l 1
 200 400 l 1
 200 500 l 1
 100 500 l 1
 100 600 l 1
EndSplineSet
EndChar

StartChar: plus
Encoding: 11 43 11
Width: 800
HStem: 300 100<100 300 500 700>
VStem: 300 200<100 300 400 600>
Fore
SplineSet
300 600 m 1
 500 600 l 1
 500 400 l 1
 700 400 l 1
 700 300 l 1
 500 300 l 1
 500 100 l 1
 300 100 l 1
 300 300 l 1
 100 300 l 1
 100 400 l 1
 300 400 l 1
 300 600 l 1
EndSplineSet
EndChar

StartChar: comma
Encoding: 12 44 12
Width: 800
HStem: -100 100<200 300> 0 21G<300 400> 100 100<200 300>
VStem: 200 100<-100 0> 300 100<0 100>
Fore
SplineSet
200 200 m 1xb0
 400 200 l 1
 400 0 l 1x68
 300 0 l 1xb0
 300 100 l 1xa8
 200 100 l 1
 200 200 l 1xb0
200 0 m 1xb0
 300 0 l 1
 300 -100 l 1
 200 -100 l 1
 200 0 l 1xb0
EndSplineSet
Colour: f46a4b
EndChar

StartChar: hyphen
Encoding: 13 45 13
Width: 800
HStem: 300 100<0 700>
Fore
SplineSet
0 400 m 1
 700 400 l 1
 700 300 l 1
 0 300 l 1
 0 400 l 1
EndSplineSet
EndChar

StartChar: period
Encoding: 14 46 14
Width: 800
HStem: 0 100<200 400>
VStem: 200 200<0 100>
Fore
SplineSet
200 100 m 1
 400 100 l 1
 400 0 l 1
 200 0 l 1
 200 100 l 1
EndSplineSet
Colour: f46a4b
EndChar

StartChar: slash
Encoding: 15 47 15
Width: 800
HStem: 0 100<0 100> 680 20G<600 700>
VStem: 600 100<600 700>
Fore
SplineSet
600 700 m 1
 700 700 l 1
 700 500 l 1
 600 500 l 1
 600 400 l 1
 500 400 l 1
 500 300 l 1
 400 300 l 1
 400 200 l 1
 300 200 l 1
 300 100 l 1
 200 100 l 1
 200 0 l 1
 0 0 l 1
 0 100 l 1
 100 100 l 1
 100 200 l 1
 200 200 l 1
 200 300 l 1
 300 300 l 1
 300 400 l 1
 400 400 l 1
 400 500 l 1
 500 500 l 1
 500 600 l 1
 600 600 l 1
 600 700 l 1
EndSplineSet
EndChar

StartChar: zero
Encoding: 16 48 16
Width: 800
HStem: 0 100<300 500> 600 100<200 400>
VStem: 0 200<400 600> 500 200<100 400>
Fore
SplineSet
400 600 m 1
 200 600 l 1
 200 400 l 1
 300 400 l 1
 300 500 l 1
 400 500 l 1
 400 600 l 1
500 400 m 1
 400 400 l 1
 400 300 l 1
 300 300 l 1
 300 100 l 1
 500 100 l 1
 500 400 l 1
100 700 m 1
 600 700 l 1
 600 600 l 1
 700 600 l 1
 700 100 l 1
 600 100 l 1
 600 0 l 1
 100 0 l 1
 100 100 l 1
 0 100 l 1
 0 600 l 1
 100 600 l 1
 100 700 l 1
EndSplineSet
EndChar

StartChar: one
Encoding: 17 49 17
Width: 800
HStem: 0 100<100 300 500 700> 400 100<100 200> 680 20G<300 500>
VStem: 300 200<100 400 600 700>
Fore
SplineSet
300 700 m 1
 500 700 l 1
 500 100 l 1
 700 100 l 1
 700 0 l 1
 100 0 l 1
 100 100 l 1
 300 100 l 1
 300 400 l 1
 100 400 l 1
 100 500 l 1
 200 500 l 1
 200 600 l 1
 300 600 l 1
 300 700 l 1
EndSplineSet
EndChar

StartChar: two
Encoding: 18 50 18
Width: 800
HStem: 0 200<0 100 500 700> 0 100<200 500> 200 100<200 300> 300 100<400 500> 500 100<0 100> 600 100<200 500>
VStem: 0 200<100 200 500 600> 500 200<100 200 400 600>
Fore
SplineSet
100 700 m 1x07
 600 700 l 1
 600 600 l 1
 700 600 l 1
 700 400 l 1
 600 400 l 1
 600 300 l 1
 400 300 l 1x17
 400 200 l 1
 200 200 l 1
 200 100 l 1
 500 100 l 1x63
 500 200 l 1
 700 200 l 1
 700 0 l 1
 0 0 l 1
 0 200 l 1
 100 200 l 1
 100 300 l 1x93
 300 300 l 1x23
 300 400 l 1
 500 400 l 1
 500 600 l 1
 200 600 l 1x17
 200 500 l 1
 0 500 l 1
 0 600 l 1
 100 600 l 1x0b
 100 700 l 1x07
EndSplineSet
EndChar

StartChar: three
Encoding: 19 51 19
Width: 800
HStem: 0 100<200 500> 100 100<0 100> 300 100<200 500> 500 100<0 100> 600 100<200 500>
VStem: 0 200<100 200 500 600> 500 200<100 300 400 600>
Fore
SplineSet
100 700 m 1x2e
 600 700 l 1
 600 600 l 1
 700 600 l 1
 700 400 l 1
 600 400 l 1
 600 300 l 1
 700 300 l 1
 700 100 l 1
 600 100 l 1x6e
 600 0 l 1
 100 0 l 1xa6
 100 100 l 1
 0 100 l 1
 0 200 l 1
 200 200 l 1x66
 200 100 l 1
 500 100 l 1
 500 300 l 1
 200 300 l 1
 200 400 l 1
 500 400 l 1
 500 600 l 1
 200 600 l 1xae
 200 500 l 1
 0 500 l 1
 0 600 l 1
 100 600 l 1x36
 100 700 l 1x2e
EndSplineSet
EndChar

StartChar: four
Encoding: 20 52 20
Width: 800
HStem: 0 100<300 400 600 700> 200 100<200 400 600 700> 680 20G<300 600>
VStem: 400 200<100 200 300 500>
Fore
SplineSet
400 500 m 1
 300 500 l 1
 300 400 l 1
 200 400 l 1
 200 300 l 1
 400 300 l 1
 400 500 l 1
300 700 m 1
 600 700 l 1
 600 300 l 1
 700 300 l 1
 700 200 l 1
 600 200 l 1
 600 100 l 1
 700 100 l 1
 700 0 l 1
 300 0 l 1
 300 100 l 1
 400 100 l 1
 400 200 l 1
 0 200 l 1
 0 400 l 1
 100 400 l 1
 100 500 l 1
 200 500 l 1
 200 600 l 1
 300 600 l 1
 300 700 l 1
EndSplineSet
EndChar

StartChar: five
Encoding: 21 53 21
Width: 800
HStem: 0 100<200 500> 100 100<0 100> 400 100<200 500> 600 100<200 700>
VStem: 0 200<100 200 500 600> 500 200<100 400>
Fore
SplineSet
0 700 m 1xbc
 700 700 l 1
 700 600 l 1
 200 600 l 1
 200 500 l 1
 600 500 l 1
 600 400 l 1
 700 400 l 1
 700 100 l 1
 600 100 l 1x7c
 600 0 l 1
 100 0 l 1xbc
 100 100 l 1
 0 100 l 1
 0 200 l 1
 200 200 l 1x7c
 200 100 l 1
 500 100 l 1
 500 400 l 1
 0 400 l 1
 0 700 l 1xbc
EndSplineSet
EndChar

StartChar: six
Encoding: 22 54 22
Width: 800
HStem: 0 100<200 500> 300 100<200 500> 500 100<600 700> 600 100<200 500>
VStem: 0 200<100 300 400 600> 500 200<100 300 500 600>
Fore
SplineSet
100 700 m 1xdc
 600 700 l 1xdc
 600 600 l 1
 700 600 l 1
 700 500 l 1
 500 500 l 1xec
 500 600 l 1
 200 600 l 1
 200 400 l 1
 600 400 l 1
 600 300 l 1
 700 300 l 1
 700 100 l 1
 600 100 l 1
 600 0 l 1
 100 0 l 1
 100 100 l 1
 0 100 l 1
 0 600 l 1
 100 600 l 1
 100 700 l 1xdc
500 300 m 1
 200 300 l 1
 200 100 l 1
 500 100 l 1
 500 300 l 1
EndSplineSet
EndChar

StartChar: seven
Encoding: 23 55 23
Width: 800
HStem: 0 21G<200 400> 500 200<0 200 600 700> 600 100<200 500>
VStem: 200 200<0 300>
Fore
SplineSet
0 700 m 1xd0
 700 700 l 1
 700 500 l 1
 600 500 l 1
 600 400 l 1
 500 400 l 1
 500 300 l 1
 400 300 l 1
 400 0 l 1
 200 0 l 1
 200 300 l 1
 300 300 l 1
 300 400 l 1
 400 400 l 1
 400 500 l 1
 500 500 l 1xd0
 500 600 l 1
 200 600 l 1xb0
 200 500 l 1
 0 500 l 1
 0 700 l 1xd0
EndSplineSet
EndChar

StartChar: eight
Encoding: 24 56 24
Width: 800
HStem: 0 100<200 500> 100 200<0 100 600 700> 300 100<200 500> 400 200<0 100 600 700> 600 100<200 500>
VStem: 0 200<100 300 400 600> 500 200<100 300 400 600>
Fore
SplineSet
500 600 m 1x2e
 200 600 l 1
 200 400 l 1
 500 400 l 1
 500 600 l 1x2e
500 300 m 1
 200 300 l 1
 200 100 l 1
 500 100 l 1xa6
 500 300 l 1
100 700 m 1x0e
 600 700 l 1x0e
 600 600 l 1
 700 600 l 1
 700 400 l 1
 600 400 l 1
 600 300 l 1
 700 300 l 1
 700 100 l 1
 600 100 l 1x56
 600 0 l 1
 100 0 l 1x86
 100 100 l 1
 0 100 l 1
 0 300 l 1
 100 300 l 1
 100 400 l 1
 0 400 l 1
 0 600 l 1
 100 600 l 1x56
 100 700 l 1x0e
EndSplineSet
EndChar

StartChar: nine
Encoding: 25 57 25
Width: 800
HStem: 0 100<200 500> 100 100<0 100> 300 100<200 500> 600 100<200 500>
VStem: 0 200<100 200 400 600> 500 200<100 300 400 600>
Fore
SplineSet
500 600 m 1x3c
 200 600 l 1
 200 400 l 1
 500 400 l 1
 500 600 l 1x3c
100 700 m 1
 600 700 l 1
 600 600 l 1
 700 600 l 1
 700 100 l 1
 600 100 l 1x7c
 600 0 l 1
 100 0 l 1xbc
 100 100 l 1
 0 100 l 1
 0 200 l 1
 200 200 l 1x7c
 200 100 l 1
 500 100 l 1xbc
 500 300 l 1
 100 300 l 1
 100 400 l 1
 0 400 l 1
 0 600 l 1
 100 600 l 1
 100 700 l 1
EndSplineSet
EndChar

StartChar: less
Encoding: 28 60 28
Width: 800
HStem: 0 100<500 600> 300 100<100 200> 600 100<500 600>
VStem: 200 200<200 300 400 500> 300 200<100 200 500 600> 400 200<0 100 600 700>
Fore
SplineSet
400 700 m 1xe4
 600 700 l 1
 600 600 l 1xe4
 500 600 l 1
 500 500 l 1xe8
 400 500 l 1
 400 400 l 1xf0
 300 400 l 1
 300 300 l 1xe8
 400 300 l 1
 400 200 l 1xf0
 500 200 l 1
 500 100 l 1xe8
 600 100 l 1
 600 0 l 1
 400 0 l 1
 400 100 l 1xe4
 300 100 l 1
 300 200 l 1xe8
 200 200 l 1
 200 300 l 1
 100 300 l 1
 100 400 l 1
 200 400 l 1
 200 500 l 1xf0
 300 500 l 1
 300 600 l 1xe8
 400 600 l 1
 400 700 l 1xe4
EndSplineSet
EndChar

StartChar: equal
Encoding: 29 61 29
Width: 800
HStem: 100 100<100 700> 400 100<100 700>
Fore
SplineSet
100 500 m 1
 700 500 l 1
 700 400 l 1
 100 400 l 1
 100 500 l 1
100 200 m 1
 700 200 l 1
 700 100 l 1
 100 100 l 1
 100 200 l 1
EndSplineSet
EndChar

StartChar: greater
Encoding: 30 62 30
Width: 800
HStem: 0 100<100 200> 300 100<500 600> 600 100<100 200>
VStem: 100 200<0 100 600 700> 200 200<100 200 500 600> 300 200<200 300 400 500>
Fore
SplineSet
100 700 m 1xf0
 300 700 l 1
 300 600 l 1xf0
 400 600 l 1
 400 500 l 1xe8
 500 500 l 1
 500 400 l 1
 600 400 l 1
 600 300 l 1
 500 300 l 1
 500 200 l 1xe4
 400 200 l 1
 400 100 l 1xe8
 300 100 l 1
 300 0 l 1
 100 0 l 1
 100 100 l 1xf0
 200 100 l 1
 200 200 l 1xe8
 300 200 l 1
 300 300 l 1xe4
 400 300 l 1
 400 400 l 1xe8
 300 400 l 1
 300 500 l 1xe4
 200 500 l 1
 200 600 l 1xe8
 100 600 l 1
 100 700 l 1xf0
EndSplineSet
EndChar

StartChar: question
Encoding: 31 63 31
Width: 800
HStem: 0 100<200 400> 200 100<200 300> 500 100<0 100> 600 100<200 400>
VStem: 200 200<0 100 200 300> 400 200<400 600>
Fore
SplineSet
100 700 m 1xd8
 500 700 l 1
 500 600 l 1
 600 600 l 1
 600 400 l 1xd4
 500 400 l 1
 500 300 l 1
 400 300 l 1
 400 200 l 1
 200 200 l 1
 200 300 l 1xd8
 300 300 l 1
 300 400 l 1
 400 400 l 1
 400 600 l 1xd4
 200 600 l 1xd8
 200 500 l 1
 0 500 l 1
 0 600 l 1
 100 600 l 1xe8
 100 700 l 1xd8
200 100 m 1xc8
 400 100 l 1
 400 0 l 1
 200 0 l 1
 200 100 l 1xc8
EndSplineSet
Colour: f46a4b
EndChar

StartChar: at
Encoding: 32 64 32
Width: 800
HStem: 0 100<100 600> 200 100<300 500> 300 100<200 300> 600 100<100 600>
VStem: 0 100<100 600> 200 100<300 400> 600 100<500 600>
Fore
SplineSet
100 700 m 1x9e
 600 700 l 1
 600 600 l 1
 100 600 l 1
 100 700 l 1x9e
0 600 m 1
 100 600 l 1
 100 100 l 1
 0 100 l 1
 0 600 l 1
600 600 m 1
 700 600 l 1
 700 200 l 1
 300 200 l 1
 300 300 l 1
 500 300 l 1xde
 500 400 l 1
 300 400 l 1xbe
 300 500 l 1
 600 500 l 1
 600 600 l 1
200 400 m 1xbe
 300 400 l 1xbe
 300 300 l 1xde
 200 300 l 1
 200 400 l 1xbe
100 100 m 1
 600 100 l 1
 600 0 l 1
 100 0 l 1
 100 100 l 1
EndSplineSet
EndChar

StartChar: A
Encoding: 33 65 33
Width: 800
HStem: 0 21G<0 200 500 700> 300 100<200 500> 600 100<200 500>
VStem: 0 200<0 300 400 600> 500 200<0 300 400 600>
Fore
SplineSet
500 600 m 1
 200 600 l 1
 200 400 l 1
 500 400 l 1
 500 600 l 1
100 700 m 1
 600 700 l 1
 600 600 l 1
 700 600 l 1
 700 0 l 1
 500 0 l 1
 500 300 l 1
 200 300 l 1
 200 0 l 1
 0 0 l 1
 0 600 l 1
 100 600 l 1
 100 700 l 1
EndSplineSet
EndChar

StartChar: B
Encoding: 34 66 34
Width: 800
HStem: 0 100<0 100 300 500> 300 100<300 500> 600 100<0 100 300 500>
VStem: 100 200<100 300 400 600> 500 200<100 300 400 600>
Fore
SplineSet
500 600 m 1
 300 600 l 1
 300 400 l 1
 500 400 l 1
 500 600 l 1
500 300 m 1
 300 300 l 1
 300 100 l 1
 500 100 l 1
 500 300 l 1
0 700 m 1
 600 700 l 1
 600 600 l 1
 700 600 l 1
 700 400 l 1
 600 400 l 1
 600 300 l 1
 700 300 l 1
 700 100 l 1
 600 100 l 1
 600 0 l 1
 0 0 l 1
 0 100 l 1
 100 100 l 1
 100 600 l 1
 0 600 l 1
 0 700 l 1
EndSplineSet
EndChar

StartChar: C
Encoding: 35 67 35
Width: 800
HStem: 0 100<200 500> 100 100<600 700> 500 100<600 700> 600 100<200 500>
VStem: 0 200<100 600> 500 200<100 200 500 600>
Fore
SplineSet
100 700 m 1x5c
 600 700 l 1x5c
 600 600 l 1
 700 600 l 1
 700 500 l 1
 500 500 l 1x2c
 500 600 l 1
 200 600 l 1
 200 100 l 1
 500 100 l 1x9c
 500 200 l 1
 700 200 l 1
 700 100 l 1
 600 100 l 1x4c
 600 0 l 1
 100 0 l 1x8c
 100 100 l 1
 0 100 l 1
 0 600 l 1
 100 600 l 1
 100 700 l 1x5c
EndSplineSet
EndChar

StartChar: D
Encoding: 36 68 36
Width: 800
HStem: 0 100<0 100 300 500> 600 100<0 100 300 500>
VStem: 100 200<100 600> 500 200<100 600>
Fore
SplineSet
500 600 m 1
 300 600 l 1
 300 100 l 1
 500 100 l 1
 500 600 l 1
0 700 m 1
 600 700 l 1
 600 600 l 1
 700 600 l 1
 700 100 l 1
 600 100 l 1
 600 0 l 1
 0 0 l 1
 0 100 l 1
 100 100 l 1
 100 600 l 1
 0 600 l 1
 0 700 l 1
EndSplineSet
EndChar

StartChar: E
Encoding: 37 69 37
Width: 800
HStem: 0 100<0 100 300 600> 300 100<300 400> 480 20G<400 500> 500 21G<600 700> 600 100<0 100 300 600>
VStem: 100 200<100 300 400 600> 400 100<200 300 400 500> 600 100<100 200 500 600>
Fore
SplineSet
0 700 m 1xef
 700 700 l 1
 700 500 l 1
 600 500 l 1xdf
 600 600 l 1
 300 600 l 1
 300 400 l 1
 400 400 l 1
 400 500 l 1
 500 500 l 1
 500 200 l 1
 400 200 l 1
 400 300 l 1
 300 300 l 1
 300 100 l 1
 600 100 l 1
 600 200 l 1
 700 200 l 1
 700 0 l 1
 0 0 l 1
 0 100 l 1
 100 100 l 1
 100 600 l 1
 0 600 l 1
 0 700 l 1xef
EndSplineSet
EndChar

StartChar: F
Encoding: 38 70 38
Width: 800
HStem: 0 100<0 100 300 400> 300 100<300 400> 480 20G<400 500> 500 21G<600 700> 600 100<0 100 300 600>
VStem: 100 200<100 300 400 600> 400 100<200 300 400 500> 600 100<500 600>
Fore
SplineSet
0 700 m 1xef
 700 700 l 1
 700 500 l 1
 600 500 l 1xdf
 600 600 l 1
 300 600 l 1
 300 400 l 1
 400 400 l 1
 400 500 l 1
 500 500 l 1
 500 200 l 1
 400 200 l 1
 400 300 l 1
 300 300 l 1
 300 100 l 1
 400 100 l 1
 400 0 l 1
 0 0 l 1
 0 100 l 1
 100 100 l 1
 100 600 l 1
 0 600 l 1
 0 700 l 1xef
EndSplineSet
EndChar

StartChar: G
Encoding: 39 71 39
Width: 800
HStem: 0 100<200 500> 200 100<400 500> 600 100<200 500>
VStem: 0 200<100 600> 500 200<100 200 400 600>
Fore
SplineSet
100 700 m 1
 600 700 l 1
 600 600 l 1
 700 600 l 1
 700 400 l 1
 500 400 l 1
 500 600 l 1
 200 600 l 1
 200 100 l 1
 500 100 l 1
 500 200 l 1
 400 200 l 1
 400 300 l 1
 700 300 l 1
 700 0 l 1
 100 0 l 1
 100 100 l 1
 0 100 l 1
 0 600 l 1
 100 600 l 1
 100 700 l 1
EndSplineSet
EndChar

StartChar: H
Encoding: 40 72 40
Width: 800
HStem: 0 21G<0 200 500 700> 300 100<200 500> 680 20G<0 200 500 700>
VStem: 0 200<0 300 400 700> 500 200<0 300 400 700>
Fore
SplineSet
0 700 m 1
 200 700 l 1
 200 400 l 1
 500 400 l 1
 500 700 l 1
 700 700 l 1
 700 0 l 1
 500 0 l 1
 500 300 l 1
 200 300 l 1
 200 0 l 1
 0 0 l 1
 0 700 l 1
EndSplineSet
EndChar

StartChar: I
Encoding: 41 73 41
Width: 800
HStem: 0 100<200 300 500 600> 600 100<200 300 500 600>
VStem: 300 200<100 600>
Fore
SplineSet
200 700 m 1
 600 700 l 1
 600 600 l 1
 500 600 l 1
 500 100 l 1
 600 100 l 1
 600 0 l 1
 200 0 l 1
 200 100 l 1
 300 100 l 1
 300 600 l 1
 200 600 l 1
 200 700 l 1
EndSplineSet
EndChar

StartChar: J
Encoding: 42 74 42
Width: 800
HStem: 0 100<200 400> 600 100<300 400 600 700>
VStem: 0 200<100 300> 400 200<100 600>
Fore
SplineSet
300 700 m 1
 700 700 l 1
 700 600 l 1
 600 600 l 1
 600 100 l 1
 500 100 l 1
 500 0 l 1
 100 0 l 1
 100 100 l 1
 0 100 l 1
 0 300 l 1
 200 300 l 1
 200 100 l 1
 400 100 l 1
 400 600 l 1
 300 600 l 1
 300 700 l 1
EndSplineSet
EndChar

StartChar: K
Encoding: 43 75 43
Width: 800
HStem: 0 100<0 100> 300 100<300 400> 600 100<0 100>
VStem: 100 200<100 300 400 600> 400 200<200 300 400 500> 500 200<0 200 500 700>
Fore
SplineSet
0 700 m 1xf8
 300 700 l 1
 300 400 l 1
 400 400 l 1
 400 500 l 1xf8
 500 500 l 1
 500 700 l 1
 700 700 l 1
 700 500 l 1xf4
 600 500 l 1
 600 400 l 1xf8
 500 400 l 1
 500 300 l 1xf4
 600 300 l 1
 600 200 l 1xf8
 700 200 l 1
 700 0 l 1
 500 0 l 1
 500 200 l 1xf4
 400 200 l 1
 400 300 l 1
 300 300 l 1
 300 0 l 1
 0 0 l 1
 0 100 l 1
 100 100 l 1
 100 600 l 1
 0 600 l 1
 0 700 l 1xf8
EndSplineSet
EndChar

StartChar: L
Encoding: 44 76 44
Width: 800
HStem: 0 100<0 100 300 500> 600 100<0 100 300 400>
VStem: 100 200<100 600> 600 100<200 300>
Fore
SplineSet
0 700 m 1
 400 700 l 1
 400 600 l 1
 300 600 l 1
 300 100 l 1
 500 100 l 1
 500 200 l 1
 600 200 l 1
 600 300 l 1
 700 300 l 1
 700 0 l 1
 0 0 l 1
 0 100 l 1
 100 100 l 1
 100 600 l 1
 0 600 l 1
 0 700 l 1
EndSplineSet
EndChar

StartChar: M
Encoding: 45 77 45
Width: 800
HStem: 0 21G<0 200 500 700> 300 200<200 300 400 500> 680 20G<0 100 600 700>
VStem: 0 200<0 300 500 600> 0 100<600 700> 300 100<200 300> 500 200<0 300 500 600> 600 100<600 700>
Fore
SplineSet
0 700 m 1xec
 100 700 l 1
 100 600 l 1xec
 200 600 l 1
 200 500 l 1
 300 500 l 1
 300 400 l 1
 400 400 l 1
 400 500 l 1
 500 500 l 1
 500 600 l 1xf6
 600 600 l 1
 600 700 l 1
 700 700 l 1xe5
 700 0 l 1
 500 0 l 1
 500 300 l 1
 400 300 l 1
 400 200 l 1
 300 200 l 1
 300 300 l 1
 200 300 l 1
 200 0 l 1
 0 0 l 1xf6
 0 700 l 1xec
EndSplineSet
EndChar

StartChar: N
Encoding: 46 78 46
Width: 800
HStem: 0 21G<0 200 500 700> 680 20G<0 200 500 700>
VStem: 0 200<0 400 600 700> 500 200<0 200 400 700>
Fore
SplineSet
0 700 m 1
 200 700 l 1
 200 600 l 1
 300 600 l 1
 300 500 l 1
 400 500 l 1
 400 400 l 1
 500 400 l 1
 500 700 l 1
 700 700 l 1
 700 0 l 1
 500 0 l 1
 500 200 l 1
 400 200 l 1
 400 300 l 1
 300 300 l 1
 300 400 l 1
 200 400 l 1
 200 0 l 1
 0 0 l 1
 0 700 l 1
EndSplineSet
EndChar

StartChar: O
Encoding: 47 79 47
Width: 800
HStem: 0 100<200 500> 600 100<200 500>
VStem: 0 200<100 600> 500 200<100 600>
Fore
SplineSet
500 600 m 1
 200 600 l 1
 200 100 l 1
 500 100 l 1
 500 600 l 1
100 700 m 1
 600 700 l 1
 600 600 l 1
 700 600 l 1
 700 100 l 1
 600 100 l 1
 600 0 l 1
 100 0 l 1
 100 100 l 1
 0 100 l 1
 0 600 l 1
 100 600 l 1
 100 700 l 1
EndSplineSet
EndChar

StartChar: P
Encoding: 48 80 48
Width: 800
HStem: 0 100<0 100 300 400> 300 100<300 500> 600 100<0 100 300 500>
VStem: 100 200<100 300 400 600> 500 200<400 600>
Fore
SplineSet
500 600 m 1
 300 600 l 1
 300 400 l 1
 500 400 l 1
 500 600 l 1
0 700 m 1
 600 700 l 1
 600 600 l 1
 700 600 l 1
 700 400 l 1
 600 400 l 1
 600 300 l 1
 300 300 l 1
 300 100 l 1
 400 100 l 1
 400 0 l 1
 0 0 l 1
 0 100 l 1
 100 100 l 1
 100 600 l 1
 0 600 l 1
 0 700 l 1
EndSplineSet
EndChar

StartChar: Q
Encoding: 49 81 49
Width: 800
HStem: -100 100<600 700> 0 100<200 300> 600 100<200 500>
VStem: 0 200<100 600> 300 100<200 300> 500 200<-100 0 200 600>
Fore
SplineSet
500 600 m 1x7c
 200 600 l 1
 200 100 l 1
 300 100 l 1
 300 300 l 1
 400 300 l 1
 400 200 l 1
 500 200 l 1
 500 600 l 1x7c
100 700 m 1
 600 700 l 1
 600 600 l 1
 700 600 l 1
 700 100 l 1
 600 100 l 1x7c
 600 0 l 1
 700 0 l 1
 700 -100 l 1
 500 -100 l 1xbc
 500 0 l 1
 100 0 l 1
 100 100 l 1
 0 100 l 1
 0 600 l 1
 100 600 l 1
 100 700 l 1
EndSplineSet
EndChar

StartChar: R
Encoding: 50 82 50
Width: 800
HStem: 0 100<0 100> 300 100<300 500> 600 100<0 100 300 500>
VStem: 100 200<100 300 400 600> 500 200<0 300 400 600>
Fore
SplineSet
500 600 m 1
 300 600 l 1
 300 400 l 1
 500 400 l 1
 500 600 l 1
0 700 m 1
 600 700 l 1
 600 600 l 1
 700 600 l 1
 700 400 l 1
 600 400 l 1
 600 300 l 1
 700 300 l 1
 700 0 l 1
 500 0 l 1
 500 300 l 1
 300 300 l 1
 300 0 l 1
 0 0 l 1
 0 100 l 1
 100 100 l 1
 100 600 l 1
 0 600 l 1
 0 700 l 1
EndSplineSet
EndChar

StartChar: S
Encoding: 51 83 51
Width: 800
HStem: 0 100<200 500> 100 100<0 100> 300 100<200 500> 500 100<600 700> 600 100<200 500>
VStem: 0 200<100 200 400 600> 500 200<100 300 500 600>
Fore
SplineSet
100 700 m 1xae
 600 700 l 1xae
 600 600 l 1
 700 600 l 1
 700 500 l 1
 500 500 l 1x36
 500 600 l 1
 200 600 l 1
 200 400 l 1
 600 400 l 1
 600 300 l 1
 700 300 l 1
 700 100 l 1
 600 100 l 1x6e
 600 0 l 1
 100 0 l 1xa6
 100 100 l 1
 0 100 l 1
 0 200 l 1
 200 200 l 1x66
 200 100 l 1
 500 100 l 1
 500 300 l 1
 100 300 l 1
 100 400 l 1
 0 400 l 1
 0 600 l 1
 100 600 l 1
 100 700 l 1xae
EndSplineSet
EndChar

StartChar: T
Encoding: 52 84 52
Width: 800
HStem: 0 100<200 300 500 600> 600 100<200 300 500 600>
VStem: 100 100<400 600> 300 200<100 600> 600 100<400 600>
Fore
SplineSet
100 700 m 1
 700 700 l 1
 700 400 l 1
 600 400 l 1
 600 600 l 1
 500 600 l 1
 500 100 l 1
 600 100 l 1
 600 0 l 1
 200 0 l 1
 200 100 l 1
 300 100 l 1
 300 600 l 1
 200 600 l 1
 200 400 l 1
 100 400 l 1
 100 700 l 1
EndSplineSet
EndChar

StartChar: U
Encoding: 53 85 53
Width: 800
HStem: 0 100<200 500> 680 20G<0 200 500 700>
VStem: 0 200<100 700> 500 200<100 700>
Fore
SplineSet
0 700 m 1
 200 700 l 1
 200 100 l 1
 500 100 l 1
 500 700 l 1
 700 700 l 1
 700 100 l 1
 600 100 l 1
 600 0 l 1
 100 0 l 1
 100 100 l 1
 0 100 l 1
 0 700 l 1
EndSplineSet
EndChar

StartChar: V
Encoding: 54 86 54
Width: 800
HStem: 0 21G<300 400> 100 200<200 300 400 500> 680 20G<0 200 500 700>
VStem: 0 200<300 700> 300 100<0 100> 500 200<300 700>
Fore
SplineSet
0 700 m 1
 200 700 l 1
 200 300 l 1
 300 300 l 1
 300 200 l 1
 400 200 l 1
 400 300 l 1
 500 300 l 1
 500 700 l 1
 700 700 l 1
 700 300 l 1
 600 300 l 1
 600 200 l 1
 500 200 l 1
 500 100 l 1
 400 100 l 1
 400 0 l 1
 300 0 l 1
 300 100 l 1
 200 100 l 1
 200 200 l 1
 100 200 l 1
 100 300 l 1
 0 300 l 1
 0 700 l 1
EndSplineSet
EndChar

StartChar: W
Encoding: 55 87 55
Width: 800
HStem: 0 21G<0 100 600 700> 200 200<200 300 400 500> 480 20G<300 400> 680 20G<0 200 500 700>
VStem: 0 200<100 200 400 700> 0 100<0 100> 300 100<400 500> 500 200<100 200 400 700> 600 100<0 100>
Fore
SplineSet
0 700 m 1xfa
 200 700 l 1
 200 400 l 1
 300 400 l 1
 300 500 l 1
 400 500 l 1
 400 400 l 1
 500 400 l 1
 500 700 l 1
 700 700 l 1xfb
 700 0 l 1
 600 0 l 1
 600 100 l 1xf280
 500 100 l 1
 500 200 l 1
 400 200 l 1
 400 300 l 1
 300 300 l 1
 300 200 l 1
 200 200 l 1
 200 100 l 1xfb
 100 100 l 1
 100 0 l 1
 0 0 l 1xf6
 0 700 l 1xfa
EndSplineSet
EndChar

StartChar: X
Encoding: 56 88 56
Width: 800
HStem: 0 200<100 200 500 600> 0 100<0 100 600 700> 500 200<100 200 500 600> 600 100<0 100 600 700>
VStem: 0 200<0 100 600 700> 100 200<100 200 500 600> 400 200<100 200 500 600> 500 200<0 100 600 700>
Fore
SplineSet
0 700 m 1x18
 200 700 l 1x28
 200 600 l 1x18
 300 600 l 1x14
 300 500 l 1
 400 500 l 1x26
 400 600 l 1x16
 500 600 l 1x11
 500 700 l 1x21
 700 700 l 1
 700 600 l 1x11
 600 600 l 1x12
 600 500 l 1x22
 500 500 l 1
 500 200 l 1xa1
 600 200 l 1xa2
 600 100 l 1x42
 700 100 l 1
 700 0 l 1x41
 500 0 l 1x81
 500 100 l 1x41
 400 100 l 1x42
 400 200 l 1
 300 200 l 1x86
 300 100 l 1x46
 200 100 l 1x48
 200 0 l 1x88
 0 0 l 1
 0 100 l 1x48
 100 100 l 1x44
 100 200 l 1x84
 200 200 l 1
 200 500 l 1xa8
 100 500 l 1xa4
 100 600 l 1x14
 0 600 l 1
 0 700 l 1x18
EndSplineSet
EndChar

StartChar: Y
Encoding: 57 89 57
Width: 800
HStem: 0 100<200 300 500 600> 680 20G<100 300 500 700>
VStem: 100 200<400 700> 300 200<100 300> 500 200<400 700>
Fore
SplineSet
100 700 m 1xe0
 300 700 l 1
 300 400 l 1
 500 400 l 1
 500 700 l 1
 700 700 l 1
 700 400 l 1xe8
 600 400 l 1
 600 300 l 1
 500 300 l 1
 500 100 l 1
 600 100 l 1
 600 0 l 1
 200 0 l 1
 200 100 l 1
 300 100 l 1
 300 300 l 1xd0
 200 300 l 1
 200 400 l 1
 100 400 l 1
 100 700 l 1xe0
EndSplineSet
EndChar

StartChar: Z
Encoding: 58 90 58
Width: 800
HStem: 0 200<100 200 500 600> 0 100<0 100 300 500> 500 200<100 200 600 700> 600 100<200 500>
VStem: 0 100<400 500> 500 200<100 200 500 600> 600 100<200 300>
Fore
SplineSet
0 700 m 1x1c
 700 700 l 1x2a
 700 500 l 1x2c
 600 500 l 1
 600 400 l 1x2a
 500 400 l 1
 500 300 l 1
 400 300 l 1
 400 200 l 1
 300 200 l 1xac
 300 100 l 1
 500 100 l 1x4c
 500 200 l 1x8c
 600 200 l 1x8a
 600 300 l 1
 700 300 l 1
 700 0 l 1
 0 0 l 1
 0 100 l 1
 100 100 l 1x4a
 100 200 l 1
 200 200 l 1
 200 300 l 1
 300 300 l 1
 300 400 l 1
 400 400 l 1
 400 500 l 1
 500 500 l 1xac
 500 600 l 1
 200 600 l 1x1c
 200 500 l 1
 100 500 l 1x2c
 100 400 l 1
 0 400 l 1
 0 700 l 1x1c
EndSplineSet
EndChar

StartChar: bracketleft
Encoding: 59 91 59
Width: 800
HStem: 0 100<300 500> 600 100<300 500>
VStem: 100 200<100 600>
Fore
SplineSet
100 700 m 1
 500 700 l 1
 500 600 l 1
 300 600 l 1
 300 100 l 1
 500 100 l 1
 500 0 l 1
 100 0 l 1
 100 700 l 1
EndSplineSet
EndChar

StartChar: backslash
Encoding: 60 92 60
Width: 800
HStem: 0 21G<600 700> 600 100<0 100>
VStem: 600 100<0 100>
Fore
SplineSet
0 700 m 1
 200 700 l 1
 200 600 l 1
 300 600 l 1
 300 500 l 1
 400 500 l 1
 400 400 l 1
 500 400 l 1
 500 300 l 1
 600 300 l 1
 600 200 l 1
 700 200 l 1
 700 0 l 1
 600 0 l 1
 600 100 l 1
 500 100 l 1
 500 200 l 1
 400 200 l 1
 400 300 l 1
 300 300 l 1
 300 400 l 1
 200 400 l 1
 200 500 l 1
 100 500 l 1
 100 600 l 1
 0 600 l 1
 0 700 l 1
EndSplineSet
EndChar

StartChar: bracketright
Encoding: 61 93 61
Width: 800
HStem: 0 100<100 300> 600 100<100 300>
VStem: 300 200<100 600>
Fore
SplineSet
100 700 m 1
 500 700 l 1
 500 0 l 1
 100 0 l 1
 100 100 l 1
 300 100 l 1
 300 600 l 1
 100 600 l 1
 100 700 l 1
EndSplineSet
EndChar

StartChar: asciicircum
Encoding: 62 94 62
Width: 800
HStem: 300 200<100 200 500 600> 300 100<0 100 600 700> 400 200<200 300 400 500> 680 20G<300 400>
VStem: 300 100<600 700>
Fore
SplineSet
300 700 m 1x38
 400 700 l 1
 400 600 l 1
 500 600 l 1x38
 500 500 l 1
 600 500 l 1x98
 600 400 l 1
 700 400 l 1
 700 300 l 1x58
 500 300 l 1x98
 500 400 l 1
 400 400 l 1x38
 400 500 l 1
 300 500 l 1x98
 300 400 l 1
 200 400 l 1x38
 200 300 l 1x98
 0 300 l 1
 0 400 l 1
 100 400 l 1x58
 100 500 l 1
 200 500 l 1x98
 200 600 l 1
 300 600 l 1
 300 700 l 1x38
EndSplineSet
EndChar

StartChar: underscore
Encoding: 63 95 63
Width: 800
HStem: -100 100<0 800>
Fore
SplineSet
0 0 m 1
 800 0 l 1
 800 -100 l 1
 0 -100 l 1
 0 0 l 1
EndSplineSet
EndChar

StartChar: grave
Encoding: 64 96 64
Width: 800
HStem: 400 100<300 400> 500 21G<200 300> 600 100<300 400>
VStem: 200 100<500 600> 300 100<400 500>
Fore
SplineSet
200 700 m 1x70
 400 700 l 1
 400 600 l 1x68
 300 600 l 1
 300 500 l 1xb0
 200 500 l 1
 200 700 l 1x70
300 500 m 1xb0
 400 500 l 1
 400 400 l 1
 300 400 l 1xa8
 300 500 l 1xb0
EndSplineSet
EndChar

StartChar: a
Encoding: 65 97 65
Width: 800
HStem: 0 100<200 400 600 700> 100 100<0 100> 200 100<200 400> 400 100<100 400>
VStem: 400 200<100 200 300 400>
Fore
SplineSet
100 500 m 1x38
 500 500 l 1
 500 400 l 1
 600 400 l 1
 600 100 l 1
 700 100 l 1
 700 0 l 1
 500 0 l 1xb8
 500 100 l 1x58
 400 100 l 1
 400 200 l 1
 200 200 l 1
 200 100 l 1
 400 100 l 1
 400 0 l 1
 100 0 l 1xb8
 100 100 l 1
 0 100 l 1
 0 200 l 1
 100 200 l 1x58
 100 300 l 1
 400 300 l 1
 400 400 l 1
 100 400 l 1
 100 500 l 1x38
EndSplineSet
Colour: f46a4b
EndChar

StartChar: b
Encoding: 66 98 66
Width: 800
HStem: 0 100<300 500> 300 100<300 500> 600 100<0 100>
VStem: 100 200<100 300 400 600> 500 200<100 300>
Fore
SplineSet
0 700 m 1
 300 700 l 1
 300 400 l 1
 600 400 l 1
 600 300 l 1
 700 300 l 1
 700 100 l 1
 600 100 l 1
 600 0 l 1
 100 0 l 1
 100 600 l 1
 0 600 l 1
 0 700 l 1
500 300 m 1
 300 300 l 1
 300 100 l 1
 500 100 l 1
 500 300 l 1
EndSplineSet
EndChar

StartChar: c
Encoding: 67 99 67
Width: 800
HStem: 0 100<200 500> 100 100<600 700> 300 100<600 700> 400 100<200 500>
VStem: 0 200<100 400> 500 200<100 200 300 400>
Fore
SplineSet
100 500 m 1x5c
 600 500 l 1x5c
 600 400 l 1
 700 400 l 1
 700 300 l 1
 500 300 l 1x2c
 500 400 l 1
 200 400 l 1
 200 100 l 1
 500 100 l 1x9c
 500 200 l 1
 700 200 l 1
 700 100 l 1
 600 100 l 1x4c
 600 0 l 1
 100 0 l 1x8c
 100 100 l 1
 0 100 l 1
 0 400 l 1
 100 400 l 1
 100 500 l 1x5c
EndSplineSet
Colour: f46a4b
EndChar

StartChar: d
Encoding: 68 100 68
Width: 800
HStem: 0 100<200 400 600 700> 300 100<200 400> 600 100<300 400>
VStem: 0 200<100 300> 400 200<100 300 400 600>
Fore
SplineSet
300 700 m 1
 600 700 l 1
 600 100 l 1
 700 100 l 1
 700 0 l 1
 500 0 l 1
 500 100 l 1
 400 100 l 1
 400 300 l 1
 200 300 l 1
 200 100 l 1
 400 100 l 1
 400 0 l 1
 100 0 l 1
 100 100 l 1
 0 100 l 1
 0 300 l 1
 100 300 l 1
 100 400 l 1
 400 400 l 1
 400 600 l 1
 300 600 l 1
 300 700 l 1
EndSplineSet
EndChar

StartChar: NameMe.354
Encoding: 69 101 69
Width: 800
HStem: 0 100<200 600> 200 100<200 500> 400 100<200 500>
VStem: 0 200<100 200 300 400>
Fore
SplineSet
500 400 m 1
 200 400 l 1
 200 300 l 1
 500 300 l 1
 500 400 l 1
100 500 m 1
 600 500 l 1
 600 400 l 1
 700 400 l 1
 700 200 l 1
 200 200 l 1
 200 100 l 1
 600 100 l 1
 600 0 l 1
 100 0 l 1
 100 100 l 1
 0 100 l 1
 0 400 l 1
 100 400 l 1
 100 500 l 1
EndSplineSet
Colour: f46a4b
EndChar

StartChar: f
Encoding: 70 102 70
Width: 800
HStem: 0 100<100 200 400 500> 300 100<100 200 400 500> 500 100<600 700> 600 100<400 500>
VStem: 200 200<100 300 400 600>
Fore
SplineSet
300 700 m 1xd8
 600 700 l 1xd8
 600 600 l 1
 700 600 l 1
 700 500 l 1
 500 500 l 1xe8
 500 600 l 1
 400 600 l 1
 400 400 l 1
 500 400 l 1
 500 300 l 1
 400 300 l 1
 400 100 l 1
 500 100 l 1
 500 0 l 1
 100 0 l 1
 100 100 l 1
 200 100 l 1
 200 300 l 1
 100 300 l 1
 100 400 l 1
 200 400 l 1
 200 600 l 1
 300 600 l 1
 300 700 l 1xd8
EndSplineSet
EndChar

StartChar: g
Encoding: 71 103 71
Width: 800
HStem: -100 100<100 400> 100 100<200 400> 400 100<200 400 600 700>
VStem: 0 200<200 400> 400 200<0 100 200 400>
Fore
SplineSet
100 500 m 1
 400 500 l 1
 400 400 l 1
 200 400 l 1
 200 200 l 1
 400 200 l 1
 400 400 l 1
 500 400 l 1
 500 500 l 1
 700 500 l 1
 700 400 l 1
 600 400 l 1
 600 0 l 1
 500 0 l 1
 500 -100 l 1
 100 -100 l 1
 100 0 l 1
 400 0 l 1
 400 100 l 1
 100 100 l 1
 100 200 l 1
 0 200 l 1
 0 400 l 1
 100 400 l 1
 100 500 l 1
EndSplineSet
EndChar

StartChar: h
Encoding: 72 104 72
Width: 800
HStem: 0 100<0 100> 300 100<300 400> 400 100<400 500> 600 100<0 100>
VStem: 100 200<100 300 400 600> 500 200<0 400>
Fore
SplineSet
0 700 m 1xdc
 300 700 l 1
 300 400 l 1
 400 400 l 1
 400 300 l 1
 300 300 l 1
 300 0 l 1
 0 0 l 1
 0 100 l 1
 100 100 l 1
 100 600 l 1
 0 600 l 1
 0 700 l 1xdc
400 500 m 1xbc
 600 500 l 1
 600 400 l 1
 700 400 l 1
 700 0 l 1
 500 0 l 1
 500 400 l 1xbc
 400 400 l 1xdc
 400 500 l 1xbc
EndSplineSet
EndChar

StartChar: i
Encoding: 73 105 73
Width: 800
HStem: 0 100<200 300 500 600> 400 100<200 300> 600 100<300 500>
VStem: 300 200<100 400 600 700>
Fore
SplineSet
300 700 m 1
 500 700 l 1
 500 600 l 1
 300 600 l 1
 300 700 l 1
200 500 m 1
 500 500 l 1
 500 100 l 1
 600 100 l 1
 600 0 l 1
 200 0 l 1
 200 100 l 1
 300 100 l 1
 300 400 l 1
 200 400 l 1
 200 500 l 1
EndSplineSet
EndChar

StartChar: j
Encoding: 74 106 74
Width: 800
HStem: -100 100<200 400> 0 100<0 100> 400 100<300 400> 600 100<400 600>
VStem: 400 200<0 400 600 700>
Fore
SplineSet
400 700 m 1x38
 600 700 l 1
 600 600 l 1
 400 600 l 1
 400 700 l 1x38
300 500 m 1
 600 500 l 1
 600 0 l 1
 500 0 l 1x78
 500 -100 l 1
 100 -100 l 1xb8
 100 0 l 1
 0 0 l 1
 0 100 l 1
 200 100 l 1x78
 200 0 l 1
 400 0 l 1xb8
 400 400 l 1
 300 400 l 1
 300 500 l 1
EndSplineSet
EndChar

StartChar: k
Encoding: 75 107 75
Width: 800
HStem: 0 100<0 100 600 700> 200 100<300 400> 400 100<600 700> 600 100<0 100>
VStem: 100 200<100 200 300 600> 400 200<100 200 300 400> 500 200<0 100 400 500>
Fore
SplineSet
0 700 m 1xfc
 300 700 l 1
 300 300 l 1
 400 300 l 1
 400 400 l 1xfc
 500 400 l 1
 500 500 l 1
 700 500 l 1
 700 400 l 1xfa
 600 400 l 1
 600 300 l 1xfc
 500 300 l 1
 500 200 l 1xfa
 600 200 l 1
 600 100 l 1xfc
 700 100 l 1
 700 0 l 1
 500 0 l 1
 500 100 l 1xfa
 400 100 l 1
 400 200 l 1
 300 200 l 1
 300 0 l 1
 0 0 l 1
 0 100 l 1
 100 100 l 1
 100 600 l 1
 0 600 l 1
 0 700 l 1xfc
EndSplineSet
EndChar

StartChar: l
Encoding: 76 108 76
Width: 800
HStem: 0 100<200 300 500 600> 600 100<200 300>
VStem: 300 200<100 600>
Fore
SplineSet
200 700 m 1
 500 700 l 1
 500 100 l 1
 600 100 l 1
 600 0 l 1
 200 0 l 1
 200 100 l 1
 300 100 l 1
 300 600 l 1
 200 600 l 1
 200 700 l 1
EndSplineSet
EndChar

StartChar: m
Encoding: 77 109 77
Width: 800
HStem: 0 21G<0 200 500 700> 300 100<200 300> 480 20G<0 200 400 600>
VStem: 0 200<0 300 400 500> 300 100<100 300> 500 200<0 300>
Fore
SplineSet
0 500 m 1
 200 500 l 1
 200 400 l 1
 400 400 l 1
 400 500 l 1
 600 500 l 1
 600 400 l 1
 700 400 l 1
 700 0 l 1
 500 0 l 1
 500 300 l 1
 400 300 l 1
 400 100 l 1
 300 100 l 1
 300 300 l 1
 200 300 l 1
 200 0 l 1
 0 0 l 1
 0 500 l 1
EndSplineSet
EndChar

StartChar: n
Encoding: 78 110 78
Width: 800
HStem: 0 21G<100 300 500 700> 400 100<0 100 300 500>
VStem: 100 200<0 400> 500 200<0 400>
Fore
SplineSet
0 500 m 1
 200 500 l 1
 200 400 l 1
 300 400 l 1
 300 0 l 1
 100 0 l 1
 100 400 l 1
 0 400 l 1
 0 500 l 1
300 500 m 1
 600 500 l 1
 600 400 l 1
 700 400 l 1
 700 0 l 1
 500 0 l 1
 500 400 l 1
 300 400 l 1
 300 500 l 1
EndSplineSet
Colour: f46a4b
EndChar

StartChar: o
Encoding: 79 111 79
Width: 800
HStem: 0 100<200 500> 400 100<200 500>
VStem: 0 200<100 400> 500 200<100 400>
Fore
SplineSet
500 400 m 1
 200 400 l 1
 200 100 l 1
 500 100 l 1
 500 400 l 1
100 500 m 1
 600 500 l 1
 600 400 l 1
 700 400 l 1
 700 100 l 1
 600 100 l 1
 600 0 l 1
 100 0 l 1
 100 100 l 1
 0 100 l 1
 0 400 l 1
 100 400 l 1
 100 500 l 1
EndSplineSet
Colour: f46a4b
EndChar

StartChar: p
Encoding: 80 112 80
Width: 800
HStem: -100 100<0 100 300 400> 100 100<300 500> 400 100<0 100 300 500>
VStem: 100 200<0 100 200 400> 500 200<200 400>
Fore
SplineSet
0 500 m 1
 200 500 l 1
 200 400 l 1
 300 400 l 1
 300 200 l 1
 500 200 l 1
 500 400 l 1
 300 400 l 1
 300 500 l 1
 600 500 l 1
 600 400 l 1
 700 400 l 1
 700 200 l 1
 600 200 l 1
 600 100 l 1
 300 100 l 1
 300 0 l 1
 400 0 l 1
 400 -100 l 1
 0 -100 l 1
 0 0 l 1
 100 0 l 1
 100 400 l 1
 0 400 l 1
 0 500 l 1
EndSplineSet
EndChar

StartChar: q
Encoding: 81 113 81
Width: 800
HStem: -100 100<300 400 600 700> 100 100<200 400> 400 100<200 400>
VStem: 0 200<200 400> 400 200<0 100 200 400>
Fore
SplineSet
400 400 m 1
 200 400 l 1
 200 200 l 1
 400 200 l 1
 400 400 l 1
100 500 m 1
 600 500 l 1
 600 0 l 1
 700 0 l 1
 700 -100 l 1
 300 -100 l 1
 300 0 l 1
 400 0 l 1
 400 100 l 1
 100 100 l 1
 100 200 l 1
 0 200 l 1
 0 400 l 1
 100 400 l 1
 100 500 l 1
EndSplineSet
EndChar

StartChar: r
Encoding: 82 114 82
Width: 800
HStem: 0 100<0 100 300 400> 300 200<300 400 500 700> 400 100<0 100 400 500>
VStem: 100 200<100 300>
Fore
SplineSet
0 500 m 1xb0
 200 500 l 1
 200 400 l 1
 300 400 l 1xb0
 300 500 l 1
 700 500 l 1
 700 300 l 1
 500 300 l 1xd0
 500 400 l 1
 400 400 l 1xb0
 400 300 l 1
 300 300 l 1xd0
 300 100 l 1
 400 100 l 1
 400 0 l 1
 0 0 l 1
 0 100 l 1
 100 100 l 1
 100 400 l 1
 0 400 l 1
 0 500 l 1xb0
EndSplineSet
Colour: f46a4b
EndChar

StartChar: s
Encoding: 83 115 83
Width: 800
HStem: 0 100<100 500> 100 100<600 700> 200 100<200 500> 300 100<0 100> 400 100<200 600>
Fore
SplineSet
100 500 m 1x08
 600 500 l 1
 600 400 l 1
 200 400 l 1
 200 300 l 1x28
 600 300 l 1
 600 200 l 1
 700 200 l 1
 700 100 l 1
 600 100 l 1x50
 600 0 l 1
 100 0 l 1
 100 100 l 1
 500 100 l 1
 500 200 l 1
 100 200 l 1xa0
 100 300 l 1
 0 300 l 1
 0 400 l 1
 100 400 l 1x10
 100 500 l 1x08
EndSplineSet
Colour: f46a4b
EndChar

StartChar: t
Encoding: 84 116 84
Width: 800
HStem: 0 100<400 500> 100 100<500 600> 400 100<0 200 400 600> 680 20G<300 400>
VStem: 200 200<100 400 500 600> 300 100<600 700> 500 100<100 200>
Fore
SplineSet
300 700 m 1x76
 400 700 l 1x76
 400 500 l 1
 600 500 l 1
 600 400 l 1
 400 400 l 1
 400 100 l 1xba
 500 100 l 1
 500 0 l 1
 300 0 l 1xb6
 300 100 l 1x76
 200 100 l 1
 200 400 l 1
 0 400 l 1
 0 500 l 1
 200 500 l 1
 200 600 l 1x7a
 300 600 l 1
 300 700 l 1x76
500 200 m 1
 600 200 l 1
 600 100 l 1x72
 500 100 l 1xb2
 500 200 l 1
EndSplineSet
EndChar

StartChar: u
Encoding: 85 117 85
Width: 800
HStem: 0 100<200 400 600 700> 480 20G<0 200 400 600>
VStem: 0 200<100 500> 400 200<100 500>
Fore
SplineSet
0 500 m 1
 200 500 l 1
 200 100 l 1
 400 100 l 1
 400 0 l 1
 100 0 l 1
 100 100 l 1
 0 100 l 1
 0 500 l 1
400 500 m 1
 600 500 l 1
 600 100 l 1
 700 100 l 1
 700 0 l 1
 500 0 l 1
 500 100 l 1
 400 100 l 1
 400 500 l 1
EndSplineSet
Colour: f46a4b
EndChar

StartChar: v
Encoding: 86 118 86
Width: 800
HStem: 0 21G<300 400> 100 200<200 300 400 500> 300 200<0 100 600 700>
VStem: 0 200<300 500> 300 100<0 100> 500 200<300 500>
Fore
SplineSet
0 500 m 1xbc
 200 500 l 1xbc
 200 300 l 1
 300 300 l 1
 300 200 l 1
 400 200 l 1
 400 300 l 1
 500 300 l 1xdc
 500 500 l 1
 700 500 l 1
 700 300 l 1
 600 300 l 1xbc
 600 200 l 1
 500 200 l 1
 500 100 l 1
 400 100 l 1
 400 0 l 1
 300 0 l 1
 300 100 l 1
 200 100 l 1xdc
 200 200 l 1
 100 200 l 1
 100 300 l 1
 0 300 l 1
 0 500 l 1xbc
EndSplineSet
EndChar

StartChar: w
Encoding: 87 119 87
Width: 800
HStem: 0 200<200 300 400 500> 480 20G<0 200 500 700>
VStem: 0 200<200 500> 300 100<200 400> 500 200<200 500>
Fore
SplineSet
0 500 m 1
 200 500 l 1
 200 200 l 1
 300 200 l 1
 300 400 l 1
 400 400 l 1
 400 200 l 1
 500 200 l 1
 500 500 l 1
 700 500 l 1
 700 100 l 1
 600 100 l 1
 600 0 l 1
 400 0 l 1
 400 100 l 1
 300 100 l 1
 300 0 l 1
 100 0 l 1
 100 100 l 1
 0 100 l 1
 0 500 l 1
EndSplineSet
EndChar

StartChar: x
Encoding: 88 120 88
Width: 800
HStem: 0 200<100 200 500 600> 0 100<0 100 600 700> 200 100<300 400> 300 200<100 200 500 600> 400 100<0 100 600 700>
VStem: 0 200<0 100 400 500> 100 200<100 200 300 400> 400 200<100 200 300 400> 500 200<0 100 400 500>
Fore
SplineSet
0 500 m 1x0c
 200 500 l 1x14
 200 400 l 1x0c
 300 400 l 1
 300 300 l 1
 400 300 l 1
 400 400 l 1x2b
 500 400 l 1x2880
 500 500 l 1x1080
 700 500 l 1
 700 400 l 1x0880
 600 400 l 1x09
 600 300 l 1x11
 500 300 l 1
 500 200 l 1x9080
 600 200 l 1x91
 600 100 l 1x41
 700 100 l 1
 700 0 l 1x4080
 500 0 l 1x8080
 500 100 l 1x4080
 400 100 l 1
 400 200 l 1
 300 200 l 1
 300 100 l 1x63
 200 100 l 1x64
 200 0 l 1x84
 0 0 l 1
 0 100 l 1x44
 100 100 l 1x42
 100 200 l 1x82
 200 200 l 1
 200 300 l 1x94
 100 300 l 1x92
 100 400 l 1x0a
 0 400 l 1
 0 500 l 1x0c
EndSplineSet
EndChar

StartChar: y
Encoding: 89 121 89
Width: 800
HStem: -100 100<0 400> 100 100<200 400> 480 20G<0 200 400 600>
VStem: 0 200<200 500> 400 200<0 100 200 500>
Fore
SplineSet
0 500 m 1
 200 500 l 1
 200 200 l 1
 400 200 l 1
 400 500 l 1
 600 500 l 1
 600 0 l 1
 500 0 l 1
 500 -100 l 1
 0 -100 l 1
 0 0 l 1
 400 0 l 1
 400 100 l 1
 100 100 l 1
 100 200 l 1
 0 200 l 1
 0 500 l 1
EndSplineSet
Colour: f46a4b
EndChar

StartChar: z
Encoding: 90 122 90
Width: 800
HStem: 0 200<100 200 500 600> 0 100<0 100 300 500> 300 200<0 100 400 500> 400 100<100 300 500 600>
VStem: 0 100<300 400> 500 100<100 200>
Fore
SplineSet
0 500 m 1x2c
 600 500 l 1
 600 400 l 1
 500 400 l 1x1c
 500 300 l 1
 400 300 l 1
 400 200 l 1
 300 200 l 1xac
 300 100 l 1
 500 100 l 1x4c
 500 200 l 1
 600 200 l 1
 600 0 l 1x8c
 0 0 l 1
 0 100 l 1
 100 100 l 1x4c
 100 200 l 1
 200 200 l 1
 200 300 l 1
 300 300 l 1xac
 300 400 l 1
 100 400 l 1x1c
 100 300 l 1
 0 300 l 1
 0 500 l 1x2c
EndSplineSet
Colour: f46a4b
EndChar

StartChar: braceleft
Encoding: 91 123 91
Width: 800
HStem: 0 100<500 700> 300 100<200 300> 600 100<500 700>
VStem: 300 200<100 300 400 600>
Fore
SplineSet
400 700 m 1
 700 700 l 1
 700 600 l 1
 500 600 l 1
 500 400 l 1
 400 400 l 1
 400 300 l 1
 500 300 l 1
 500 100 l 1
 700 100 l 1
 700 0 l 1
 400 0 l 1
 400 100 l 1
 300 100 l 1
 300 300 l 1
 200 300 l 1
 200 400 l 1
 300 400 l 1
 300 600 l 1
 400 600 l 1
 400 700 l 1
EndSplineSet
EndChar

StartChar: bar
Encoding: 92 124 92
Width: 800
HStem: 0 21G<300 500> 680 20G<300 500>
VStem: 300 200<0 300 400 700>
Fore
SplineSet
300 700 m 1
 500 700 l 1
 500 400 l 1
 300 400 l 1
 300 700 l 1
300 300 m 1
 500 300 l 1
 500 0 l 1
 300 0 l 1
 300 300 l 1
EndSplineSet
Colour: f46a4b
EndChar

StartChar: braceright
Encoding: 93 125 93
Width: 800
HStem: 0 100<200 400> 300 100<600 700> 600 100<200 400>
VStem: 400 200<100 300 400 600>
Fore
SplineSet
200 700 m 1
 500 700 l 1
 500 600 l 1
 600 600 l 1
 600 400 l 1
 700 400 l 1
 700 300 l 1
 600 300 l 1
 600 100 l 1
 500 100 l 1
 500 0 l 1
 200 0 l 1
 200 100 l 1
 400 100 l 1
 400 300 l 1
 500 300 l 1
 500 400 l 1
 400 400 l 1
 400 600 l 1
 200 600 l 1
 200 700 l 1
EndSplineSet
EndChar

StartChar: asciitilde
Encoding: 94 126 94
Width: 800
HStem: 500 100<0 100 400 500> 600 100<200 300 600 700>
Fore
SplineSet
100 700 m 1x40
 400 700 l 1x40
 400 600 l 1
 500 600 l 1x80
 500 700 l 1
 700 700 l 1
 700 600 l 1
 600 600 l 1x40
 600 500 l 1
 300 500 l 1x80
 300 600 l 1
 200 600 l 1x40
 200 500 l 1
 0 500 l 1
 0 600 l 1
 100 600 l 1x80
 100 700 l 1x40
EndSplineSet
Colour: f46a4b
EndChar

StartChar: cent
Encoding: 97 162 97
Width: 800
HStem: 0 21G<300 500> 100 100<200 300> 200 100<600 700> 400 100<600 700> 500 100<200 300 400 500> 680 20G<300 400>
VStem: 0 200<200 500> 300 100<200 500 600 700> 500 200<200 300 400 500>
Fore
SplineSet
300 500 m 1xcf80
 200 500 l 1
 200 200 l 1
 300 200 l 1
 300 500 l 1xcf80
300 700 m 1
 400 700 l 1
 400 600 l 1
 600 600 l 1xaf80
 600 500 l 1
 700 500 l 1
 700 400 l 1
 500 400 l 1x9780
 500 500 l 1
 400 500 l 1
 400 200 l 1
 500 200 l 1
 500 300 l 1
 700 300 l 1
 700 200 l 1
 600 200 l 1xaf80
 600 100 l 1
 500 100 l 1
 500 0 l 1
 300 0 l 1
 300 100 l 1
 100 100 l 1xc780
 100 200 l 1
 0 200 l 1xa780
 0 500 l 1
 100 500 l 1
 100 600 l 1
 300 600 l 1
 300 700 l 1
EndSplineSet
EndChar

StartChar: sterling
Encoding: 98 163 98
Width: 800
HStem: 0 100<400 600> 100 100<600 700> 300 100<0 100 300 400> 500 100<500 600> 600 100<300 400>
VStem: 100 200<200 300 400 600> 600 100<100 200>
Fore
SplineSet
200 700 m 1x6e
 500 700 l 1x6e
 500 600 l 1
 600 600 l 1
 600 500 l 1
 400 500 l 1x36
 400 600 l 1
 300 600 l 1
 300 400 l 1
 400 400 l 1
 400 300 l 1
 300 300 l 1
 300 200 l 1
 400 200 l 1x6e
 400 100 l 1
 600 100 l 1
 600 0 l 1
 300 0 l 1xa6
 300 100 l 1
 200 100 l 1x66
 200 0 l 1
 0 0 l 1xa6
 0 200 l 1
 100 200 l 1
 100 300 l 1
 0 300 l 1
 0 400 l 1
 100 400 l 1
 100 600 l 1
 200 600 l 1
 200 700 l 1x6e
600 200 m 1
 700 200 l 1
 700 100 l 1x66
 600 100 l 1xa6
 600 200 l 1
EndSplineSet
EndChar

StartChar: currency
Encoding: 99 164 99
Width: 800
HStem: 0 100<100 200 600 700> 200 200<100 200 600 700> 500 100<100 200 600 700>
VStem: 100 200<0 100 200 400 500 600> 500 200<0 100 200 400 500 600>
Fore
SplineSet
500 400 m 25
 300 400 l 25
 300 200 l 25
 500 200 l 25
 500 400 l 25
100 600 m 25
 300 600 l 25
 300 500 l 25
 500 500 l 25
 500 600 l 25
 700 600 l 25
 700 500 l 25
 600 500 l 25
 600 400 l 25
 700 400 l 25
 700 200 l 25
 600 200 l 25
 600 100 l 1
 700 100 l 25
 700 0 l 1
 500 0 l 25
 500 100 l 1
 300 100 l 1
 300 0 l 1
 100 0 l 1
 100 100 l 1
 200 100 l 1
 200 200 l 1
 100 200 l 1
 100 400 l 1
 200 400 l 1
 200 500 l 1
 100 500 l 1
 100 600 l 25
EndSplineSet
EndChar

StartChar: yen
Encoding: 100 165 100
Width: 800
HStem: 0 21G<300 500> 100 100<100 300 500 700> 300 100<100 300 500 700> 500 200<200 300 500 600> 600 100<100 200 600 700>
VStem: 300 200<0 100 200 300 400 500>
Fore
SplineSet
100 700 m 1xec
 300 700 l 1xf4
 300 600 l 1
 500 600 l 1xec
 500 700 l 1xf4
 700 700 l 1
 700 600 l 1
 600 600 l 1xec
 600 500 l 1
 500 500 l 1
 500 400 l 1
 700 400 l 1
 700 300 l 1
 500 300 l 1
 500 200 l 1
 700 200 l 1
 700 100 l 1
 500 100 l 1
 500 0 l 1
 300 0 l 1
 300 100 l 1
 100 100 l 1
 100 200 l 1
 300 200 l 1
 300 300 l 1
 100 300 l 1
 100 400 l 1
 300 400 l 1
 300 500 l 1
 200 500 l 1xf4
 200 600 l 1
 100 600 l 1
 100 700 l 1xec
EndSplineSet
EndChar

StartChar: section
Encoding: 102 167 102
Width: 800
HStem: -100 100<100 400> 0 100<0 100> 100 100<200 400> 200 200<100 200 500 600> 400 100<300 500> 500 100<600 700> 600 100<300 600>
VStem: 0 100<0 100> 100 100<200 400> 200 100<500 600> 400 100<0 100> 500 100<200 400> 600 100<500 600>
Fore
SplineSet
300 700 m 1x0248
 600 700 l 1x0248
 600 600 l 1x0448
 300 600 l 1
 300 700 l 1x0248
200 600 m 1
 300 600 l 1
 300 500 l 1
 500 500 l 1x0a50
 500 400 l 1
 200 400 l 1x1090
 200 600 l 1
600 600 m 1x0408
 700 600 l 1
 700 500 l 1
 600 500 l 1
 600 600 l 1x0408
100 400 m 1x1080
 200 400 l 1x1080
 200 200 l 1x2080
 100 200 l 1
 100 400 l 1x1080
500 400 m 1x1010
 600 400 l 1
 600 200 l 1
 500 200 l 1
 500 400 l 1x1010
0 100 m 1x41
 100 100 l 1x41
 100 0 l 1x81
 0 0 l 1
 0 100 l 1x41
200 200 m 1xa080
 500 200 l 1x1090
 500 0 l 1x5020
 400 0 l 1
 400 100 l 1
 200 100 l 1xa060
 200 200 l 1xa080
100 0 m 1x81
 400 0 l 1
 400 -100 l 1
 100 -100 l 1x80a0
 100 0 l 1x81
EndSplineSet
EndChar

StartChar: dieresis
Encoding: 103 168 103
Width: 800
HStem: 600 100<0 200 400 600>
Fore
SplineSet
0 700 m 1
 200 700 l 1
 200 600 l 1
 0 600 l 1
 0 700 l 1
400 700 m 1
 600 700 l 1
 600 600 l 1
 400 600 l 1
 400 700 l 1
EndSplineSet
Colour: f46a4b
EndChar

StartChar: copyright
Encoding: 104 169 104
Width: 800
HStem: -100 100<200 600> 0 100<100 200 600 700> 100 100<300 500> 400 100<300 500> 500 100<100 200 600 700> 600 100<200 600>
VStem: 0 100<100 500> 100 100<0 100 500 600> 200 100<200 400> 300 200<100 200 400 500> 600 100<0 100 500 600> 700 100<100 500>
Fore
SplineSet
300 500 m 1x1040
 500 500 l 1
 500 400 l 1x1040
 300 400 l 1x1080
 300 500 l 1x1040
200 400 m 1x3080
 300 400 l 1
 300 200 l 1
 200 200 l 1
 200 400 l 1x3080
300 200 m 1
 500 200 l 1
 500 100 l 1
 300 100 l 1x2040
 300 200 l 1
200 700 m 1x0480
 600 700 l 1x04a0
 600 600 l 1
 200 600 l 1x0920
 200 700 l 1x0480
100 600 m 1x09
 200 600 l 1
 200 500 l 1x09
 100 500 l 1x0a
 100 600 l 1x09
600 600 m 1x0820
 700 600 l 1
 700 500 l 1
 600 500 l 1
 600 600 l 1x0820
0 500 m 1x2a
 100 500 l 1
 100 100 l 1x4a
 0 100 l 1
 0 500 l 1x2a
700 500 m 1x4820
 800 500 l 1
 800 100 l 1x2810
 700 100 l 1
 700 500 l 1x4820
100 100 m 1x42
 200 100 l 1x41
 200 0 l 1x81
 100 0 l 1x41
 100 100 l 1x42
600 100 m 1x4020
 700 100 l 1
 700 0 l 1x4020
 600 0 l 1x8020
 600 100 l 1x4020
200 0 m 1x81
 600 0 l 1
 600 -100 l 1
 200 -100 l 1x80a0
 200 0 l 1x81
EndSplineSet
EndChar

StartChar: ordfeminine
Encoding: 105 170 105
Width: 800
HStem: 100 100<100 700> 300 200<200 400> 600 100<200 400>
VStem: 500 100<300 400>
Fore
SplineSet
200 700 m 1
 500 700 l 1
 500 600 l 1
 600 600 l 1
 600 300 l 1
 500 300 l 1
 500 400 l 1
 400 400 l 1
 400 300 l 1
 200 300 l 1
 200 500 l 1
 400 500 l 1
 400 600 l 1
 200 600 l 1
 200 700 l 1
100 200 m 1
 700 200 l 1
 700 100 l 1
 100 100 l 1
 100 200 l 1
EndSplineSet
EndChar

StartChar: logicalnot
Encoding: 107 172 107
Width: 800
HStem: 300 100<0 400>
VStem: 400 200<100 300>
Fore
SplineSet
0 400 m 1
 600 400 l 1
 600 100 l 1
 400 100 l 1
 400 300 l 1
 0 300 l 1
 0 400 l 1
EndSplineSet
EndChar

StartChar: registered
Encoding: 108 174 108
Width: 800
HStem: -100 100<200 600> 0 100<100 200 600 700> 100 100<500 600> 300 100<500 600> 400 100<301 500> 500 100<100 200 600 700> 600 100<200 600>
VStem: 0 100<100 500> 100 100<0 100 500 600> 200 100<100 200 300 400> 500 100<100 200 300 400> 600 100<0 100 500 600> 700 100<100 500>
Fore
SplineSet
200 500 m 1x4480
 500 500 l 1x08a0
 500 400 l 1x10a0
 301 400 l 1x08a0
 300 300 l 1
 500 300 l 1
 500 200 l 1
 300 200 l 1
 300 100 l 1x3060
 200 100 l 1
 200 500 l 1x4480
500 400 m 1x1020
 600 400 l 1
 600 300 l 1
 500 300 l 1
 500 400 l 1x1020
500 200 m 1x2020
 600 200 l 1x2020
 600 100 l 1x4020
 500 100 l 1
 500 200 l 1x2020
200 700 m 1x0240
 600 700 l 1x0250
 600 600 l 1
 200 600 l 1x0490
 200 700 l 1x0240
100 600 m 1x0480
 200 600 l 1
 200 500 l 1x0480
 100 500 l 1x05
 100 600 l 1x0480
600 600 m 1x0410
 700 600 l 1
 700 500 l 1
 600 500 l 1
 600 600 l 1x0410
0 500 m 1x25
 100 500 l 1
 100 100 l 1x45
 0 100 l 1
 0 500 l 1x25
700 500 m 1x4410
 800 500 l 1
 800 100 l 1x2408
 700 100 l 1
 700 500 l 1x4410
100 100 m 1x41
 200 100 l 1x4080
 200 0 l 1x8080
 100 0 l 1x4080
 100 100 l 1x41
600 100 m 1x4020
 700 100 l 1
 700 0 l 1x4010
 600 0 l 1x8010
 600 100 l 1x4020
200 0 m 1x8080
 600 0 l 1
 600 -100 l 1
 200 -100 l 1x8050
 200 0 l 1x8080
EndSplineSet
EndChar

StartChar: degree
Encoding: 109 176 109
Width: 800
HStem: 400 100<300 400> 500 100<100 200 500 600> 600 100<300 400>
Fore
SplineSet
400 600 m 1xa0
 300 600 l 1
 300 500 l 1
 400 500 l 1
 400 600 l 1xa0
200 700 m 1
 500 700 l 1x20
 500 600 l 1
 600 600 l 1
 600 500 l 1
 500 500 l 1x40
 500 400 l 1
 200 400 l 1x80
 200 500 l 1
 100 500 l 1
 100 600 l 1
 200 600 l 1x40
 200 700 l 1
EndSplineSet
EndChar

StartChar: plusminus
Encoding: 110 177 110
Width: 800
HStem: 0 100<0 800> 400 100<100 300 500 700> 680 20G<300 500>
VStem: 300 200<200 400 500 700>
Fore
SplineSet
300 700 m 1
 500 700 l 1
 500 500 l 1
 700 500 l 1
 700 400 l 1
 500 400 l 1
 500 200 l 1
 300 200 l 1
 300 400 l 1
 100 400 l 1
 100 500 l 1
 300 500 l 1
 300 700 l 1
0 100 m 1
 800 100 l 1
 800 0 l 1
 0 0 l 1
 0 100 l 1
EndSplineSet
EndChar

StartChar: uni00B2
Encoding: 111 178 111
Width: 800
HStem: 300 200<0 200> 300 100<200 400> 500 200<200 400> 600 100<0 200>
Fore
SplineSet
0 700 m 1x90
 400 700 l 1
 400 500 l 1x20
 200 500 l 1
 200 600 l 1
 0 600 l 1
 0 700 l 1x90
0 500 m 1x80
 200 500 l 1x80
 200 400 l 1
 400 400 l 1
 400 300 l 1x40
 0 300 l 1
 0 500 l 1x80
EndSplineSet
EndChar

StartChar: uni00B3
Encoding: 112 179 112
Width: 800
HStem: 300 100<0 200> 400 100<300 400> 600 100<0 100 300 400>
Fore
SplineSet
0 700 m 1x60
 400 700 l 1
 400 600 l 1
 300 600 l 1
 300 500 l 1
 400 500 l 1
 400 400 l 1
 300 400 l 1x60
 300 300 l 1
 0 300 l 1
 0 400 l 1
 200 400 l 1xa0
 200 500 l 1
 100 500 l 1
 100 600 l 1
 0 600 l 1
 0 700 l 1x60
EndSplineSet
EndChar

StartChar: acute
Encoding: 113 180 113
Width: 800
HStem: 500 100<300 400> 600 100<400 700>
VStem: 300 100<500 600>
Fore
SplineSet
400 700 m 1x60
 700 700 l 1
 700 600 l 1x60
 400 600 l 1xa0
 400 700 l 1x60
300 600 m 1xa0
 400 600 l 1
 400 500 l 1
 300 500 l 1
 300 600 l 1xa0
EndSplineSet
Colour: f46a4b
EndChar

StartChar: mu
Encoding: 114 181 114
Width: 800
HStem: -100 21G<0 100> 0 100<200 400> 480 20G<0 200 400 600>
VStem: 0 200<100 500> 0 100<-100 0> 400 200<100 500>
Fore
SplineSet
0 500 m 1xf4
 200 500 l 1
 200 100 l 1xf4
 400 100 l 1
 400 500 l 1
 600 500 l 1
 600 100 l 1
 500 100 l 1
 500 0 l 1
 100 0 l 1
 100 -100 l 1
 0 -100 l 1xec
 0 500 l 1xf4
EndSplineSet
EndChar

StartChar: paragraph
Encoding: 115 182 115
Width: 800
HStem: 0 21G<300 500 600 800> 200 100<200 300> 600 100<200 300 500 600>
VStem: 0 200<300 600> 300 200<0 200 300 600> 600 200<0 600>
Fore
SplineSet
300 600 m 1
 200 600 l 1
 200 300 l 1
 300 300 l 1
 300 600 l 1
100 700 m 1
 800 700 l 1
 800 0 l 1
 600 0 l 1
 600 600 l 1
 500 600 l 1
 500 0 l 1
 300 0 l 1
 300 200 l 1
 100 200 l 1
 100 300 l 1
 0 300 l 1
 0 600 l 1
 100 600 l 1
 100 700 l 1
EndSplineSet
EndChar

StartChar: periodcentered
Encoding: 116 183 116
Width: 800
HStem: 200 100<300 500>
VStem: 300 200<200 300>
Fore
SplineSet
300 300 m 1
 500 300 l 1
 500 200 l 1
 300 200 l 1
 300 300 l 1
EndSplineSet
EndChar

StartChar: cedilla
Encoding: 117 184 117
Width: 800
HStem: -100 100<100 300> 0 100<400 500>
Fore
SplineSet
300 100 m 1x40
 500 100 l 1
 500 0 l 1
 400 0 l 1x40
 400 -100 l 1
 100 -100 l 1
 100 0 l 1
 300 0 l 1x80
 300 100 l 1x40
EndSplineSet
EndChar

StartChar: uni00B9
Encoding: 118 185 118
Width: 800
HStem: 500 100<100 200> 680 20G<200 400>
VStem: 200 200<300 500 600 700>
Fore
SplineSet
200 700 m 1
 400 700 l 1
 400 300 l 1
 200 300 l 1
 200 500 l 1
 100 500 l 1
 100 600 l 1
 200 600 l 1
 200 700 l 1
EndSplineSet
EndChar

StartChar: ordmasculine
Encoding: 119 186 119
Width: 800
HStem: 100 100<100 600> 300 100<300 400> 400 200<100 200 500 600> 600 100<300 400>
VStem: 100 200<400 600> 400 200<400 600>
Fore
SplineSet
400 600 m 1xdc
 300 600 l 1
 300 400 l 1
 400 400 l 1
 400 600 l 1xdc
200 700 m 1
 500 700 l 1x9c
 500 600 l 1
 600 600 l 1
 600 400 l 1
 500 400 l 1xac
 500 300 l 1
 200 300 l 1xcc
 200 400 l 1
 100 400 l 1
 100 600 l 1
 200 600 l 1xac
 200 700 l 1
100 200 m 1
 600 200 l 1
 600 100 l 1
 100 100 l 1
 100 200 l 1
EndSplineSet
EndChar

StartChar: onequarter
Encoding: 121 188 121
Width: 800
HStem: 0 100<600 700> 100 100<0 100> 300 100<200 300 400 500> 480 20G<300 400> 500 100<400 500> 680 20G<0 200>
VStem: 0 100<100 200> 100 100<200 300> 400 100<500 600>
Fore
SplineSet
0 700 m 1x6680
 200 700 l 1
 200 400 l 1
 300 400 l 1
 300 500 l 1
 400 500 l 1
 400 400 l 1
 700 400 l 1
 700 200 l 1
 600 200 l 1x7580
 600 100 l 1
 700 100 l 1
 700 0 l 1
 400 0 l 1xa580
 400 200 l 1
 500 200 l 1
 500 300 l 1
 200 300 l 1
 200 200 l 1x6580
 100 200 l 1x6680
 100 300 l 1x6580
 0 300 l 1
 0 700 l 1x6680
400 600 m 1x2c80
 500 600 l 1
 500 500 l 1x2c80
 400 500 l 1x3480
 400 600 l 1x2c80
0 200 m 1x6680
 100 200 l 1
 100 100 l 1
 0 100 l 1
 0 200 l 1x6680
EndSplineSet
EndChar

StartChar: onehalf
Encoding: 122 189 122
Width: 800
HStem: 0 21G<400 600> 100 100<0 100 200 300 600 700> 300 100<200 300> 400 100<300 400> 500 100<400 500> 680 20G<0 200>
VStem: 0 100<100 200> 100 100<200 300> 300 100<400 500> 400 200<0 100 300 400> 400 100<500 600>
Fore
SplineSet
0 700 m 1xe6
 200 700 l 1
 200 400 l 1
 300 400 l 1
 300 300 l 1
 200 300 l 1
 200 200 l 1xe580
 100 200 l 1xe6
 100 300 l 1xe5
 0 300 l 1
 0 700 l 1xe6
400 600 m 1xcc20
 500 600 l 1
 500 500 l 1xcc20
 400 500 l 1xd480
 400 600 l 1xcc20
300 500 m 1xd480
 400 500 l 1
 400 400 l 1xd480
 300 400 l 1xe480
 300 500 l 1xd480
0 200 m 1xc6
 100 200 l 1
 100 100 l 1
 0 100 l 1
 0 200 l 1xc6
400 400 m 1xd480
 600 400 l 1
 600 200 l 1
 700 200 l 1
 700 100 l 1
 600 100 l 1
 600 0 l 1
 400 0 l 1
 400 100 l 1xd440
 200 100 l 1
 200 200 l 1
 300 200 l 1
 300 300 l 1xe580
 400 300 l 1xe440
 400 400 l 1xd480
EndSplineSet
EndChar

StartChar: threequarters
Encoding: 123 190 123
Width: 800
HStem: 0 21G<400 600> 100 100<0 100 200 300 600 700> 300 100<0 100> 500 100<400 500> 600 100<0 100 300 400>
VStem: 0 100<100 200> 100 100<200 300> 400 200<0 100 300 400> 400 100<500 600>
Fore
SplineSet
0 700 m 1xec
 400 700 l 1xec80
 400 600 l 1xf480
 300 600 l 1xec80
 300 500 l 1
 400 500 l 1xf480
 400 400 l 1
 300 400 l 1
 300 300 l 1
 200 300 l 1
 200 200 l 1xf3
 100 200 l 1xf4
 100 300 l 1xf2
 0 300 l 1
 0 400 l 1xf4
 200 400 l 1
 200 500 l 1
 100 500 l 1xf2
 100 600 l 1xea
 0 600 l 1
 0 700 l 1xec
400 600 m 1xf080
 500 600 l 1
 500 500 l 1
 400 500 l 1
 400 600 l 1xf080
0 200 m 1xe4
 100 200 l 1
 100 100 l 1
 0 100 l 1
 0 200 l 1xe4
400 400 m 1xe3
 600 400 l 1
 600 200 l 1
 700 200 l 1
 700 100 l 1
 600 100 l 1
 600 0 l 1
 400 0 l 1
 400 100 l 1
 200 100 l 1
 200 200 l 1
 300 200 l 1
 300 300 l 1
 400 300 l 1
 400 400 l 1xe3
EndSplineSet
EndChar

StartChar: Agrave
Encoding: 125 192 125
Width: 800
HStem: 0 21G<0 200 500 700> 200 100<200 500> 400 100<200 300 400 500> 600 100<0 300>
VStem: 0 200<0 200 300 400> 300 100<500 600> 500 200<0 200 300 400>
Fore
SplineSet
500 400 m 1
 200 400 l 1
 200 300 l 1
 500 300 l 1
 500 400 l 1
0 700 m 1
 300 700 l 1
 300 600 l 1
 0 600 l 1
 0 700 l 1
100 500 m 1
 300 500 l 1
 300 600 l 1
 400 600 l 1
 400 500 l 1
 600 500 l 1
 600 400 l 1
 700 400 l 1
 700 0 l 1
 500 0 l 1
 500 200 l 1
 200 200 l 1
 200 0 l 1
 0 0 l 1
 0 400 l 1
 100 400 l 1
 100 500 l 1
EndSplineSet
EndChar

StartChar: Aacute
Encoding: 126 193 126
Width: 800
HStem: 0 21G<0 200 500 700> 200 100<200 500> 400 100<200 300 400 500> 600 100<400 700>
VStem: 0 200<0 200 300 400> 300 100<500 600> 500 200<0 200 300 400>
Fore
SplineSet
500 400 m 1
 200 400 l 1
 200 300 l 1
 500 300 l 1
 500 400 l 1
400 700 m 1
 700 700 l 1
 700 600 l 1
 400 600 l 1
 400 700 l 1
100 500 m 1
 300 500 l 1
 300 600 l 1
 400 600 l 1
 400 500 l 1
 600 500 l 1
 600 400 l 1
 700 400 l 1
 700 0 l 1
 500 0 l 1
 500 200 l 1
 200 200 l 1
 200 0 l 1
 0 0 l 1
 0 400 l 1
 100 400 l 1
 100 500 l 1
EndSplineSet
EndChar

StartChar: Acircumflex
Encoding: 127 194 127
Width: 800
HStem: 0 21G<0 200 500 700> 200 100<200 500> 400 100<200 500> 500 100<0 100 600 700> 600 100<100 600>
VStem: 0 200<0 200 300 400> 0 100<500 600> 500 200<0 200 300 400> 600 100<500 600>
Fore
SplineSet
500 400 m 1xe5
 200 400 l 1
 200 300 l 1
 500 300 l 1
 500 400 l 1xe5
100 700 m 1xca80
 600 700 l 1xca80
 600 600 l 1
 100 600 l 1xd280
 100 700 l 1xca80
0 600 m 1xd2
 100 600 l 1
 100 500 l 1
 0 500 l 1
 0 600 l 1xd2
600 600 m 1xd080
 700 600 l 1
 700 500 l 1
 600 500 l 1
 600 600 l 1xd080
100 500 m 1xd2
 600 500 l 1xd280
 600 400 l 1xe280
 700 400 l 1
 700 0 l 1
 500 0 l 1
 500 200 l 1
 200 200 l 1
 200 0 l 1
 0 0 l 1
 0 400 l 1xe5
 100 400 l 1xe2
 100 500 l 1xd2
EndSplineSet
EndChar

StartChar: Atilde
Encoding: 128 195 128
Width: 800
HStem: 0 21G<0 200 500 700> 200 100<200 500> 400 100<200 300> 500 100<0 100> 600 100<100 300 500 700>
VStem: 0 200<0 200 300 400> 0 100<500 600> 500 200<0 200 300 400 600 700>
Fore
SplineSet
500 400 m 1xe5
 200 400 l 1
 200 300 l 1
 500 300 l 1
 500 400 l 1xe5
100 700 m 1xcb
 300 700 l 1
 300 600 l 1xcb
 100 600 l 1xd3
 100 700 l 1xcb
500 700 m 1
 700 700 l 1
 700 600 l 1
 500 600 l 1
 500 700 l 1
0 600 m 1xd3
 100 600 l 1
 100 500 l 1
 0 500 l 1
 0 600 l 1xd3
100 500 m 1
 300 500 l 1
 300 600 l 1
 500 600 l 1xeb
 500 500 l 1
 600 500 l 1xd3
 600 400 l 1
 700 400 l 1
 700 0 l 1
 500 0 l 1
 500 200 l 1
 200 200 l 1
 200 0 l 1
 0 0 l 1
 0 400 l 1xe5
 100 400 l 1xe3
 100 500 l 1
EndSplineSet
EndChar

StartChar: Adieresis
Encoding: 129 196 129
Width: 800
HStem: 0 21G<0 200 500 700> 200 100<200 500> 400 100<200 500> 600 100<0 200 500 700>
VStem: 0 200<0 200 300 400 600 700> 500 200<0 200 300 400 600 700>
Fore
SplineSet
0 700 m 1
 200 700 l 1
 200 600 l 1
 0 600 l 1
 0 700 l 1
500 700 m 1
 700 700 l 1
 700 600 l 1
 500 600 l 1
 500 700 l 1
100 500 m 1
 600 500 l 1
 600 400 l 1
 700 400 l 1
 700 0 l 1
 500 0 l 1
 500 200 l 1
 200 200 l 1
 200 0 l 1
 0 0 l 1
 0 400 l 1
 100 400 l 1
 100 500 l 1
500 400 m 1
 200 400 l 1
 200 300 l 1
 500 300 l 1
 500 400 l 1
EndSplineSet
EndChar

StartChar: Aring
Encoding: 130 197 130
Width: 800
HStem: 0 21G<0 200 500 700> 200 100<200 500> 400 300<200 500>
VStem: 0 200<0 200 300 400> 500 200<0 200 300 400>
Fore
SplineSet
200 700 m 1
 500 700 l 1
 500 500 l 1
 600 500 l 1
 600 400 l 1
 700 400 l 1
 700 0 l 1
 500 0 l 1
 500 200 l 1
 200 200 l 1
 200 0 l 1
 0 0 l 1
 0 400 l 1
 100 400 l 1
 100 500 l 1
 200 500 l 1
 200 700 l 1
500 400 m 1
 200 400 l 1
 200 300 l 1
 500 300 l 1
 500 400 l 1
EndSplineSet
EndChar

StartChar: AE
Encoding: 131 198 131
Width: 800
HStem: 0 100<500 700> 300 100<200 400 500 700> 600 100<200 400 500 700>
VStem: 0 200<0 300 400 600> 400 100<100 300 400 600>
Fore
SplineSet
400 600 m 1
 200 600 l 1
 200 400 l 1
 400 400 l 1
 400 600 l 1
100 700 m 1
 700 700 l 1
 700 600 l 1
 500 600 l 1
 500 400 l 1
 700 400 l 1
 700 300 l 1
 500 300 l 1
 500 100 l 1
 700 100 l 1
 700 0 l 1
 400 0 l 1
 400 300 l 1
 200 300 l 1
 200 0 l 1
 0 0 l 1
 0 600 l 1
 100 600 l 1
 100 700 l 1
EndSplineSet
EndChar

StartChar: Ccedilla
Encoding: 132 199 132
Width: 800
HStem: -100 100<100 300> 100 100<200 300> 200 100<600 700> 500 100<600 700> 600 100<200 500>
VStem: 0 200<200 600> 500 200<200 300 500 600>
Fore
SplineSet
100 700 m 1xae
 600 700 l 1xae
 600 600 l 1
 700 600 l 1
 700 500 l 1
 500 500 l 1x96
 500 600 l 1
 200 600 l 1
 200 200 l 1xce
 500 200 l 1
 500 300 l 1
 700 300 l 1
 700 200 l 1
 600 200 l 1xa6
 600 100 l 1
 500 100 l 1
 500 0 l 1
 400 0 l 1
 400 -100 l 1
 100 -100 l 1
 100 0 l 1
 300 0 l 1
 300 100 l 1
 100 100 l 1xc6
 100 200 l 1
 0 200 l 1
 0 600 l 1
 100 600 l 1
 100 700 l 1xae
EndSplineSet
EndChar

StartChar: Egrave
Encoding: 133 200 133
Width: 800
HStem: 0 100<0 100 300 700> 200 100<300 500> 400 100<0 100 400 700> 600 100<0 300>
VStem: 100 200<100 200 300 400> 300 100<500 600>
Fore
SplineSet
0 700 m 1xf4
 300 700 l 1
 300 600 l 1
 0 600 l 1
 0 700 l 1xf4
300 600 m 1
 400 600 l 1
 400 500 l 1xf4
 700 500 l 1
 700 400 l 1
 300 400 l 1
 300 300 l 1
 500 300 l 1
 500 200 l 1
 300 200 l 1
 300 100 l 1
 700 100 l 1
 700 0 l 1
 0 0 l 1
 0 100 l 1
 100 100 l 1
 100 400 l 1xf8
 0 400 l 1
 0 500 l 1
 300 500 l 1
 300 600 l 1
EndSplineSet
EndChar

StartChar: Eacute
Encoding: 134 201 134
Width: 800
HStem: 0 100<0 100 300 700> 200 100<300 500> 400 100<0 100 400 700> 600 100<400 700>
VStem: 100 200<100 200 300 400> 300 100<500 600>
Fore
SplineSet
400 700 m 1xf4
 700 700 l 1
 700 600 l 1
 400 600 l 1
 400 700 l 1xf4
300 600 m 1
 400 600 l 1
 400 500 l 1xf4
 700 500 l 1
 700 400 l 1
 300 400 l 1
 300 300 l 1
 500 300 l 1
 500 200 l 1
 300 200 l 1
 300 100 l 1
 700 100 l 1
 700 0 l 1
 0 0 l 1
 0 100 l 1
 100 100 l 1
 100 400 l 1xf8
 0 400 l 1
 0 500 l 1
 300 500 l 1
 300 600 l 1
EndSplineSet
EndChar

StartChar: Ecircumflex
Encoding: 135 202 135
Width: 800
HStem: 0 100<0 100 300 700> 200 100<300 500> 400 200<0 100 600 700> 400 100<300 600> 600 100<100 600>
VStem: 0 100<500 600> 100 200<100 200 300 400> 600 100<500 600>
Fore
SplineSet
100 700 m 1xcb
 600 700 l 1xcb
 600 600 l 1
 100 600 l 1xe5
 100 700 l 1xcb
100 500 m 1xd5
 600 500 l 1xd5
 600 600 l 1
 700 600 l 1
 700 400 l 1xe5
 300 400 l 1
 300 300 l 1
 500 300 l 1
 500 200 l 1
 300 200 l 1
 300 100 l 1xd3
 700 100 l 1
 700 0 l 1
 0 0 l 1
 0 100 l 1xd5
 100 100 l 1
 100 400 l 1xe3
 0 400 l 1
 0 600 l 1
 100 600 l 1xe5
 100 500 l 1xd5
EndSplineSet
EndChar

StartChar: Edieresis
Encoding: 136 203 136
Width: 800
HStem: 0 100<0 100 300 700> 200 100<300 500> 400 100<0 100 300 700> 600 100<0 200 500 700>
VStem: 100 200<100 200 300 400>
Fore
SplineSet
0 700 m 1
 200 700 l 1
 200 600 l 1
 0 600 l 1
 0 700 l 1
500 700 m 1
 700 700 l 1
 700 600 l 1
 500 600 l 1
 500 700 l 1
0 500 m 1
 700 500 l 1
 700 400 l 1
 300 400 l 1
 300 300 l 1
 500 300 l 1
 500 200 l 1
 300 200 l 1
 300 100 l 1
 700 100 l 1
 700 0 l 1
 0 0 l 1
 0 100 l 1
 100 100 l 1
 100 400 l 1
 0 400 l 1
 0 500 l 1
EndSplineSet
EndChar

StartChar: Igrave
Encoding: 137 204 137
Width: 800
HStem: 0 100<200 300 500 600> 400 100<200 300 500 600> 600 100<0 300>
VStem: 300 200<100 400> 300 100<500 600>
Fore
SplineSet
0 700 m 1xe8
 300 700 l 1
 300 600 l 1
 0 600 l 1
 0 700 l 1xe8
300 600 m 1
 400 600 l 1
 400 500 l 1xe8
 600 500 l 1
 600 400 l 1
 500 400 l 1
 500 100 l 1
 600 100 l 1
 600 0 l 1
 200 0 l 1
 200 100 l 1
 300 100 l 1
 300 400 l 1xf0
 200 400 l 1
 200 500 l 1
 300 500 l 1
 300 600 l 1
EndSplineSet
EndChar

StartChar: Iacute
Encoding: 138 205 138
Width: 800
HStem: 0 100<200 300 500 600> 400 100<200 300 500 600> 600 100<400 700>
VStem: 300 200<100 400> 300 100<500 600>
Fore
SplineSet
400 700 m 1xe8
 700 700 l 1
 700 600 l 1
 400 600 l 1
 400 700 l 1xe8
300 600 m 1
 400 600 l 1
 400 500 l 1xe8
 600 500 l 1
 600 400 l 1
 500 400 l 1
 500 100 l 1
 600 100 l 1
 600 0 l 1
 200 0 l 1
 200 100 l 1
 300 100 l 1
 300 400 l 1xf0
 200 400 l 1
 200 500 l 1
 300 500 l 1
 300 600 l 1
EndSplineSet
EndChar

StartChar: Icircumflex
Encoding: 139 206 139
Width: 800
HStem: 0 100<200 300 500 600> 400 100<200 300 500 600> 500 100<0 100 700 800> 600 100<100 700>
VStem: 0 100<500 600> 300 200<100 400> 700 100<500 600>
Fore
SplineSet
100 700 m 1x9e
 700 700 l 1x9e
 700 600 l 1
 100 600 l 1xae
 100 700 l 1x9e
0 600 m 1xae
 100 600 l 1
 100 500 l 1
 0 500 l 1
 0 600 l 1xae
700 600 m 1
 800 600 l 1
 800 500 l 1
 700 500 l 1
 700 600 l 1
200 500 m 1xce
 600 500 l 1
 600 400 l 1
 500 400 l 1
 500 100 l 1
 600 100 l 1
 600 0 l 1
 200 0 l 1
 200 100 l 1
 300 100 l 1
 300 400 l 1
 200 400 l 1
 200 500 l 1xce
EndSplineSet
EndChar

StartChar: Idieresis
Encoding: 140 207 140
Width: 800
HStem: 0 100<200 300 500 600> 400 100<200 300 500 600> 600 100<100 300 500 700>
VStem: 300 200<100 400>
Fore
SplineSet
100 700 m 1
 300 700 l 1
 300 600 l 1
 100 600 l 1
 100 700 l 1
500 700 m 1
 700 700 l 1
 700 600 l 1
 500 600 l 1
 500 700 l 1
200 500 m 1
 600 500 l 1
 600 400 l 1
 500 400 l 1
 500 100 l 1
 600 100 l 1
 600 0 l 1
 200 0 l 1
 200 100 l 1
 300 100 l 1
 300 400 l 1
 200 400 l 1
 200 500 l 1
EndSplineSet
EndChar

StartChar: Eth
Encoding: 141 208 141
Width: 800
HStem: 0 100<0 100 300 500> 300 100<0 100 300 400> 600 100<0 100 300 500>
VStem: 100 200<100 300 400 600> 500 200<100 600>
Fore
SplineSet
500 600 m 1
 300 600 l 1
 300 400 l 1
 400 400 l 1
 400 300 l 1
 300 300 l 1
 300 100 l 1
 500 100 l 1
 500 600 l 1
0 700 m 1
 600 700 l 1
 600 600 l 1
 700 600 l 1
 700 100 l 1
 600 100 l 1
 600 0 l 1
 0 0 l 1
 0 100 l 1
 100 100 l 1
 100 300 l 1
 0 300 l 1
 0 400 l 1
 100 400 l 1
 100 600 l 1
 0 600 l 1
 0 700 l 1
EndSplineSet
EndChar

StartChar: Ntilde
Encoding: 142 209 142
Width: 800
HStem: 0 21G<0 200 500 700> 480 20G<500 700> 500 100<300 500> 600 100<100 300 500 700>
VStem: 0 200<0 300> 0 100<500 600> 500 200<0 100 300 500 600 700>
Fore
SplineSet
100 700 m 1x96
 300 700 l 1x96
 300 600 l 1xa6
 100 600 l 1
 100 700 l 1x96
500 700 m 1
 700 700 l 1
 700 600 l 1x92
 500 600 l 1xa2
 500 700 l 1
300 600 m 1xa2
 500 600 l 1xa2
 500 500 l 1xc2
 300 500 l 1
 300 600 l 1xa2
0 600 m 1xd6
 100 600 l 1xd6
 100 500 l 1
 300 500 l 1xa6
 300 400 l 1
 400 400 l 1
 400 300 l 1
 500 300 l 1
 500 500 l 1
 700 500 l 1
 700 0 l 1
 500 0 l 1
 500 100 l 1
 400 100 l 1
 400 200 l 1
 300 200 l 1
 300 300 l 1
 200 300 l 1
 200 0 l 1
 0 0 l 1xca
 0 600 l 1xd6
EndSplineSet
EndChar

StartChar: Ograve
Encoding: 143 210 143
Width: 800
HStem: 0 100<200 500> 400 100<200 300 400 500> 600 100<0 300>
VStem: 0 200<100 400> 300 100<500 600> 500 200<100 400>
Fore
SplineSet
500 400 m 1
 200 400 l 1
 200 100 l 1
 500 100 l 1
 500 400 l 1
0 700 m 1
 300 700 l 1
 300 600 l 1
 0 600 l 1
 0 700 l 1
300 600 m 1
 400 600 l 1
 400 500 l 1
 600 500 l 1
 600 400 l 1
 700 400 l 1
 700 100 l 1
 600 100 l 1
 600 0 l 1
 100 0 l 1
 100 100 l 1
 0 100 l 1
 0 400 l 1
 100 400 l 1
 100 500 l 1
 300 500 l 1
 300 600 l 1
EndSplineSet
Colour: f46a4b
EndChar

StartChar: Oacute
Encoding: 144 211 144
Width: 800
HStem: 0 100<200 500> 400 100<200 300 400 500> 600 100<400 700>
VStem: 0 200<100 400> 300 100<500 600> 500 200<100 400>
Fore
SplineSet
500 400 m 1
 200 400 l 1
 200 100 l 1
 500 100 l 1
 500 400 l 1
400 700 m 1
 700 700 l 1
 700 600 l 1
 400 600 l 1
 400 700 l 1
300 600 m 1
 400 600 l 1
 400 500 l 1
 600 500 l 1
 600 400 l 1
 700 400 l 1
 700 100 l 1
 600 100 l 1
 600 0 l 1
 100 0 l 1
 100 100 l 1
 0 100 l 1
 0 400 l 1
 100 400 l 1
 100 500 l 1
 300 500 l 1
 300 600 l 1
EndSplineSet
Colour: f46a4b
EndChar

StartChar: Ocircumflex
Encoding: 145 212 145
Width: 800
HStem: 0 100<200 500> 400 100<200 500> 500 100<0 100 600 700> 600 100<100 600>
VStem: 0 200<100 400> 0 100<500 600> 500 200<100 400> 600 100<500 600>
Fore
SplineSet
500 400 m 1xca
 200 400 l 1
 200 100 l 1
 500 100 l 1
 500 400 l 1xca
100 700 m 1x95
 600 700 l 1x95
 600 600 l 1
 100 600 l 1xa5
 100 700 l 1x95
0 600 m 1xa4
 100 600 l 1
 100 500 l 1
 0 500 l 1
 0 600 l 1xa4
600 600 m 1xa1
 700 600 l 1
 700 500 l 1
 600 500 l 1
 600 600 l 1xa1
100 500 m 1xa4
 600 500 l 1xa5
 600 400 l 1xc5
 700 400 l 1
 700 100 l 1xc2
 600 100 l 1
 600 0 l 1
 100 0 l 1
 100 100 l 1xc5
 0 100 l 1
 0 400 l 1xc8
 100 400 l 1xc4
 100 500 l 1xa4
EndSplineSet
Colour: f46a4b
EndChar

StartChar: Otilde
Encoding: 146 213 146
Width: 800
HStem: 0 100<200 500> 400 100<200 300> 500 100<0 100> 600 100<100 300 500 700>
VStem: 0 200<100 400> 0 100<500 600> 500 200<100 400 600 700>
Fore
SplineSet
500 400 m 1xca
 200 400 l 1
 200 100 l 1
 500 100 l 1
 500 400 l 1xca
100 700 m 1x96
 300 700 l 1
 300 600 l 1x96
 100 600 l 1xa6
 100 700 l 1x96
500 700 m 1
 700 700 l 1
 700 600 l 1
 500 600 l 1
 500 700 l 1
0 600 m 1xa6
 100 600 l 1
 100 500 l 1
 0 500 l 1
 0 600 l 1xa6
300 600 m 1xd6
 500 600 l 1xd6
 500 500 l 1
 600 500 l 1xa6
 600 400 l 1
 700 400 l 1
 700 100 l 1
 600 100 l 1
 600 0 l 1
 100 0 l 1
 100 100 l 1xc6
 0 100 l 1
 0 400 l 1xca
 100 400 l 1xc6
 100 500 l 1xa6
 300 500 l 1
 300 600 l 1xd6
EndSplineSet
Colour: f46a4b
EndChar

StartChar: Odieresis
Encoding: 147 214 147
Width: 800
HStem: 0 100<200 500> 600 100<0 100 600 700>
VStem: 0 200<100 500 600 700> 500 200<100 500 600 700>
Fore
SplineSet
500 500 m 1
 200 500 l 1
 200 100 l 1
 500 100 l 1
 500 500 l 1
0 700 m 1
 200 700 l 1
 200 600 l 1
 500 600 l 1
 500 700 l 1
 700 700 l 1
 700 600 l 1
 600 600 l 1
 600 500 l 1
 700 500 l 1
 700 100 l 1
 600 100 l 1
 600 0 l 1
 100 0 l 1
 100 100 l 1
 0 100 l 1
 0 500 l 1
 100 500 l 1
 100 600 l 1
 0 600 l 1
 0 700 l 1
EndSplineSet
EndChar

StartChar: multiply
Encoding: 148 215 148
Width: 800
HStem: 100 200<200 300 500 600> 100 100<100 200 600 700> 400 200<200 300 500 600> 500 100<100 200 600 700>
VStem: 100 200<100 200 500 600> 500 200<100 200 500 600>
Fore
SplineSet
100 600 m 1x1c
 300 600 l 1x2c
 300 500 l 1
 500 500 l 1x1c
 500 600 l 1x2c
 700 600 l 1
 700 500 l 1
 600 500 l 1x1c
 600 400 l 1
 500 400 l 1
 500 300 l 1
 600 300 l 1xac
 600 200 l 1
 700 200 l 1
 700 100 l 1x4c
 500 100 l 1x8c
 500 200 l 1
 300 200 l 1x4c
 300 100 l 1x8c
 100 100 l 1
 100 200 l 1
 200 200 l 1x4c
 200 300 l 1
 300 300 l 1
 300 400 l 1
 200 400 l 1xac
 200 500 l 1
 100 500 l 1
 100 600 l 1x1c
EndSplineSet
EndChar

StartChar: Oslash
Encoding: 149 216 149
Width: 800
HStem: -100 100<0 100> 0 100<300 500> 500 100<200 400> 600 100<600 700>
VStem: 0 200<-100 0 300 500> 500 200<100 300 600 700>
Fore
SplineSet
400 500 m 1x2c
 200 500 l 1
 200 300 l 1
 300 300 l 1
 300 400 l 1
 400 400 l 1
 400 500 l 1x2c
500 300 m 1
 400 300 l 1
 400 200 l 1
 300 200 l 1
 300 100 l 1
 500 100 l 1x4c
 500 300 l 1
500 700 m 1x1c
 700 700 l 1
 700 600 l 1
 600 600 l 1x1c
 600 500 l 1
 700 500 l 1
 700 100 l 1
 600 100 l 1
 600 0 l 1
 200 0 l 1x6c
 200 -100 l 1
 0 -100 l 1
 0 0 l 1
 100 0 l 1x8c
 100 100 l 1
 0 100 l 1
 0 500 l 1
 100 500 l 1x6c
 100 600 l 1
 500 600 l 1
 500 700 l 1x1c
EndSplineSet
Colour: f46a4b
EndChar

StartChar: Ugrave
Encoding: 150 217 150
Width: 800
HStem: 0 100<200 500> 480 20G<0 200 500 700> 500 100<300 400> 600 100<0 300>
VStem: 0 200<100 500> 300 100<500 600> 500 200<100 500>
Fore
SplineSet
0 700 m 1x9e
 300 700 l 1x9e
 300 600 l 1xae
 0 600 l 1
 0 700 l 1x9e
300 600 m 1xae
 400 600 l 1
 400 500 l 1
 300 500 l 1
 300 600 l 1xae
0 500 m 1xce
 200 500 l 1
 200 100 l 1
 500 100 l 1
 500 500 l 1
 700 500 l 1
 700 100 l 1
 600 100 l 1
 600 0 l 1
 100 0 l 1
 100 100 l 1
 0 100 l 1
 0 500 l 1xce
EndSplineSet
EndChar

StartChar: Uacute
Encoding: 151 218 151
Width: 800
HStem: 0 100<200 500> 480 20G<0 200 500 700> 500 100<300 400> 600 100<400 700>
VStem: 0 200<100 500> 300 100<500 600> 500 200<100 500>
Fore
SplineSet
400 700 m 1x9e
 700 700 l 1
 700 600 l 1x9e
 400 600 l 1xae
 400 700 l 1x9e
300 600 m 1xae
 400 600 l 1
 400 500 l 1
 300 500 l 1
 300 600 l 1xae
0 500 m 1xce
 200 500 l 1
 200 100 l 1
 500 100 l 1
 500 500 l 1
 700 500 l 1
 700 100 l 1
 600 100 l 1
 600 0 l 1
 100 0 l 1
 100 100 l 1
 0 100 l 1
 0 500 l 1xce
EndSplineSet
EndChar

StartChar: Ucircumflex
Encoding: 152 219 152
Width: 800
HStem: 0 100<200 500> 600 100<100 600>
VStem: 0 200<100 500> 0 100<500 600> 500 200<100 510> 600 100<510 600>
Fore
SplineSet
100 700 m 1xd4
 600 700 l 1
 600 600 l 1
 100 600 l 1
 100 700 l 1xd4
0 600 m 1
 100 600 l 1
 100 500 l 1xd0
 200 500 l 1
 200 100 l 1
 500 100 l 1
 500 510 l 1xe8
 600 510 l 1
 600 600 l 1
 700 600 l 1xc4
 700 100 l 1xc8
 600 100 l 1
 600 0 l 1
 100 0 l 1
 100 100 l 1xd4
 0 100 l 1xe0
 0 600 l 1
EndSplineSet
EndChar

StartChar: Udieresis
Encoding: 153 220 153
Width: 800
HStem: 0 100<200 500> 480 20G<0 200 500 700> 600 100<0 200 500 700>
VStem: 0 200<100 500 600 700> 500 200<100 500 600 700>
Fore
SplineSet
0 700 m 1
 200 700 l 1
 200 600 l 1
 0 600 l 1
 0 700 l 1
500 700 m 1
 700 700 l 1
 700 600 l 1
 500 600 l 1
 500 700 l 1
0 500 m 1
 200 500 l 1
 200 100 l 1
 500 100 l 1
 500 500 l 1
 700 500 l 1
 700 100 l 1
 600 100 l 1
 600 0 l 1
 100 0 l 1
 100 100 l 1
 0 100 l 1
 0 500 l 1
EndSplineSet
EndChar

StartChar: Yacute
Encoding: 154 221 154
Width: 800
HStem: 0 100<200 300 500 600> 300 200<100 200 600 700> 500 100<300 400> 600 100<400 700>
VStem: 100 200<300 500> 300 100<500 600> 500 200<300 500>
Fore
SplineSet
400 700 m 1x96
 700 700 l 1
 700 600 l 1x96
 400 600 l 1xa6
 400 700 l 1x96
300 600 m 1xa6
 400 600 l 1
 400 500 l 1xa6
 300 500 l 1xaa
 300 600 l 1xa6
100 500 m 1xca
 300 500 l 1xaa
 300 300 l 1
 500 300 l 1xca
 500 500 l 1xaa
 700 500 l 1
 700 300 l 1
 600 300 l 1
 600 200 l 1
 500 200 l 1
 500 100 l 1
 600 100 l 1
 600 0 l 1
 200 0 l 1
 200 100 l 1
 300 100 l 1
 300 200 l 1xc6
 200 200 l 1
 200 300 l 1
 100 300 l 1
 100 500 l 1xca
EndSplineSet
EndChar

StartChar: Thorn
Encoding: 155 222 155
Width: 800
HStem: 0 100<0 100 300 400> 200 100<300 500> 500 100<400 500> 600 100<0 100>
VStem: 100 200<100 200 300 500> 500 200<300 500>
Fore
SplineSet
500 500 m 1xec
 300 500 l 1
 300 300 l 1
 500 300 l 1
 500 500 l 1xec
0 700 m 1xdc
 400 700 l 1xdc
 400 600 l 1xec
 600 600 l 1xdc
 600 500 l 1
 700 500 l 1xec
 700 300 l 1
 600 300 l 1
 600 200 l 1
 300 200 l 1
 300 100 l 1
 400 100 l 1
 400 0 l 1
 0 0 l 1
 0 100 l 1
 100 100 l 1
 100 600 l 1
 0 600 l 1
 0 700 l 1xdc
EndSplineSet
EndChar

StartChar: germandbls
Encoding: 156 223 156
Width: 800
HStem: -100 21G<100 200> 0 100<300 500> 400 100<300 400> 500 100<500 600> 600 100<200 400>
VStem: 0 200<0 600> 100 100<-100 0> 400 200<300 400 500 600> 500 200<100 300>
Fore
SplineSet
100 700 m 1xea
 500 700 l 1xea80
 500 600 l 1xd280
 600 600 l 1
 600 500 l 1xd1
 500 500 l 1xd080
 500 400 l 1xe080
 600 400 l 1
 600 300 l 1xe1
 700 300 l 1
 700 100 l 1xe080
 600 100 l 1
 600 0 l 1xe1
 300 0 l 1
 300 100 l 1
 500 100 l 1
 500 300 l 1xe080
 400 300 l 1
 400 400 l 1
 300 400 l 1
 300 500 l 1
 400 500 l 1
 400 600 l 1
 200 600 l 1xed
 200 -100 l 1
 100 -100 l 1
 100 0 l 1xea
 0 0 l 1
 0 600 l 1xec
 100 600 l 1
 100 700 l 1xea
EndSplineSet
EndChar

StartChar: agrave
Encoding: 157 224 157
Width: 800
HStem: 0 100<200 400 600 700> 100 100<0 100> 200 100<200 400> 400 100<100 300> 600 100<0 300>
VStem: 300 100<500 600> 400 200<100 200 300 400>
Fore
SplineSet
0 700 m 1x1c
 300 700 l 1
 300 600 l 1
 0 600 l 1
 0 700 l 1x1c
300 600 m 1
 400 600 l 1
 400 500 l 1x3c
 500 500 l 1
 500 400 l 1
 600 400 l 1
 600 100 l 1
 700 100 l 1
 700 0 l 1
 500 0 l 1xba
 500 100 l 1x5a
 400 100 l 1
 400 200 l 1
 200 200 l 1
 200 100 l 1
 400 100 l 1
 400 0 l 1
 100 0 l 1xba
 100 100 l 1
 0 100 l 1
 0 200 l 1
 100 200 l 1x5a
 100 300 l 1
 400 300 l 1
 400 400 l 1x3a
 100 400 l 1
 100 500 l 1
 300 500 l 1
 300 600 l 1
EndSplineSet
EndChar

StartChar: aacute
Encoding: 158 225 158
Width: 800
HStem: 0 100<200 400 600 700> 100 100<0 100> 200 100<200 400> 400 100<100 300> 600 100<400 700>
VStem: 300 100<500 600> 400 200<100 200 300 400>
Fore
SplineSet
400 700 m 1x1a
 700 700 l 1
 700 600 l 1
 400 600 l 1x1c
 400 700 l 1x1a
300 600 m 1
 400 600 l 1
 400 500 l 1x3c
 500 500 l 1
 500 400 l 1
 600 400 l 1
 600 100 l 1
 700 100 l 1
 700 0 l 1
 500 0 l 1xba
 500 100 l 1x5a
 400 100 l 1
 400 200 l 1
 200 200 l 1
 200 100 l 1
 400 100 l 1
 400 0 l 1
 100 0 l 1xba
 100 100 l 1
 0 100 l 1
 0 200 l 1
 100 200 l 1x5a
 100 300 l 1
 400 300 l 1
 400 400 l 1x3a
 100 400 l 1
 100 500 l 1
 300 500 l 1
 300 600 l 1
EndSplineSet
EndChar

StartChar: acircumflex
Encoding: 159 226 159
Width: 800
HStem: 0 100<200 400 600 700> 100 100<0 100> 200 100<200 400> 400 100<200 400> 500 100<0 100 600 700> 600 100<100 600>
VStem: 0 100<500 600> 400 200<100 200 300 400> 600 100<500 600>
Fore
SplineSet
100 700 m 1x0680
 600 700 l 1x0680
 600 600 l 1
 100 600 l 1x0a80
 100 700 l 1x0680
600 600 m 1x0a80
 700 600 l 1
 700 500 l 1
 600 500 l 1
 600 600 l 1x0a80
0 600 m 1
 100 600 l 1
 100 500 l 1
 0 500 l 1
 0 600 l 1
200 500 m 1x33
 500 500 l 1x0b
 500 400 l 1
 600 400 l 1
 600 100 l 1x93
 700 100 l 1
 700 0 l 1
 500 0 l 1x9280
 500 100 l 1x4280
 400 100 l 1
 400 200 l 1
 200 200 l 1
 200 100 l 1
 400 100 l 1
 400 0 l 1
 100 0 l 1xa3
 100 100 l 1
 0 100 l 1
 0 200 l 1
 100 200 l 1x43
 100 300 l 1
 400 300 l 1
 400 400 l 1
 200 400 l 1
 200 500 l 1x33
EndSplineSet
EndChar

StartChar: atilde
Encoding: 160 227 160
Width: 800
HStem: 0 100<200 400 600 700> 100 100<0 100> 200 100<200 400> 500 100<0 100> 600 100<100 300 500 700>
VStem: 0 100<500 600> 400 200<100 200 300 400> 500 200<0 100 600 700>
Fore
SplineSet
100 700 m 1x0c
 300 700 l 1
 300 600 l 1x0c
 100 600 l 1x14
 100 700 l 1x0c
500 700 m 1x0d
 700 700 l 1
 700 600 l 1
 500 600 l 1
 500 700 l 1x0d
0 600 m 1x14
 100 600 l 1
 100 500 l 1
 0 500 l 1
 0 600 l 1x14
300 600 m 1x0e
 500 600 l 1
 500 400 l 1x0d
 600 400 l 1
 600 100 l 1x8e
 700 100 l 1
 700 0 l 1
 500 0 l 1x8d
 500 100 l 1x45
 400 100 l 1
 400 200 l 1
 200 200 l 1
 200 100 l 1
 400 100 l 1
 400 0 l 1
 100 0 l 1xa6
 100 100 l 1
 0 100 l 1
 0 200 l 1
 100 200 l 1x46
 100 300 l 1
 400 300 l 1
 400 400 l 1
 100 400 l 1
 100 500 l 1
 300 500 l 1x36
 300 600 l 1x0e
EndSplineSet
EndChar

StartChar: adieresis
Encoding: 161 228 161
Width: 800
HStem: 0 100<200 400 600 700> 100 100<0 100> 200 100<200 400> 400 100<100 400> 600 100<0 200 500 700>
VStem: 0 200<100 200 600 700> 400 200<100 200 300 400> 500 200<0 100 600 700>
Fore
SplineSet
100 500 m 1x3e
 500 500 l 1
 500 400 l 1x3d
 600 400 l 1
 600 100 l 1xbe
 700 100 l 1
 700 0 l 1
 500 0 l 1xbd
 500 100 l 1x5d
 400 100 l 1
 400 200 l 1
 200 200 l 1
 200 100 l 1
 400 100 l 1
 400 0 l 1
 100 0 l 1xbe
 100 100 l 1
 0 100 l 1
 0 200 l 1
 100 200 l 1x5e
 100 300 l 1
 400 300 l 1
 400 400 l 1
 100 400 l 1
 100 500 l 1x3e
0 700 m 1
 200 700 l 1
 200 600 l 1
 0 600 l 1
 0 700 l 1
500 700 m 1
 700 700 l 1
 700 600 l 1
 500 600 l 1
 500 700 l 1
EndSplineSet
EndChar

StartChar: aring
Encoding: 162 229 162
Width: 800
HStem: 0 100<200 400 600 700> 100 100<0 100> 200 100<200 400> 400 100<100 200> 680 20G<200 400>
VStem: 200 200<500 700> 400 200<100 200 300 400>
Fore
SplineSet
200 700 m 1x3c
 400 700 l 1
 400 500 l 1x3c
 500 500 l 1
 500 400 l 1
 600 400 l 1
 600 100 l 1
 700 100 l 1
 700 0 l 1
 500 0 l 1xba
 500 100 l 1x5a
 400 100 l 1
 400 200 l 1xba
 200 200 l 1
 200 100 l 1xbc
 400 100 l 1
 400 0 l 1
 100 0 l 1xba
 100 100 l 1
 0 100 l 1
 0 200 l 1
 100 200 l 1x5a
 100 300 l 1
 400 300 l 1
 400 400 l 1x3a
 100 400 l 1
 100 500 l 1
 200 500 l 1
 200 700 l 1x3c
EndSplineSet
EndChar

StartChar: ae
Encoding: 163 230 163
Width: 800
HStem: 0 100<200 300 400 700> 100 100<0 100> 200 100<200 300 400 600> 400 100<100 300 400 600>
VStem: 300 100<100 200 300 400> 600 100<300 400>
Fore
SplineSet
100 500 m 1x3c
 600 500 l 1
 600 400 l 1
 400 400 l 1
 400 300 l 1
 600 300 l 1
 600 400 l 1
 700 400 l 1
 700 200 l 1
 400 200 l 1
 400 100 l 1
 700 100 l 1
 700 0 l 1
 100 0 l 1xbc
 100 100 l 1
 0 100 l 1
 0 200 l 1
 100 200 l 1x5c
 100 300 l 1
 300 300 l 1
 300 400 l 1
 100 400 l 1
 100 500 l 1x3c
300 200 m 1
 200 200 l 1
 200 100 l 1
 300 100 l 1
 300 200 l 1
EndSplineSet
EndChar

StartChar: ccedilla
Encoding: 164 231 164
Width: 800
HStem: -100 100<100 300> 100 100<200 300 500 600> 400 100<200 600>
VStem: 0 200<200 400>
Fore
SplineSet
100 500 m 1
 600 500 l 1
 600 400 l 1
 200 400 l 1
 200 200 l 1
 600 200 l 1
 600 100 l 1
 500 100 l 1
 500 0 l 1
 400 0 l 1
 400 -100 l 1
 100 -100 l 1
 100 0 l 1
 300 0 l 1
 300 100 l 1
 100 100 l 1
 100 200 l 1
 0 200 l 1
 0 400 l 1
 100 400 l 1
 100 500 l 1
EndSplineSet
EndChar

StartChar: egrave
Encoding: 165 232 165
Width: 800
HStem: 0 100<200 600> 200 100<200 500> 400 100<200 300 400 500> 600 100<0 300>
VStem: 0 200<100 200 300 400> 300 100<500 600>
Fore
SplineSet
500 400 m 1
 200 400 l 1
 200 300 l 1
 500 300 l 1
 500 400 l 1
0 700 m 1
 300 700 l 1
 300 600 l 1
 0 600 l 1
 0 700 l 1
300 600 m 1
 400 600 l 1
 400 500 l 1
 600 500 l 1
 600 400 l 1
 700 400 l 1
 700 200 l 1
 200 200 l 1
 200 100 l 1
 600 100 l 1
 600 0 l 1
 100 0 l 1
 100 100 l 1
 0 100 l 1
 0 400 l 1
 100 400 l 1
 100 500 l 1
 300 500 l 1
 300 600 l 1
EndSplineSet
EndChar

StartChar: eacute
Encoding: 166 233 166
Width: 800
HStem: 0 100<200 600> 200 100<200 500> 400 100<200 300 400 500> 600 100<400 700>
VStem: 0 200<100 200 300 400> 300 100<500 600>
Fore
SplineSet
500 400 m 1
 200 400 l 1
 200 300 l 1
 500 300 l 1
 500 400 l 1
400 700 m 1
 700 700 l 1
 700 600 l 1
 400 600 l 1
 400 700 l 1
300 600 m 1
 400 600 l 1
 400 500 l 1
 600 500 l 1
 600 400 l 1
 700 400 l 1
 700 200 l 1
 200 200 l 1
 200 100 l 1
 600 100 l 1
 600 0 l 1
 100 0 l 1
 100 100 l 1
 0 100 l 1
 0 400 l 1
 100 400 l 1
 100 500 l 1
 300 500 l 1
 300 600 l 1
EndSplineSet
EndChar

StartChar: ecircumflex
Encoding: 167 234 167
Width: 800
HStem: 0 100<200 600> 200 100<200 500> 400 100<200 500> 500 100<0 100 600 700> 600 100<100 600>
VStem: 0 200<100 200 300 400> 0 100<500 600> 600 100<500 600>
Fore
SplineSet
500 400 m 1xe5
 200 400 l 1
 200 300 l 1
 500 300 l 1
 500 400 l 1xe5
100 700 m 1xcb
 600 700 l 1xcb
 600 600 l 1
 100 600 l 1xd3
 100 700 l 1xcb
0 600 m 1xd3
 100 600 l 1
 100 500 l 1
 0 500 l 1
 0 600 l 1xd3
600 600 m 1
 700 600 l 1
 700 500 l 1
 600 500 l 1
 600 600 l 1
100 500 m 1
 600 500 l 1xd3
 600 400 l 1
 700 400 l 1
 700 200 l 1
 200 200 l 1
 200 100 l 1xe5
 600 100 l 1
 600 0 l 1
 100 0 l 1
 100 100 l 1xe3
 0 100 l 1
 0 400 l 1xe5
 100 400 l 1xe3
 100 500 l 1
EndSplineSet
EndChar

StartChar: edieresis
Encoding: 168 235 168
Width: 800
HStem: 0 100<200 600> 200 100<200 500> 400 100<200 500> 600 100<0 200 500 700>
VStem: 0 200<100 200 300 400 600 700> 500 200<300 400 600 700>
Fore
SplineSet
500 400 m 1
 200 400 l 1
 200 300 l 1
 500 300 l 1
 500 400 l 1
100 500 m 1
 600 500 l 1
 600 400 l 1
 700 400 l 1
 700 200 l 1
 200 200 l 1
 200 100 l 1
 600 100 l 1
 600 0 l 1
 100 0 l 1
 100 100 l 1
 0 100 l 1
 0 400 l 1
 100 400 l 1
 100 500 l 1
0 700 m 1
 200 700 l 1
 200 600 l 1
 0 600 l 1
 0 700 l 1
500 700 m 1
 700 700 l 1
 700 600 l 1
 500 600 l 1
 500 700 l 1
EndSplineSet
EndChar

StartChar: igrave
Encoding: 169 236 169
Width: 800
HStem: 0 100<200 300 500 600> 400 100<200 300> 600 100<0 300>
VStem: 300 200<100 400> 300 100<500 600>
Fore
SplineSet
0 700 m 1xe8
 300 700 l 1
 300 600 l 1
 0 600 l 1
 0 700 l 1xe8
300 600 m 1
 400 600 l 1
 400 500 l 1xe8
 500 500 l 1
 500 100 l 1
 600 100 l 1
 600 0 l 1
 200 0 l 1
 200 100 l 1
 300 100 l 1
 300 400 l 1xf0
 200 400 l 1
 200 500 l 1
 300 500 l 1
 300 600 l 1
EndSplineSet
EndChar

StartChar: iacute
Encoding: 170 237 170
Width: 800
HStem: 0 100<200 300 500 600> 400 100<200 300> 600 100<400 700>
VStem: 300 200<100 400> 300 100<500 600>
Fore
SplineSet
400 700 m 1xe8
 700 700 l 1
 700 600 l 1
 400 600 l 1
 400 700 l 1xe8
300 600 m 1
 400 600 l 1
 400 500 l 1xe8
 500 500 l 1
 500 100 l 1
 600 100 l 1
 600 0 l 1
 200 0 l 1
 200 100 l 1
 300 100 l 1
 300 400 l 1xf0
 200 400 l 1
 200 500 l 1
 300 500 l 1
 300 600 l 1
EndSplineSet
EndChar

StartChar: icircumflex
Encoding: 171 238 171
Width: 800
HStem: 0 100<200 300 500 600> 400 100<200 300> 500 100<0 100 700 800> 600 100<100 700>
VStem: 0 100<500 600> 300 200<100 400> 700 100<500 600>
Fore
SplineSet
100 700 m 1x9e
 700 700 l 1x9e
 700 600 l 1
 100 600 l 1xae
 100 700 l 1x9e
0 600 m 1xae
 100 600 l 1
 100 500 l 1
 0 500 l 1
 0 600 l 1xae
700 600 m 1
 800 600 l 1
 800 500 l 1
 700 500 l 1
 700 600 l 1
200 500 m 1xce
 500 500 l 1xae
 500 100 l 1
 600 100 l 1
 600 0 l 1
 200 0 l 1
 200 100 l 1
 300 100 l 1
 300 400 l 1
 200 400 l 1
 200 500 l 1xce
EndSplineSet
EndChar

StartChar: eth
Encoding: 173 240 173
Width: 800
HStem: 0 100<200 400 600 700> 310 100<200 400> 500 100<200 400 600 700> 680 20G<400 600>
VStem: 0 200<100 310> 400 200<100 310 410 500 600 700>
Fore
SplineSet
400 700 m 1
 600 700 l 1
 600 600 l 1
 700 600 l 1
 700 500 l 1
 600 500 l 1
 600 100 l 1
 700 100 l 1
 700 0 l 1
 500 0 l 1
 500 100 l 1
 400 100 l 1
 400 310 l 1
 200 310 l 1
 200 100 l 1
 400 100 l 1
 400 0 l 1
 100 0 l 1
 100 100 l 1
 0 100 l 1
 0 310 l 1
 100 310 l 1
 100 410 l 1
 400 410 l 1
 400 500 l 1
 200 500 l 1
 200 600 l 1
 400 600 l 1
 400 700 l 1
EndSplineSet
EndChar

StartChar: ntilde
Encoding: 174 241 174
Width: 800
HStem: 0 21G<100 300 500 700> 400 200<0 100 300 500> 600 100<100 300 500 700>
VStem: 0 100<500 600> 100 200<0 400 600 700> 500 200<0 400 600 700>
Fore
SplineSet
100 700 m 1xac
 300 700 l 1xac
 300 600 l 1xcc
 100 600 l 1xd4
 100 700 l 1xac
500 700 m 1
 700 700 l 1
 700 600 l 1xa4
 500 600 l 1xc4
 500 700 l 1
0 600 m 1xd4
 100 600 l 1
 100 500 l 1xd4
 200 500 l 1
 200 400 l 1
 300 400 l 1
 300 0 l 1
 100 0 l 1
 100 400 l 1xcc
 0 400 l 1
 0 600 l 1xd4
300 600 m 1xcc
 500 600 l 1
 500 500 l 1
 600 500 l 1
 600 400 l 1
 700 400 l 1
 700 0 l 1
 500 0 l 1
 500 400 l 1
 300 400 l 1
 300 600 l 1xcc
EndSplineSet
EndChar

StartChar: odieresis
Encoding: 179 246 179
Width: 800
HStem: 0 100<200 500> 400 100<200 500> 600 100<0 200 500 700>
VStem: 0 200<100 400 600 700> 500 200<100 400 600 700>
Fore
SplineSet
0 700 m 1
 200 700 l 1
 200 600 l 1
 0 600 l 1
 0 700 l 1
500 700 m 1
 700 700 l 1
 700 600 l 1
 500 600 l 1
 500 700 l 1
500 400 m 1
 200 400 l 1
 200 100 l 1
 500 100 l 1
 500 400 l 1
100 500 m 1
 600 500 l 1
 600 400 l 1
 700 400 l 1
 700 100 l 1
 600 100 l 1
 600 0 l 1
 100 0 l 1
 100 100 l 1
 0 100 l 1
 0 400 l 1
 100 400 l 1
 100 500 l 1
EndSplineSet
EndChar

StartChar: divide
Encoding: 180 247 180
Width: 800
HStem: 100 100<300 500> 300 100<100 700> 500 100<300 500>
VStem: 300 200<100 200 500 600>
Fore
SplineSet
300 600 m 1
 500 600 l 1
 500 500 l 1
 300 500 l 1
 300 600 l 1
100 400 m 1
 700 400 l 1
 700 300 l 1
 100 300 l 1
 100 400 l 1
300 200 m 1
 500 200 l 1
 500 100 l 1
 300 100 l 1
 300 200 l 1
EndSplineSet
EndChar

StartChar: ugrave
Encoding: 182 249 182
Width: 800
HStem: 0 100<200 400 600 700> 480 20G<0 200 400 600> 500 100<300 400> 600 100<0 300>
VStem: 0 200<100 500> 300 100<500 600> 400 200<100 500>
Fore
SplineSet
0 700 m 1x9c
 300 700 l 1x9c
 300 600 l 1xac
 0 600 l 1
 0 700 l 1x9c
300 600 m 1xac
 400 600 l 1xac
 400 500 l 1xcc
 300 500 l 1
 300 600 l 1xac
0 500 m 1xca
 200 500 l 1
 200 100 l 1
 400 100 l 1
 400 0 l 1
 100 0 l 1
 100 100 l 1
 0 100 l 1
 0 500 l 1xca
400 500 m 1xcc
 600 500 l 1
 600 100 l 1
 700 100 l 1
 700 0 l 1
 500 0 l 1
 500 100 l 1
 400 100 l 1xca
 400 500 l 1xcc
EndSplineSet
EndChar

StartChar: ucircumflex
Encoding: 184 251 184
Width: 800
HStem: 0 100<200 400 600 700> 480 20G<400 600> 500 100<700 800> 600 100<100 700>
VStem: 0 200<100 500> 0 100<500 600> 400 200<100 500> 700 100<500 600>
Fore
SplineSet
100 700 m 1x97
 700 700 l 1x97
 700 600 l 1xa7
 100 600 l 1
 100 700 l 1x97
0 600 m 1
 100 600 l 1x97
 100 500 l 1xa7
 200 500 l 1
 200 100 l 1xab
 400 100 l 1
 400 0 l 1
 100 0 l 1
 100 100 l 1xa7
 0 100 l 1xab
 0 600 l 1
700 600 m 1xa3
 800 600 l 1
 800 500 l 1
 700 500 l 1
 700 600 l 1xa3
400 500 m 1xc3
 600 500 l 1
 600 100 l 1
 700 100 l 1
 700 0 l 1
 500 0 l 1
 500 100 l 1
 400 100 l 1
 400 500 l 1xc3
EndSplineSet
EndChar

StartChar: thorn
Encoding: 187 254 187
Width: 800
HStem: -100 100<0 100 300 400> 100 100<300 500> 400 100<300 500> 600 100<0 100>
VStem: 100 200<0 100 200 400 500 600> 500 200<200 400>
Fore
SplineSet
500 400 m 1
 300 400 l 1
 300 200 l 1
 500 200 l 1
 500 400 l 1
0 700 m 1
 300 700 l 1
 300 500 l 1
 600 500 l 1
 600 400 l 1
 700 400 l 1
 700 200 l 1
 600 200 l 1
 600 100 l 1
 300 100 l 1
 300 0 l 1
 400 0 l 1
 400 -100 l 1
 0 -100 l 1
 0 0 l 1
 100 0 l 1
 100 600 l 1
 0 600 l 1
 0 700 l 1
EndSplineSet
EndChar

StartChar: Ccircumflex
Encoding: 189 264 189
Width: 800
HStem: 0 100<200 500> 100 100<600 700> 300 100<600 700> 400 100<200 300 400 500> 600 100<400 700>
VStem: 0 200<100 400> 300 100<500 600> 500 200<100 200 300 400>
Fore
SplineSet
400 700 m 1x0f
 700 700 l 1
 700 600 l 1
 400 600 l 1
 400 700 l 1x0f
300 600 m 1
 400 600 l 1
 400 500 l 1
 600 500 l 1x5f
 600 400 l 1
 700 400 l 1
 700 300 l 1
 500 300 l 1x2f
 500 400 l 1
 200 400 l 1
 200 100 l 1
 500 100 l 1x9f
 500 200 l 1
 700 200 l 1
 700 100 l 1
 600 100 l 1x4f
 600 0 l 1
 100 0 l 1x8f
 100 100 l 1
 0 100 l 1
 0 400 l 1
 100 400 l 1
 100 500 l 1
 300 500 l 1x5f
 300 600 l 1
EndSplineSet
Colour: f46a4b
EndChar

StartChar: Ccaron
Encoding: 191 268 191
Width: 800
HStem: 0 100<200 500> 100 100<600 700> 300 100<600 700> 400 200<200 500> 600 100<0 200 500 700>
VStem: 0 200<100 400 600 700> 500 200<100 200 300 400 600 700>
Fore
SplineSet
0 700 m 1x0e
 200 700 l 1x0e
 200 600 l 1x16
 0 600 l 1
 0 700 l 1x0e
500 700 m 1
 700 700 l 1
 700 600 l 1x0e
 500 600 l 1x16
 500 700 l 1
200 600 m 1x56
 500 600 l 1x56
 500 500 l 1
 600 500 l 1
 600 400 l 1
 700 400 l 1
 700 300 l 1
 500 300 l 1x26
 500 400 l 1
 200 400 l 1
 200 100 l 1
 500 100 l 1x96
 500 200 l 1
 700 200 l 1
 700 100 l 1
 600 100 l 1x46
 600 0 l 1
 100 0 l 1x86
 100 100 l 1
 0 100 l 1
 0 400 l 1
 100 400 l 1
 100 500 l 1
 200 500 l 1
 200 600 l 1x56
EndSplineSet
Colour: f46a4b
EndChar

StartChar: Dcaron
Encoding: 193 270 193
Width: 800
HStem: 0 100<0 100 300 500> 400 200<300 500> 400 100<0 100> 600 100<0 200 500 700>
VStem: 100 200<100 400> 500 200<100 400 600 700>
Fore
SplineSet
500 400 m 1xcc
 300 400 l 1
 300 100 l 1
 500 100 l 1
 500 400 l 1xcc
0 700 m 1x9c
 200 700 l 1
 200 600 l 1
 0 600 l 1
 0 700 l 1x9c
500 700 m 1
 700 700 l 1
 700 600 l 1x9c
 500 600 l 1xcc
 500 700 l 1
0 500 m 1xac
 200 500 l 1
 200 600 l 1xbc
 500 600 l 1xcc
 500 500 l 1
 600 500 l 1
 600 400 l 1
 700 400 l 1
 700 100 l 1
 600 100 l 1
 600 0 l 1
 0 0 l 1
 0 100 l 1
 100 100 l 1
 100 400 l 1
 0 400 l 1
 0 500 l 1xac
EndSplineSet
EndChar

StartChar: dcaron
Encoding: 194 271 194
Width: 800
HStem: 0 100<200 400 600 700> 300 100<200 400> 500 100<200 400> 600 100<0 200 500 700>
VStem: 0 200<100 300 600 700> 400 200<100 300 400 500> 500 200<0 100 600 700>
Fore
SplineSet
0 700 m 1xd8
 200 700 l 1xd8
 200 600 l 1xe8
 0 600 l 1
 0 700 l 1xd8
500 700 m 1xda
 700 700 l 1
 700 600 l 1
 500 600 l 1
 500 700 l 1xda
200 600 m 1xec
 500 600 l 1xda
 500 500 l 1xea
 600 500 l 1
 600 100 l 1xec
 700 100 l 1
 700 0 l 1
 500 0 l 1
 500 100 l 1xea
 400 100 l 1
 400 300 l 1
 200 300 l 1
 200 100 l 1
 400 100 l 1
 400 0 l 1
 100 0 l 1
 100 100 l 1
 0 100 l 1
 0 300 l 1
 100 300 l 1
 100 400 l 1
 400 400 l 1
 400 500 l 1
 200 500 l 1
 200 600 l 1xec
EndSplineSet
EndChar

StartChar: Ecaron
Encoding: 195 282 195
Width: 800
HStem: 0 100<0 100 300 700> 200 100<300 500> 400 200<300 500> 400 100<0 100 500 700> 600 100<0 200 500 700>
VStem: 100 200<100 200 300 400>
Fore
SplineSet
0 700 m 1xcc
 200 700 l 1
 200 600 l 1
 0 600 l 1
 0 700 l 1xcc
500 700 m 1
 700 700 l 1
 700 600 l 1xcc
 500 600 l 1xe4
 500 700 l 1
200 600 m 1
 500 600 l 1xe4
 500 500 l 1
 700 500 l 1
 700 400 l 1xd4
 300 400 l 1xe4
 300 300 l 1
 500 300 l 1
 500 200 l 1
 300 200 l 1
 300 100 l 1
 700 100 l 1
 700 0 l 1
 0 0 l 1
 0 100 l 1
 100 100 l 1
 100 400 l 1
 0 400 l 1
 0 500 l 1
 200 500 l 1xd4
 200 600 l 1
EndSplineSet
EndChar

StartChar: ecaron
Encoding: 196 283 196
Width: 800
HStem: 0 100<200 600> 200 100<200 500> 400 200<200 500> 600 100<0 200 500 700>
VStem: 0 200<100 200 300 400 600 700> 500 200<300 400 600 700>
Fore
SplineSet
500 400 m 1xec
 200 400 l 1
 200 300 l 1
 500 300 l 1
 500 400 l 1xec
0 700 m 1xdc
 200 700 l 1xdc
 200 600 l 1xec
 0 600 l 1
 0 700 l 1xdc
500 700 m 1
 700 700 l 1
 700 600 l 1xdc
 500 600 l 1xec
 500 700 l 1
200 600 m 1xec
 500 600 l 1
 500 500 l 1
 600 500 l 1
 600 400 l 1
 700 400 l 1
 700 200 l 1
 200 200 l 1
 200 100 l 1
 600 100 l 1
 600 0 l 1
 100 0 l 1
 100 100 l 1
 0 100 l 1
 0 400 l 1
 100 400 l 1
 100 500 l 1
 200 500 l 1
 200 600 l 1xec
EndSplineSet
EndChar

StartChar: Gcircumflex
Encoding: 197 284 197
Width: 800
HStem: 0 100<200 500> 200 100<400 500> 400 100<200 600> 500 100<0 100 600 700> 600 100<100 600>
VStem: 0 200<100 400> 0 100<500 600> 600 100<500 600>
Fore
SplineSet
100 700 m 1xcb
 600 700 l 1xcb
 600 600 l 1
 100 600 l 1xd3
 100 700 l 1xcb
0 600 m 1xd3
 100 600 l 1
 100 500 l 1
 0 500 l 1
 0 600 l 1xd3
600 600 m 1
 700 600 l 1
 700 500 l 1xd1
 600 500 l 1xe1
 600 600 l 1
100 500 m 1xd3
 600 500 l 1
 600 400 l 1
 200 400 l 1
 200 100 l 1xe5
 500 100 l 1
 500 200 l 1
 400 200 l 1
 400 300 l 1
 700 300 l 1
 700 0 l 1
 100 0 l 1
 100 100 l 1xe3
 0 100 l 1
 0 400 l 1xe5
 100 400 l 1xe3
 100 500 l 1xd3
EndSplineSet
EndChar

StartChar: gcircumflex
Encoding: 198 285 198
Width: 800
HStem: -100 100<100 400> 100 100<200 400> 400 100<200 400> 500 100<0 100> 600 100<100 600>
VStem: 0 200<200 400> 0 100<500 600> 400 200<0 100 200 400> 600 100<500 600>
Fore
SplineSet
100 700 m 1xca80
 600 700 l 1
 600 600 l 1xca80
 100 600 l 1xd280
 100 700 l 1xca80
0 600 m 1xd2
 100 600 l 1
 100 500 l 1
 0 500 l 1
 0 600 l 1xd2
600 600 m 1xc880
 700 600 l 1
 700 400 l 1xe880
 600 400 l 1
 600 0 l 1
 500 0 l 1
 500 -100 l 1
 100 -100 l 1
 100 0 l 1
 400 0 l 1
 400 100 l 1
 100 100 l 1
 100 200 l 1xeb
 0 200 l 1
 0 400 l 1xec
 100 400 l 1xea
 100 500 l 1xd2
 400 500 l 1
 400 400 l 1
 200 400 l 1
 200 200 l 1
 400 200 l 1
 400 400 l 1
 500 400 l 1xe5
 500 500 l 1
 600 500 l 1xd080
 600 600 l 1xc880
EndSplineSet
EndChar

StartChar: Hcircumflex
Encoding: 199 292 199
Width: 800
HStem: 0 21G<0 200 500 700> 200 100<200 500> 600 100<100 600>
VStem: 0 200<0 200 300 500> 0 100<500 600> 500 200<0 200 300 510> 600 100<510 600>
Fore
SplineSet
100 700 m 1xea
 600 700 l 1
 600 600 l 1
 100 600 l 1
 100 700 l 1xea
0 600 m 1
 100 600 l 1
 100 500 l 1xe8
 200 500 l 1
 200 300 l 1
 500 300 l 1
 500 510 l 1xf4
 600 510 l 1
 600 600 l 1
 700 600 l 1xe2
 700 0 l 1
 500 0 l 1
 500 200 l 1
 200 200 l 1
 200 0 l 1
 0 0 l 1xf4
 0 600 l 1
EndSplineSet
EndChar

StartChar: hcircumflex
Encoding: 200 293 200
Width: 800
HStem: 0 100<0 100> 200 100<300 400> 300 100<400 500> 500 100<600 700> 600 100<100 600>
VStem: 0 100<500 600> 100 200<100 200 300 400> 500 200<0 300> 600 100<500 600>
Fore
SplineSet
100 700 m 1x8a
 600 700 l 1x8a80
 600 600 l 1x9280
 100 600 l 1x8c80
 100 700 l 1x8a
0 600 m 1xac
 100 600 l 1xac
 100 500 l 1x94
 300 500 l 1
 300 300 l 1
 400 300 l 1
 400 200 l 1
 300 200 l 1
 300 0 l 1xd2
 0 0 l 1
 0 100 l 1xd4
 100 100 l 1
 100 400 l 1xa2
 0 400 l 1
 0 600 l 1xac
600 600 m 1x9080
 700 600 l 1
 700 500 l 1
 600 500 l 1
 600 600 l 1x9080
400 400 m 1xa1
 600 400 l 1
 600 300 l 1xa080
 700 300 l 1
 700 0 l 1
 500 0 l 1
 500 300 l 1xa1
 400 300 l 1xc1
 400 400 l 1xa1
EndSplineSet
EndChar

StartChar: dotlessi
Encoding: 201 305 201
Width: 800
HStem: 0 100<200 300 500 600> 400 100<200 300>
VStem: 300 200<100 400>
Fore
SplineSet
200 500 m 1
 500 500 l 1
 500 100 l 1
 600 100 l 1
 600 0 l 1
 200 0 l 1
 200 100 l 1
 300 100 l 1
 300 400 l 1
 200 400 l 1
 200 500 l 1
EndSplineSet
Colour: f46a4b
EndChar

StartChar: Jcircumflex
Encoding: 202 308 202
Width: 800
HStem: 0 100<200 400> 100 100<0 100> 400 100<300 400> 500 100<0 100> 600 100<100 600>
VStem: 0 100<500 600> 400 200<100 400> 600 100<500 600>
Fore
SplineSet
100 700 m 1x0d
 600 700 l 1
 600 600 l 1x0d
 100 600 l 1x15
 100 700 l 1x0d
0 600 m 1x14
 100 600 l 1
 100 500 l 1
 0 500 l 1
 0 600 l 1x14
300 500 m 1xa6
 600 500 l 1x15
 600 600 l 1
 700 600 l 1
 700 400 l 1x2d
 600 400 l 1
 600 100 l 1
 500 100 l 1x6e
 500 0 l 1
 100 0 l 1x86
 100 100 l 1
 0 100 l 1
 0 200 l 1
 200 200 l 1x46
 200 100 l 1
 400 100 l 1
 400 400 l 1
 300 400 l 1
 300 500 l 1xa6
EndSplineSet
EndChar

StartChar: jcircumflex
Encoding: 203 309 203
Width: 800
HStem: -100 100<200 400> 0 100<0 100> 400 100<300 400> 500 100<0 100 600 700> 600 100<100 600>
VStem: 0 100<500 600> 400 200<0 400> 600 100<500 600>
Fore
SplineSet
100 700 m 1x0d
 600 700 l 1x0d
 600 600 l 1
 100 600 l 1x15
 100 700 l 1x0d
0 600 m 1x14
 100 600 l 1
 100 500 l 1
 0 500 l 1
 0 600 l 1x14
600 600 m 1x15
 700 600 l 1
 700 500 l 1
 600 500 l 1
 600 600 l 1x15
300 500 m 1xa6
 600 500 l 1x15
 600 0 l 1
 500 0 l 1x56
 500 -100 l 1
 100 -100 l 1x86
 100 0 l 1
 0 0 l 1
 0 100 l 1
 200 100 l 1x46
 200 0 l 1
 400 0 l 1
 400 400 l 1
 300 400 l 1
 300 500 l 1xa6
EndSplineSet
EndChar

StartChar: Ncaron
Encoding: 204 327 204
Width: 800
HStem: 0 21G<0 200 500 700> 480 20G<500 700> 500 100<300 500> 600 100<0 200 500 700>
VStem: 0 200<0 300 600 700> 500 200<0 100 300 500 600 700>
Fore
SplineSet
0 700 m 1x9c
 200 700 l 1
 200 600 l 1
 0 600 l 1
 0 700 l 1x9c
500 700 m 1
 700 700 l 1
 700 600 l 1x9c
 500 600 l 1xac
 500 700 l 1
200 600 m 1
 500 600 l 1xac
 500 500 l 1xcc
 300 500 l 1xac
 300 400 l 1
 400 400 l 1
 400 300 l 1
 500 300 l 1
 500 500 l 1
 700 500 l 1xcc
 700 0 l 1
 500 0 l 1
 500 100 l 1
 400 100 l 1
 400 200 l 1
 300 200 l 1
 300 300 l 1
 200 300 l 1
 200 0 l 1
 0 0 l 1
 0 500 l 1
 200 500 l 1xac
 200 600 l 1
EndSplineSet
EndChar

StartChar: ncaron
Encoding: 205 328 205
Width: 800
HStem: 0 21G<100 300 500 700> 400 100<0 100> 500 100<200 300> 600 100<0 200 500 700>
VStem: 0 200<400 500 600 700> 100 200<0 400> 500 200<0 400 600 700>
Fore
SplineSet
0 700 m 1x9a
 200 700 l 1x9a
 200 600 l 1xaa
 0 600 l 1
 0 700 l 1x9a
500 700 m 1
 700 700 l 1
 700 600 l 1
 500 600 l 1
 500 700 l 1
200 600 m 1xaa
 500 600 l 1x9a
 500 500 l 1
 600 500 l 1xaa
 600 400 l 1
 700 400 l 1
 700 0 l 1
 500 0 l 1
 500 400 l 1
 300 400 l 1xc6
 300 500 l 1xa6
 200 500 l 1
 200 600 l 1xaa
0 500 m 1xca
 200 500 l 1xaa
 200 400 l 1xca
 300 400 l 1
 300 0 l 1
 100 0 l 1
 100 400 l 1xc6
 0 400 l 1
 0 500 l 1xca
EndSplineSet
Colour: 4b97f4
EndChar

StartChar: OE
Encoding: 206 338 206
Width: 800
HStem: 0 100<200 400 500 700> 300 100<500 700> 600 100<200 400 500 700>
VStem: 0 200<100 600> 400 100<100 300 400 600>
Fore
SplineSet
400 600 m 1
 200 600 l 1
 200 100 l 1
 400 100 l 1
 400 600 l 1
100 700 m 1
 700 700 l 1
 700 600 l 1
 500 600 l 1
 500 400 l 1
 700 400 l 1
 700 300 l 1
 500 300 l 1
 500 100 l 1
 700 100 l 1
 700 0 l 1
 100 0 l 1
 100 100 l 1
 0 100 l 1
 0 600 l 1
 100 600 l 1
 100 700 l 1
EndSplineSet
EndChar

StartChar: oe
Encoding: 207 339 207
Width: 800
HStem: 0 100<200 300 400 700> 200 100<400 600> 400 100<200 300 400 600>
VStem: 0 200<100 400> 300 100<100 200 300 400> 600 100<300 400>
Fore
SplineSet
100 500 m 1
 600 500 l 1
 600 400 l 1
 400 400 l 1
 400 300 l 1
 600 300 l 1
 600 400 l 1
 700 400 l 1
 700 200 l 1
 400 200 l 1
 400 100 l 1
 700 100 l 1
 700 0 l 1
 100 0 l 1
 100 100 l 1
 0 100 l 1
 0 400 l 1
 100 400 l 1
 100 500 l 1
300 400 m 1
 200 400 l 1
 200 100 l 1
 300 100 l 1
 300 400 l 1
EndSplineSet
EndChar

StartChar: Rcaron
Encoding: 208 344 208
Width: 800
HStem: 0 100<0 100> 200 100<300 500> 300 100<600 700> 400 200<300 500> 400 100<0 100> 600 100<0 200 500 700>
VStem: 100 200<100 200 300 400> 500 200<0 200 300 400 600 700>
Fore
SplineSet
500 400 m 1xd3
 300 400 l 1
 300 300 l 1
 500 300 l 1
 500 400 l 1xd3
0 700 m 1x87
 200 700 l 1
 200 600 l 1
 0 600 l 1
 0 700 l 1x87
500 700 m 1
 700 700 l 1
 700 600 l 1x87
 500 600 l 1x93
 500 700 l 1
200 600 m 1
 500 600 l 1x93
 500 500 l 1
 600 500 l 1x8b
 600 400 l 1
 700 400 l 1
 700 300 l 1
 600 300 l 1xa3
 600 200 l 1
 700 200 l 1
 700 0 l 1
 500 0 l 1
 500 200 l 1
 300 200 l 1
 300 0 l 1
 0 0 l 1
 0 100 l 1
 100 100 l 1
 100 400 l 1
 0 400 l 1
 0 500 l 1
 200 500 l 1xcb
 200 600 l 1
EndSplineSet
EndChar

StartChar: rcaron
Encoding: 209 345 209
Width: 800
HStem: 0 100<0 100 300 400> 300 200<500 700> 400 100<0 100> 500 100<200 300> 600 100<0 200 500 700>
VStem: 0 200<400 500 600 700> 100 200<100 300> 500 200<300 400 600 700>
Fore
SplineSet
0 700 m 1x8d
 200 700 l 1x8d
 200 600 l 1x95
 0 600 l 1
 0 700 l 1x8d
500 700 m 1
 700 700 l 1
 700 600 l 1
 500 600 l 1
 500 700 l 1
200 600 m 1x95
 500 600 l 1
 500 500 l 1
 700 500 l 1
 700 300 l 1
 500 300 l 1xcd
 500 400 l 1
 400 400 l 1xa5
 400 300 l 1
 300 300 l 1
 300 100 l 1xc3
 400 100 l 1
 400 0 l 1
 0 0 l 1
 0 100 l 1xc5
 100 100 l 1
 100 400 l 1xa3
 0 400 l 1
 0 500 l 1xa5
 200 500 l 1x95
 200 400 l 1xa5
 300 400 l 1xa3
 300 500 l 1x93
 200 500 l 1
 200 600 l 1x95
EndSplineSet
EndChar

StartChar: Scircumflex
Encoding: 210 348 210
Width: 800
HStem: 0 100<100 500> 100 100<600 700> 200 100<200 500> 300 100<0 100> 400 100<200 600> 500 100<0 100 600 700> 600 100<100 600>
VStem: 0 100<500 600> 100 500<0 100 200 300 400 500 600 700> 600 100<500 600>
Fore
SplineSet
100 700 m 1x0280
 600 700 l 1x0280
 600 600 l 1x0480
 100 600 l 1x05
 100 700 l 1x0280
0 600 m 1x05
 100 600 l 1
 100 500 l 1
 0 500 l 1
 0 600 l 1x05
600 600 m 1x0480
 700 600 l 1
 700 500 l 1x0440
 600 500 l 1x0880
 600 600 l 1x0480
100 500 m 1x15
 600 500 l 1
 600 400 l 1
 200 400 l 1
 200 300 l 1x2880
 600 300 l 1
 600 200 l 1x5080
 700 200 l 1
 700 100 l 1x5040
 600 100 l 1x5080
 600 0 l 1
 100 0 l 1
 100 100 l 1
 500 100 l 1
 500 200 l 1
 100 200 l 1xa080
 100 300 l 1x1080
 0 300 l 1
 0 400 l 1x11
 100 400 l 1x1080
 100 500 l 1x15
EndSplineSet
Colour: f46a4b
EndChar

StartChar: Scaron
Encoding: 212 352 212
Width: 800
HStem: 0 100<100 500> 100 100<600 700> 200 100<200 500> 300 100<0 100> 400 200<200 500> 400 100<500 600> 600 100<0 200 500 700>
VStem: 0 200<300 400 600 700> 500 200<100 200 600 700>
Fore
SplineSet
0 700 m 1x0380
 200 700 l 1x0380
 200 600 l 1x0980
 0 600 l 1
 0 700 l 1x0380
500 700 m 1
 700 700 l 1
 700 600 l 1x0380
 500 600 l 1x0980
 500 700 l 1
200 600 m 1x0980
 500 600 l 1x0980
 500 500 l 1
 600 500 l 1
 600 400 l 1x0580
 200 400 l 1
 200 300 l 1x2980
 600 300 l 1
 600 200 l 1
 700 200 l 1
 700 100 l 1
 600 100 l 1x5180
 600 0 l 1
 100 0 l 1
 100 100 l 1
 500 100 l 1
 500 200 l 1
 100 200 l 1xa180
 100 300 l 1
 0 300 l 1
 0 400 l 1
 100 400 l 1x1180
 100 500 l 1
 200 500 l 1x0580
 200 600 l 1x0980
EndSplineSet
Colour: f46a4b
EndChar

StartChar: Tcaron
Encoding: 214 356 214
Width: 800
HStem: 0 100<200 300 500 600> 300 200<100 200 600 700> 400 100<200 300 500 600> 600 100<100 300 500 700>
VStem: 100 100<300 400> 300 200<100 400 500 600> 600 100<300 400>
Fore
SplineSet
100 700 m 1x9e
 300 700 l 1
 300 600 l 1
 100 600 l 1
 100 700 l 1x9e
500 700 m 1
 700 700 l 1
 700 600 l 1
 500 600 l 1
 500 700 l 1
300 600 m 1
 500 600 l 1
 500 500 l 1xbe
 700 500 l 1
 700 300 l 1
 600 300 l 1xde
 600 400 l 1
 500 400 l 1
 500 100 l 1
 600 100 l 1
 600 0 l 1
 200 0 l 1
 200 100 l 1
 300 100 l 1
 300 400 l 1
 200 400 l 1xbe
 200 300 l 1
 100 300 l 1
 100 500 l 1xde
 300 500 l 1xbe
 300 600 l 1
EndSplineSet
EndChar

StartChar: tcaron
Encoding: 215 357 215
Width: 800
HStem: 0 100<400 500> 100 100<500 600> 300 100<100 200 400 600> 500 100<200 300> 600 100<0 200 400 600>
VStem: 200 200<100 300 500 600> 300 100<400 500> 500 100<100 200>
Fore
SplineSet
0 700 m 1x2d
 200 700 l 1x2d
 200 600 l 1x35
 0 600 l 1
 0 700 l 1x2d
400 700 m 1x2b
 600 700 l 1
 600 600 l 1
 400 600 l 1x2d
 400 700 l 1x2b
200 600 m 1x75
 400 600 l 1x2d
 400 400 l 1x2b
 600 400 l 1
 600 300 l 1
 400 300 l 1
 400 100 l 1xad
 500 100 l 1
 500 0 l 1
 300 0 l 1xab
 300 100 l 1x63
 200 100 l 1
 200 300 l 1x65
 100 300 l 1
 100 400 l 1
 300 400 l 1
 300 500 l 1x73
 200 500 l 1
 200 600 l 1x75
500 200 m 1x61
 600 200 l 1
 600 100 l 1x61
 500 100 l 1xa1
 500 200 l 1x61
EndSplineSet
EndChar

StartChar: Ubreve
Encoding: 216 364 216
Width: 800
HStem: 0 100<200 500> 480 20G<0 200 500 700> 500 100<200 500> 600 100<100 200 500 600>
VStem: 0 200<100 500> 100 100<600 700> 500 200<100 500> 500 100<600 700>
Fore
SplineSet
100 700 m 1x94
 200 700 l 1x94
 200 600 l 1xa4
 100 600 l 1
 100 700 l 1x94
500 700 m 1x91
 600 700 l 1
 600 600 l 1x91
 500 600 l 1xa1
 500 700 l 1x91
200 600 m 1xa4
 500 600 l 1xa5
 500 500 l 1
 200 500 l 1xca
 200 600 l 1xa4
0 500 m 1xc8
 200 500 l 1
 200 100 l 1
 500 100 l 1
 500 500 l 1
 700 500 l 1
 700 100 l 1xca
 600 100 l 1
 600 0 l 1
 100 0 l 1
 100 100 l 1xc5
 0 100 l 1
 0 500 l 1xc8
EndSplineSet
EndChar

StartChar: ubreve
Encoding: 217 365 217
Width: 800
HStem: 0 100<200 400 600 700> 480 20G<0 200 400 600> 500 100<200 400> 600 100<100 200 400 500>
VStem: 0 200<100 500> 100 100<600 700> 400 200<100 500> 400 100<600 700>
Fore
SplineSet
100 700 m 1x94
 200 700 l 1x94
 200 600 l 1xa4
 100 600 l 1
 100 700 l 1x94
400 700 m 1x91
 500 700 l 1
 500 600 l 1x91
 400 600 l 1xa1
 400 700 l 1x91
200 600 m 1xa4
 400 600 l 1xa5
 400 500 l 1
 200 500 l 1xca
 200 600 l 1xa4
0 500 m 1xc8
 200 500 l 1
 200 100 l 1
 400 100 l 1xca
 400 0 l 1
 100 0 l 1
 100 100 l 1xc5
 0 100 l 1
 0 500 l 1xc8
400 500 m 1
 600 500 l 1
 600 100 l 1xc2
 700 100 l 1
 700 0 l 1
 500 0 l 1
 500 100 l 1xc1
 400 100 l 1
 400 500 l 1
EndSplineSet
EndChar

StartChar: Uring
Encoding: 218 366 218
Width: 800
HStem: 0 100<200 500> 480 20G<0 200 500 700> 500 200<200 500>
VStem: 0 200<100 500> 500 200<100 500>
Fore
SplineSet
200 700 m 1xb8
 500 700 l 1xb8
 500 500 l 1
 200 500 l 1xd8
 200 700 l 1xb8
0 500 m 1xd8
 200 500 l 1
 200 100 l 1
 500 100 l 1
 500 500 l 1
 700 500 l 1
 700 100 l 1
 600 100 l 1
 600 0 l 1
 100 0 l 1
 100 100 l 1
 0 100 l 1
 0 500 l 1xd8
EndSplineSet
EndChar

StartChar: uring
Encoding: 219 367 219
Width: 800
HStem: 0 100<200 400 600 700> 480 20G<0 200 400 600> 500 200<200 400>
VStem: 0 200<100 500> 200 200<500 700> 400 200<100 500>
Fore
SplineSet
200 700 m 1xa8
 400 700 l 1xa8
 400 500 l 1xc8
 200 500 l 1xd0
 200 700 l 1xa8
0 500 m 1xd4
 200 500 l 1
 200 100 l 1
 400 100 l 1
 400 0 l 1
 100 0 l 1
 100 100 l 1
 0 100 l 1
 0 500 l 1xd4
400 500 m 1xc8
 600 500 l 1
 600 100 l 1
 700 100 l 1
 700 0 l 1
 500 0 l 1
 500 100 l 1
 400 100 l 1xc4
 400 500 l 1xc8
EndSplineSet
EndChar

StartChar: Ydieresis
Encoding: 220 376 220
Width: 800
HStem: 0 100<200 300 500 600> 300 200<100 200 600 700> 600 100<100 300 500 700>
VStem: 100 200<300 500 600 700> 500 200<300 500 600 700>
Fore
SplineSet
100 700 m 1
 300 700 l 1
 300 600 l 1
 100 600 l 1
 100 700 l 1
500 700 m 1
 700 700 l 1
 700 600 l 1
 500 600 l 1
 500 700 l 1
100 500 m 1
 300 500 l 1
 300 300 l 1
 500 300 l 1
 500 500 l 1
 700 500 l 1
 700 300 l 1
 600 300 l 1
 600 200 l 1
 500 200 l 1
 500 100 l 1
 600 100 l 1
 600 0 l 1
 200 0 l 1
 200 100 l 1
 300 100 l 1
 300 200 l 1
 200 200 l 1
 200 300 l 1
 100 300 l 1
 100 500 l 1
EndSplineSet
EndChar

StartChar: Zcaron
Encoding: 221 381 221
Width: 800
HStem: 0 200<100 200 500 600> 0 100<0 100 300 500> 300 200<0 100 400 500> 400 100<100 200 500 600> 600 100<0 200 400 600>
VStem: 0 100<300 400> 200 200<200 300 500 600> 500 100<100 200>
Fore
SplineSet
0 700 m 1x0f
 200 700 l 1
 200 600 l 1
 0 600 l 1
 0 700 l 1x0f
400 700 m 1
 600 700 l 1
 600 600 l 1
 400 600 l 1
 400 700 l 1
200 600 m 1
 400 600 l 1
 400 500 l 1x2f
 600 500 l 1
 600 400 l 1
 500 400 l 1x1f
 500 300 l 1
 400 300 l 1
 400 200 l 1
 300 200 l 1xaf
 300 100 l 1
 500 100 l 1x4f
 500 200 l 1
 600 200 l 1
 600 0 l 1x8f
 0 0 l 1
 0 100 l 1
 100 100 l 1x4f
 100 200 l 1
 200 200 l 1
 200 300 l 1
 300 300 l 1xaf
 300 400 l 1
 100 400 l 1x1f
 100 300 l 1
 0 300 l 1
 0 500 l 1x2f
 200 500 l 1x1f
 200 600 l 1
EndSplineSet
Colour: f46a4b
EndChar

StartChar: florin
Encoding: 223 402 223
Width: 800
HStem: -100 100<200 300> 0 100<0 100> 300 100<200 300 500 600> 500 100<700 800> 600 100<500 600>
VStem: 300 200<0 300 400 600>
Fore
SplineSet
400 700 m 1xac
 700 700 l 1xac
 700 600 l 1
 800 600 l 1
 800 500 l 1
 600 500 l 1x34
 600 600 l 1
 500 600 l 1
 500 400 l 1
 600 400 l 1
 600 300 l 1
 500 300 l 1
 500 0 l 1
 400 0 l 1x6c
 400 -100 l 1
 100 -100 l 1xa4
 100 0 l 1
 0 0 l 1
 0 100 l 1
 200 100 l 1x64
 200 0 l 1
 300 0 l 1
 300 300 l 1
 200 300 l 1
 200 400 l 1
 300 400 l 1
 300 600 l 1
 400 600 l 1
 400 700 l 1xac
EndSplineSet
EndChar

StartChar: circumflex
Encoding: 224 710 224
Width: 800
HStem: 400 200<100 200 400 500> 400 100<0 100 500 600> 500 200<200 400>
Fore
SplineSet
200 700 m 1x20
 400 700 l 1x20
 400 600 l 1
 500 600 l 1x80
 500 500 l 1
 600 500 l 1
 600 400 l 1x40
 400 400 l 1x80
 400 500 l 1
 200 500 l 1x20
 200 400 l 1x80
 0 400 l 1
 0 500 l 1
 100 500 l 1x40
 100 600 l 1
 200 600 l 1x80
 200 700 l 1x20
EndSplineSet
EndChar

StartChar: caron
Encoding: 225 711 225
Width: 800
HStem: 400 200<200 400> 500 200<100 200 400 500> 600 100<0 100 500 600>
Fore
SplineSet
0 700 m 1x20
 200 700 l 1x40
 200 600 l 1
 400 600 l 1x80
 400 700 l 1x40
 600 700 l 1
 600 600 l 1
 500 600 l 1x20
 500 500 l 1
 400 500 l 1x40
 400 400 l 1
 200 400 l 1x80
 200 500 l 1
 100 500 l 1x40
 100 600 l 1
 0 600 l 1
 0 700 l 1x20
EndSplineSet
EndChar

StartChar: breve
Encoding: 226 728 226
Width: 800
HStem: 500 100<200 400> 600 100<0 100 500 600>
Fore
SplineSet
0 700 m 1x40
 200 700 l 1x40
 200 600 l 1
 400 600 l 1x80
 400 700 l 1
 600 700 l 1
 600 600 l 1
 500 600 l 1x40
 500 500 l 1
 100 500 l 1x80
 100 600 l 1
 0 600 l 1
 0 700 l 1x40
EndSplineSet
EndChar

StartChar: ring
Encoding: 227 730 227
Width: 800
HStem: 400 100<200 400> 500 100<100 200 400 500> 600 100<200 400>
VStem: 100 100<500 600> 200 200<400 500 600 700> 400 100<500 600>
Fore
SplineSet
200 700 m 1x28
 400 700 l 1x28
 400 600 l 1x48
 200 600 l 1x50
 200 700 l 1x28
100 600 m 1x50
 200 600 l 1x50
 200 500 l 1x90
 100 500 l 1
 100 600 l 1x50
400 600 m 1x48
 500 600 l 1
 500 500 l 1x44
 400 500 l 1x88
 400 600 l 1x48
200 500 m 1x90
 400 500 l 1
 400 400 l 1
 200 400 l 1x88
 200 500 l 1x90
EndSplineSet
EndChar

StartChar: Gamma
Encoding: 229 915 229
Width: 800
HStem: 0 100<0 100 300 400> 500 21G<600 700> 600 100<0 100 300 600>
VStem: 100 200<100 600> 600 100<500 600>
Fore
SplineSet
0 700 m 1
 700 700 l 1
 700 500 l 1
 600 500 l 1
 600 600 l 1
 300 600 l 1
 300 100 l 1
 400 100 l 1
 400 0 l 1
 0 0 l 1
 0 100 l 1
 100 100 l 1
 100 600 l 1
 0 600 l 1
 0 700 l 1
EndSplineSet
EndChar

StartChar: Theta
Encoding: 230 920 230
Width: 800
HStem: 0 100<200 500> 300 100<200 500> 600 100<200 500>
VStem: 0 200<100 300 400 600> 500 200<100 300 400 600>
Fore
SplineSet
500 600 m 1
 200 600 l 1
 200 400 l 1
 500 400 l 1
 500 600 l 1
500 300 m 1
 200 300 l 1
 200 100 l 1
 500 100 l 1
 500 300 l 1
100 700 m 1
 600 700 l 1
 600 600 l 1
 700 600 l 1
 700 100 l 1
 600 100 l 1
 600 0 l 1
 100 0 l 1
 100 100 l 1
 0 100 l 1
 0 600 l 1
 100 600 l 1
 100 700 l 1
EndSplineSet
EndChar

StartChar: Sigma
Encoding: 231 931 231
Width: 800
HStem: 0 200<100 200 600 700> 0 100<0 100 300 600> 300 100<400 500> 500 200<100 200 600 700> 600 100<0 100 300 600>
VStem: 100 200<100 200 500 600> 200 200<200 300 400 500> 600 100<100 200 500 600>
Fore
SplineSet
0 700 m 1x2d
 700 700 l 1
 700 500 l 1
 600 500 l 1x35
 600 600 l 1
 300 600 l 1x2d
 300 500 l 1x35
 400 500 l 1
 400 400 l 1
 500 400 l 1
 500 300 l 1
 400 300 l 1
 400 200 l 1xb3
 300 200 l 1xb5
 300 100 l 1
 600 100 l 1x65
 600 200 l 1
 700 200 l 1
 700 0 l 1xa5
 0 0 l 1
 0 100 l 1
 100 100 l 1x65
 100 200 l 1xa5
 200 200 l 1
 200 300 l 1xa3
 300 300 l 1
 300 400 l 1xa5
 200 400 l 1
 200 500 l 1xb3
 100 500 l 1xb5
 100 600 l 1
 0 600 l 1
 0 700 l 1x2d
EndSplineSet
EndChar

StartChar: Phi
Encoding: 232 934 232
Width: 800
HStem: -100 100<200 300 400 500> 100 100<200 300 400 500> 200 200<0 100 600 700> 400 100<200 300 400 500> 600 100<200 300 400 500>
VStem: 0 200<200 400> 300 100<0 100 200 400 500 600> 500 200<200 400>
Fore
SplineSet
300 400 m 1xdf
 200 400 l 1
 200 200 l 1
 300 200 l 1
 300 400 l 1xdf
500 400 m 1
 400 400 l 1
 400 200 l 1
 500 200 l 1
 500 400 l 1
200 700 m 1
 500 700 l 1
 500 600 l 1
 400 600 l 1
 400 500 l 1
 600 500 l 1x9f
 600 400 l 1
 700 400 l 1
 700 200 l 1
 600 200 l 1xaf
 600 100 l 1
 400 100 l 1
 400 0 l 1
 500 0 l 1
 500 -100 l 1
 200 -100 l 1
 200 0 l 1
 300 0 l 1
 300 100 l 1
 100 100 l 1xcf
 100 200 l 1
 0 200 l 1
 0 400 l 1
 100 400 l 1xaf
 100 500 l 1
 300 500 l 1
 300 600 l 1
 200 600 l 1
 200 700 l 1
EndSplineSet
EndChar

StartChar: uni03A9
Encoding: 233 937 233
Width: 800
HStem: 0 100<0 200 500 700> 600 100<200 500>
VStem: 0 200<300 600> 200 100<100 200> 400 100<100 200> 500 200<300 600>
Fore
SplineSet
100 700 m 1xe0
 600 700 l 1
 600 600 l 1
 700 600 l 1
 700 300 l 1xe4
 600 300 l 1
 600 200 l 1
 500 200 l 1
 500 100 l 1xc8
 700 100 l 1
 700 0 l 1xc4
 400 0 l 1
 400 300 l 1xc8
 500 300 l 1
 500 600 l 1
 200 600 l 1
 200 300 l 1xe4
 300 300 l 1
 300 0 l 1xd0
 0 0 l 1
 0 100 l 1xe0
 200 100 l 1
 200 200 l 1xd0
 100 200 l 1
 100 300 l 1
 0 300 l 1
 0 600 l 1
 100 600 l 1
 100 700 l 1xe0
EndSplineSet
EndChar

StartChar: alpha
Encoding: 234 945 234
Width: 800
HStem: 0 200<300 400 500 600> 0 100<200 300 600 700> 400 100<200 400>
VStem: 0 200<100 400> 400 100<200 300> 500 100<400 500>
Fore
SplineSet
100 500 m 1x78
 400 500 l 1
 400 400 l 1
 200 400 l 1
 200 100 l 1
 300 100 l 1x78
 300 200 l 1
 400 200 l 1
 400 400 l 1xb8
 500 400 l 1
 500 500 l 1
 600 500 l 1
 600 300 l 1xb4
 500 300 l 1
 500 200 l 1xb8
 600 200 l 1xb4
 600 100 l 1
 700 100 l 1
 700 0 l 1x74
 500 0 l 1xb4
 500 100 l 1x74
 400 100 l 1x78
 400 0 l 1xb8
 100 0 l 1
 100 100 l 1
 0 100 l 1
 0 400 l 1
 100 400 l 1
 100 500 l 1x78
EndSplineSet
EndChar

StartChar: delta
Encoding: 235 948 235
Width: 800
HStem: 0 100<200 400> 300 100<200 300> 480 20G<300 500> 500 100<600 700> 600 100<300 600>
VStem: 0 200<100 300> 200 100<500 600> 400 200<100 300> 600 100<500 600>
Fore
SplineSet
400 300 m 1xc5
 200 300 l 1
 200 100 l 1
 400 100 l 1
 400 300 l 1xc5
200 700 m 1xca80
 600 700 l 1xca80
 600 600 l 1xd280
 300 600 l 1
 300 500 l 1xea80
 200 500 l 1xd280
 200 700 l 1xca80
600 600 m 1xd080
 700 600 l 1
 700 500 l 1
 600 500 l 1
 600 600 l 1xd080
300 500 m 1xe2
 500 500 l 1
 500 400 l 1
 600 400 l 1xe280
 600 100 l 1
 500 100 l 1
 500 0 l 1
 100 0 l 1
 100 100 l 1
 0 100 l 1
 0 300 l 1xe5
 100 300 l 1
 100 400 l 1
 300 400 l 1
 300 500 l 1xe2
EndSplineSet
EndChar

StartChar: epsilon
Encoding: 236 949 236
Width: 800
HStem: 0 100<200 600> 200 100<200 500> 400 100<200 600>
VStem: 0 200<100 200 300 400>
Fore
SplineSet
100 500 m 1
 600 500 l 1
 600 400 l 1
 200 400 l 1
 200 300 l 1
 500 300 l 1
 500 200 l 1
 200 200 l 1
 200 100 l 1
 600 100 l 1
 600 0 l 1
 100 0 l 1
 100 100 l 1
 0 100 l 1
 0 400 l 1
 100 400 l 1
 100 500 l 1
EndSplineSet
EndChar

StartChar: pi
Encoding: 237 960 237
Width: 800
HStem: 0 21G<100 200 400 500> 300 100<0 100> 400 100<300 400>
VStem: 100 200<100 300> 100 100<0 100> 400 200<100 400> 400 100<0 100> 600 100<500 600>
Fore
SplineSet
100 500 m 1xa8
 600 500 l 1
 600 600 l 1
 700 600 l 1
 700 400 l 1xa9
 600 400 l 1
 600 100 l 1xa4
 500 100 l 1
 500 0 l 1
 400 0 l 1xa2
 400 400 l 1
 300 400 l 1
 300 100 l 1xb4
 200 100 l 1
 200 0 l 1
 100 0 l 1xa8
 100 300 l 1xd0
 0 300 l 1
 0 400 l 1
 100 400 l 1xc8
 100 500 l 1xa8
EndSplineSet
EndChar

StartChar: sigma
Encoding: 238 963 238
Width: 800
HStem: 0 100<200 400> 400 100<200 300 400 700>
VStem: 0 200<100 400> 300 100<300 400> 400 100<100 300>
Fore
SplineSet
100 500 m 1xe8
 700 500 l 1
 700 400 l 1
 400 400 l 1
 400 300 l 1
 300 300 l 1
 300 400 l 1xf0
 200 400 l 1
 200 100 l 1
 400 100 l 1
 400 0 l 1
 100 0 l 1
 100 100 l 1
 0 100 l 1
 0 400 l 1
 100 400 l 1
 100 500 l 1xe8
400 300 m 1
 500 300 l 1
 500 100 l 1
 400 100 l 1xe8
 400 300 l 1
EndSplineSet
EndChar

StartChar: tau
Encoding: 239 964 239
Width: 800
HStem: 0 21G<300 400> 300 100<0 100> 400 100<200 300 500 700>
VStem: 300 200<100 400> 300 100<0 100>
Fore
SplineSet
100 500 m 1xb0
 700 500 l 1
 700 400 l 1
 500 400 l 1
 500 100 l 1xb0
 400 100 l 1
 400 0 l 1
 300 0 l 1xa8
 300 400 l 1
 200 400 l 1xb0
 200 300 l 1
 0 300 l 1
 0 400 l 1
 100 400 l 1xd0
 100 500 l 1xb0
EndSplineSet
EndChar

StartChar: phi
Encoding: 240 966 240
Width: 800
HStem: 0 100<0 100> 100 100<400 600> 200 200<0 100 600 700> 400 100<100 300> 500 100<600 700>
VStem: 0 100<300 400> 600 100<200 300>
Fore
SplineSet
500 600 m 1x0e
 700 600 l 1
 700 500 l 1
 600 500 l 1
 600 400 l 1
 700 400 l 1
 700 200 l 1x2e
 600 200 l 1
 600 300 l 1
 400 300 l 1
 400 200 l 1
 600 200 l 1
 600 100 l 1
 200 100 l 1x46
 200 0 l 1
 0 0 l 1
 0 100 l 1
 100 100 l 1
 100 200 l 1
 0 200 l 1
 0 400 l 1
 100 400 l 1xa6
 100 300 l 1
 300 300 l 1
 300 400 l 1x16
 100 400 l 1x26
 100 500 l 1x16
 500 500 l 1
 500 600 l 1x0e
EndSplineSet
EndChar

StartChar: quoteleft
Encoding: 243 8216 243
Width: 800
HStem: 400 100<300 400> 600 100<300 400>
VStem: 200 100<500 600> 300 100<600 700>
Fore
SplineSet
300 700 m 1xd0
 400 700 l 1
 400 600 l 1xd0
 300 600 l 1xe0
 300 700 l 1xd0
200 600 m 1xe0
 300 600 l 1
 300 500 l 1xe0
 400 500 l 1
 400 400 l 1xd0
 200 400 l 1
 200 600 l 1xe0
EndSplineSet
Colour: f46a4b
EndChar

StartChar: quoteright
Encoding: 244 8217 244
Width: 800
HStem: 400 100<200 300> 500 21G<300 400> 600 100<200 300>
VStem: 200 100<400 500> 300 100<500 600>
Fore
SplineSet
200 700 m 1xb0
 400 700 l 1
 400 500 l 1x68
 300 500 l 1xb0
 300 600 l 1xa8
 200 600 l 1
 200 700 l 1xb0
200 500 m 1xb0
 300 500 l 1
 300 400 l 1
 200 400 l 1
 200 500 l 1xb0
EndSplineSet
Colour: f46a4b
EndChar

StartChar: dagger
Encoding: 249 8224 249
Width: 800
HStem: 0 21G<300 500> 400 100<100 300 500 700> 680 20G<300 500>
VStem: 300 200<0 400 500 700>
Fore
SplineSet
300 700 m 1
 500 700 l 1
 500 500 l 1
 700 500 l 1
 700 400 l 1
 500 400 l 1
 500 0 l 1
 300 0 l 1
 300 400 l 1
 100 400 l 1
 100 500 l 1
 300 500 l 1
 300 700 l 1
EndSplineSet
EndChar

StartChar: daggerdbl
Encoding: 250 8225 250
Width: 800
HStem: 0 21G<300 500> 200 100<100 300 500 700> 400 100<100 300 500 700> 680 20G<300 500>
VStem: 300 200<0 200 300 400 500 700>
Fore
SplineSet
300 700 m 1
 500 700 l 1
 500 500 l 1
 700 500 l 1
 700 400 l 1
 500 400 l 1
 500 300 l 1
 700 300 l 1
 700 200 l 1
 500 200 l 1
 500 0 l 1
 300 0 l 1
 300 200 l 1
 100 200 l 1
 100 300 l 1
 300 300 l 1
 300 400 l 1
 100 400 l 1
 100 500 l 1
 300 500 l 1
 300 700 l 1
EndSplineSet
EndChar

StartChar: bullet
Encoding: 251 8226 251
Width: 800
HStem: 200 200<300 500>
VStem: 300 200<200 400>
Fore
SplineSet
300 400 m 1
 500 400 l 1
 500 200 l 1
 300 200 l 1
 300 400 l 1
EndSplineSet
EndChar

StartChar: perthousand
Encoding: 253 8240 253
Width: 800
HStem: 0 100<0 100 400 500 600 700> 100 100<100 200 500 600> 200 100<200 300 400 500 600 700> 300 100<100 200 300 400> 400 100<400 500> 500 100<100 200 500 600>
VStem: 0 100<0 100 400 500> 100 100<100 200> 200 100<200 300 400 500> 300 100<100 200 300 400> 400 100<200 300 400 500> 500 100<100 200 500 600> 600 100<0 100> 700 100<100 200>
Fore
SplineSet
100 600 m 1x15
 300 600 l 1x1540
 300 400 l 1
 200 400 l 1
 200 500 l 1
 100 500 l 1x1680
 100 600 l 1x15
0 500 m 1x1680
 100 500 l 1
 100 400 l 1
 200 400 l 1x1680
 200 300 l 1x2280
 0 300 l 1
 0 500 l 1x1680
500 600 m 1x0410
 600 600 l 1
 600 500 l 1x0410
 500 500 l 1x0820
 500 600 l 1x0410
400 500 m 1x0820
 500 500 l 1
 500 400 l 1x0820
 400 400 l 1x1040
 400 500 l 1x0820
300 400 m 1x1080
 400 400 l 1x1040
 400 300 l 1x2040
 300 300 l 1x2080
 300 400 l 1x1080
200 300 m 1x2080
 300 300 l 1
 300 200 l 1x2080
 200 200 l 1x41
 200 300 l 1x2080
100 200 m 1x41
 200 200 l 1
 200 100 l 1x41
 100 100 l 1x82
 100 200 l 1x41
0 100 m 1x82
 100 100 l 1
 100 0 l 1
 0 0 l 1
 0 100 l 1x82
400 300 m 1x2040
 500 300 l 1x2020
 500 200 l 1x4020
 400 200 l 1
 400 300 l 1x2040
600 300 m 1x2008
 800 300 l 1
 800 100 l 1x5004
 700 100 l 1x8008
 700 200 l 1xa004
 600 200 l 1x4014
 600 300 l 1x2008
500 200 m 1x4020
 600 200 l 1x4010
 600 100 l 1
 500 100 l 1x8010
 500 200 l 1x4020
600 100 m 1x8010
 700 100 l 1
 700 0 l 1
 600 0 l 1x8008
 600 100 l 1x8010
300 200 m 1xa080
 400 200 l 1
 400 100 l 1
 500 100 l 1
 500 0 l 1
 300 0 l 1xa050
 300 200 l 1xa080
EndSplineSet
EndChar

StartChar: guilsinglleft
Encoding: 254 8249 254
Width: 800
HStem: 100 100<500 600> 300 100<200 300> 500 100<500 600>
VStem: 300 200<200 300 400 500> 400 200<100 200 500 600>
Fore
SplineSet
400 600 m 1xe8
 600 600 l 1
 600 500 l 1xe8
 500 500 l 1
 500 400 l 1xf0
 400 400 l 1
 400 300 l 1xe8
 500 300 l 1
 500 200 l 1xf0
 600 200 l 1
 600 100 l 1
 400 100 l 1
 400 200 l 1xe8
 300 200 l 1
 300 300 l 1
 200 300 l 1
 200 400 l 1
 300 400 l 1
 300 500 l 1xf0
 400 500 l 1
 400 600 l 1xe8
EndSplineSet
Colour: f46a4b
EndChar

StartChar: guilsinglright
Encoding: 255 8250 255
Width: 800
HStem: 100 100<200 300> 300 100<500 600> 500 100<200 300>
VStem: 200 200<100 200 500 600> 300 200<200 300 400 500>
Fore
SplineSet
200 600 m 1xf0
 400 600 l 1
 400 500 l 1xf0
 500 500 l 1
 500 400 l 1
 600 400 l 1
 600 300 l 1
 500 300 l 1
 500 200 l 1xe8
 400 200 l 1
 400 100 l 1
 200 100 l 1
 200 200 l 1xf0
 300 200 l 1
 300 300 l 1xe8
 400 300 l 1
 400 400 l 1xf0
 300 400 l 1
 300 500 l 1xe8
 200 500 l 1
 200 600 l 1xf0
EndSplineSet
Colour: f46a4b
EndChar

StartChar: exclamdbl
Encoding: 256 8252 256
Width: 800
HStem: 0 100<100 300 500 700> 200 500<100 300 500 700>
VStem: 100 200<0 100 200 700> 500 200<0 100 200 700>
Fore
SplineSet
100 700 m 1
 300 700 l 1
 300 200 l 1
 100 200 l 1
 100 700 l 1
100 100 m 1
 300 100 l 1
 300 0 l 1
 100 0 l 1
 100 100 l 1
500 700 m 1
 700 700 l 1
 700 200 l 1
 500 200 l 1
 500 700 l 1
500 100 m 1
 700 100 l 1
 700 0 l 1
 500 0 l 1
 500 100 l 1
EndSplineSet
EndChar

StartChar: uni207F
Encoding: 257 8319 257
Width: 800
HStem: 600 100<0 100 300 400>
VStem: 100 200<300 600> 400 200<300 600>
Fore
SplineSet
0 700 m 1
 200 700 l 1
 200 600 l 1
 300 600 l 1
 300 300 l 1
 100 300 l 1
 100 600 l 1
 0 600 l 1
 0 700 l 1
300 700 m 1
 500 700 l 1
 500 600 l 1
 600 600 l 1
 600 300 l 1
 400 300 l 1
 400 600 l 1
 300 600 l 1
 300 700 l 1
EndSplineSet
EndChar

StartChar: peseta
Encoding: 258 8359 258
Width: 800
HStem: -100 100<600 700> 0 21G<0 200> 100 100<300 400 600 700> 400 100<200 400> 500 100<500 600> 600 100<200 400>
VStem: 0 200<0 400 500 600> 400 200<0 100 200 300 500 600> 500 100<300 400>
Fore
SplineSet
400 600 m 1x37
 200 600 l 1
 200 500 l 1
 400 500 l 1
 400 600 l 1x37
0 700 m 1
 500 700 l 1x7680
 500 600 l 1x2a80
 600 600 l 1
 600 500 l 1x2b
 500 500 l 1x2a80
 500 400 l 1
 200 400 l 1
 200 0 l 1
 0 0 l 1x7280
 0 700 l 1
500 400 m 1
 600 400 l 1x7280
 600 200 l 1
 700 200 l 1
 700 100 l 1
 600 100 l 1
 600 0 l 1xb3
 700 0 l 1
 700 -100 l 1
 500 -100 l 1xb280
 500 0 l 1x6280
 400 0 l 1
 400 100 l 1
 300 100 l 1
 300 200 l 1
 400 200 l 1
 400 300 l 1x63
 500 300 l 1
 500 400 l 1
EndSplineSet
EndChar

StartChar: Euro
Encoding: 259 8364 259
Width: 800
HStem: 0 100<300 500> 100 100<600 700> 200 100<0 100 300 400> 400 100<0 100 300 500> 500 100<600 700> 600 100<300 500>
VStem: 100 200<100 200 300 400 500 600> 500 200<100 200 500 600>
Fore
SplineSet
200 700 m 1x37
 600 700 l 1x37
 600 600 l 1
 700 600 l 1
 700 500 l 1x0b
 500 500 l 1
 500 600 l 1
 300 600 l 1
 300 500 l 1
 500 500 l 1
 500 400 l 1
 300 400 l 1
 300 300 l 1
 400 300 l 1
 400 200 l 1
 300 200 l 1
 300 100 l 1
 500 100 l 1
 500 200 l 1xb7
 700 200 l 1
 700 100 l 1
 600 100 l 1x43
 600 0 l 1
 200 0 l 1x83
 200 100 l 1
 100 100 l 1x43
 100 200 l 1
 0 200 l 1
 0 300 l 1
 100 300 l 1
 100 400 l 1
 0 400 l 1
 0 500 l 1
 100 500 l 1
 100 600 l 1
 200 600 l 1
 200 700 l 1x37
EndSplineSet
EndChar

StartChar: uni20B1
Encoding: 260 8369 260
Width: 800
HStem: 0 100<0 100 300 400> 200 100<300 500> 400 100<0 100 300 500 700 800> 600 100<0 100 300 500>
VStem: 100 200<100 200 300 400 500 600> 500 200<300 400 500 600>
Fore
SplineSet
500 600 m 1
 300 600 l 1
 300 500 l 1
 500 500 l 1
 500 600 l 1
500 400 m 1
 300 400 l 1
 300 300 l 1
 500 300 l 1
 500 400 l 1
0 700 m 1
 600 700 l 1
 600 600 l 1
 700 600 l 1
 700 500 l 1
 800 500 l 1
 800 400 l 1
 700 400 l 1
 700 300 l 1
 600 300 l 1
 600 200 l 1
 300 200 l 1
 300 100 l 1
 400 100 l 1
 400 0 l 1
 0 0 l 1
 0 100 l 1
 100 100 l 1
 100 400 l 1
 0 400 l 1
 0 500 l 1
 100 500 l 1
 100 600 l 1
 0 600 l 1
 0 700 l 1
EndSplineSet
EndChar

StartChar: uni20B7
Encoding: 261 8375 261
Width: 800
HStem: 0 200<200 300 400 500> 0 100<100 200 300 400> 300 100<200 300 400 500> 500 100<600 700> 600 100<200 500>
VStem: 0 200<200 300 400 600> 0 100<100 200> 200 100<100 200> 500 200<200 300 500 600>
Fore
SplineSet
300 300 m 1xa180
 200 300 l 1
 200 200 l 1xa480
 300 200 l 1
 300 300 l 1xa180
500 300 m 1
 400 300 l 1
 400 200 l 1
 500 200 l 1
 500 300 l 1
200 200 m 1
 100 200 l 1xa280
 100 100 l 1
 200 100 l 1x6380
 200 200 l 1
400 200 m 1
 300 200 l 1xa180
 300 100 l 1
 400 100 l 1x6180
 400 200 l 1
100 700 m 1x6a80
 600 700 l 1x6a80
 600 600 l 1
 700 600 l 1
 700 500 l 1
 500 500 l 1x3280
 500 600 l 1
 200 600 l 1
 200 400 l 1x2c80
 600 400 l 1
 600 300 l 1
 700 300 l 1
 700 100 l 1
 600 100 l 1
 600 0 l 1
 0 0 l 1x6a80
 0 300 l 1x6c80
 100 300 l 1
 100 400 l 1x6a80
 0 400 l 1
 0 600 l 1x6c80
 100 600 l 1
 100 700 l 1x6a80
EndSplineSet
EndChar

StartChar: uni2117
Encoding: 262 8471 262
Width: 800
HStem: -100 100<200 600> 0 100<100 200 600 700> 100 400<0 100 200 300 700 800> 300 100<500 600> 400 100<301 500> 500 100<100 200 600 700> 600 100<200 600>
VStem: 0 100<100 500> 100 100<0 100 500 600> 200 100<100 200 300 400> 500 100<300 400> 600 100<0 100 500 600> 700 100<100 500>
Fore
SplineSet
200 500 m 1x2080
 500 500 l 1x08a0
 500 400 l 1x10a0
 301 400 l 1x08a0
 300 300 l 1
 500 300 l 1x1060
 500 200 l 1
 300 200 l 1
 300 100 l 1x2060
 200 100 l 1x4080
 200 500 l 1x2080
500 400 m 1x1020
 600 400 l 1
 600 300 l 1
 500 300 l 1
 500 400 l 1x1020
200 700 m 1x0240
 600 700 l 1x0250
 600 600 l 1
 200 600 l 1x0490
 200 700 l 1x0240
100 600 m 1x0480
 200 600 l 1x0480
 200 500 l 1x2080
 100 500 l 1x21
 100 600 l 1x0480
600 600 m 1x0410
 700 600 l 1x0410
 700 500 l 1x2010
 600 500 l 1
 600 600 l 1x0410
0 500 m 1x21
 100 500 l 1x21
 100 100 l 1x41
 0 100 l 1
 0 500 l 1x21
700 500 m 1x2010
 800 500 l 1
 800 100 l 1x2008
 700 100 l 1x4010
 700 500 l 1x2010
100 100 m 1x41
 200 100 l 1x4080
 200 0 l 1x8080
 100 0 l 1x4080
 100 100 l 1x41
600 100 m 1x4010
 700 100 l 1
 700 0 l 1x4010
 600 0 l 1x8010
 600 100 l 1x4010
200 0 m 1x8080
 600 0 l 1
 600 -100 l 1
 200 -100 l 1x8050
 200 0 l 1x8080
EndSplineSet
EndChar

StartChar: trademark
Encoding: 263 8482 263
Width: 800
HStem: 300 400<100 200 300 400 700 800> 400 100<500 600> 500 100<400 500 600 700> 600 100<0 100 200 300>
VStem: 100 100<300 600> 300 100<300 500> 500 100<400 500> 700 100<300 500 600 700>
Fore
SplineSet
0 700 m 1x1f
 400 700 l 1x8f
 400 600 l 1
 500 600 l 1x2f
 500 500 l 1x4f
 400 500 l 1x2f
 400 300 l 1
 300 300 l 1x8f
 300 600 l 1
 200 600 l 1x1f
 200 300 l 1
 100 300 l 1x8f
 100 600 l 1
 0 600 l 1
 0 700 l 1x1f
700 700 m 1
 800 700 l 1
 800 300 l 1
 700 300 l 1x8f
 700 500 l 1x2f
 600 500 l 1x4f
 600 600 l 1
 700 600 l 1x2f
 700 700 l 1
500 500 m 1x4f
 600 500 l 1
 600 400 l 1
 500 400 l 1
 500 500 l 1x4f
EndSplineSet
EndChar

StartChar: arrowleft
Encoding: 264 8592 264
Width: 800
HStem: 100 100<300 400> 300 100<0 100 300 700> 500 100<300 400>
VStem: 100 200<200 300 400 500> 200 200<100 200 500 600>
Fore
SplineSet
200 600 m 1xe8
 400 600 l 1
 400 500 l 1xe8
 300 500 l 1
 300 400 l 1
 700 400 l 1
 700 300 l 1
 300 300 l 1
 300 200 l 1xf0
 400 200 l 1
 400 100 l 1
 200 100 l 1
 200 200 l 1xe8
 100 200 l 1
 100 300 l 1
 0 300 l 1
 0 400 l 1
 100 400 l 1
 100 500 l 1xf0
 200 500 l 1
 200 600 l 1xe8
EndSplineSet
EndChar

StartChar: arrowup
Encoding: 265 8593 265
Width: 800
HStem: 0 21G<300 500> 400 100<100 200 600 700> 500 100<200 300 500 600> 680 20G<300 500>
VStem: 100 100<400 500> 300 200<0 500 600 700> 600 100<400 500>
Fore
SplineSet
300 700 m 1xbe
 500 700 l 1
 500 600 l 1
 600 600 l 1xbe
 600 500 l 1xde
 500 500 l 1
 500 0 l 1
 300 0 l 1
 300 500 l 1xbe
 200 500 l 1xde
 200 600 l 1
 300 600 l 1
 300 700 l 1xbe
100 500 m 1xde
 200 500 l 1
 200 400 l 1
 100 400 l 1
 100 500 l 1xde
600 500 m 1
 700 500 l 1
 700 400 l 1
 600 400 l 1
 600 500 l 1
EndSplineSet
EndChar

StartChar: arrowright
Encoding: 266 8594 266
Width: 800
HStem: 100 100<300 400> 300 100<0 400 600 700> 500 100<300 400>
VStem: 300 200<100 200 500 600> 400 200<200 300 400 500>
Fore
SplineSet
300 600 m 1xf0
 500 600 l 1
 500 500 l 1xf0
 600 500 l 1
 600 400 l 1
 700 400 l 1
 700 300 l 1
 600 300 l 1
 600 200 l 1xe8
 500 200 l 1
 500 100 l 1
 300 100 l 1
 300 200 l 1xf0
 400 200 l 1
 400 300 l 1
 0 300 l 1
 0 400 l 1
 400 400 l 1
 400 500 l 1xe8
 300 500 l 1
 300 600 l 1xf0
EndSplineSet
EndChar

StartChar: arrowdown
Encoding: 267 8595 267
Width: 800
HStem: 0 21G<300 500> 100 100<200 300 500 600> 200 100<100 200 600 700> 680 20G<300 500>
VStem: 100 100<200 300> 300 200<0 100 200 700> 600 100<200 300>
Fore
SplineSet
300 700 m 1xde
 500 700 l 1
 500 200 l 1
 600 200 l 1
 600 100 l 1
 500 100 l 1
 500 0 l 1
 300 0 l 1
 300 100 l 1
 200 100 l 1
 200 200 l 1
 300 200 l 1
 300 700 l 1xde
100 300 m 1xbe
 200 300 l 1xbe
 200 200 l 1xde
 100 200 l 1
 100 300 l 1xbe
600 300 m 1
 700 300 l 1
 700 200 l 1xbe
 600 200 l 1xde
 600 300 l 1
EndSplineSet
EndChar

StartChar: arrowboth
Encoding: 268 8596 268
Width: 800
HStem: 100 100<200 300 500 600> 300 100<0 100 200 600 700 800> 480 20G<100 200 600 700> 500 100<200 300 500 600>
VStem: 100 100<200 300 400 500> 200 100<100 200 500 600> 500 100<100 200 500 600> 600 100<200 300 400 500>
Fore
SplineSet
200 600 m 1xd4
 300 600 l 1
 300 500 l 1xd4
 200 500 l 1xe8
 200 600 l 1xd4
500 600 m 1xd2
 600 600 l 1xd2
 600 500 l 1xe2
 500 500 l 1
 500 600 l 1xd2
100 500 m 1xe9
 200 500 l 1
 200 400 l 1
 600 400 l 1xe9
 600 500 l 1xe2
 700 500 l 1
 700 400 l 1
 800 400 l 1
 800 300 l 1
 700 300 l 1
 700 200 l 1xe1
 600 200 l 1xe2
 600 300 l 1
 200 300 l 1
 200 200 l 1
 100 200 l 1
 100 300 l 1
 0 300 l 1
 0 400 l 1
 100 400 l 1
 100 500 l 1xe9
200 200 m 1
 300 200 l 1
 300 100 l 1
 200 100 l 1xc4
 200 200 l 1
500 200 m 1xc2
 600 200 l 1
 600 100 l 1
 500 100 l 1
 500 200 l 1xc2
EndSplineSet
EndChar

StartChar: arrowupdn
Encoding: 269 8597 269
Width: 800
HStem: 0 21G<300 500> 100 100<200 300 500 600> 200 100<100 200 600 700> 400 100<100 200 600 700> 500 100<200 300 500 600> 680 20G<300 500>
VStem: 100 100<200 300 400 500> 300 200<0 100 200 500 600 700> 600 100<200 300 400 500>
Fore
SplineSet
300 700 m 1x8f80
 500 700 l 1
 500 600 l 1
 600 600 l 1x8f80
 600 500 l 1x9780
 500 500 l 1
 500 200 l 1
 600 200 l 1
 600 100 l 1
 500 100 l 1
 500 0 l 1
 300 0 l 1
 300 100 l 1
 200 100 l 1
 200 200 l 1
 300 200 l 1
 300 500 l 1xcf80
 200 500 l 1x9780
 200 600 l 1
 300 600 l 1
 300 700 l 1x8f80
100 500 m 1x9780
 200 500 l 1
 200 400 l 1
 100 400 l 1
 100 500 l 1x9780
600 500 m 1
 700 500 l 1
 700 400 l 1
 600 400 l 1
 600 500 l 1
100 300 m 1xa780
 200 300 l 1xa780
 200 200 l 1xc780
 100 200 l 1
 100 300 l 1xa780
600 300 m 1
 700 300 l 1
 700 200 l 1xa780
 600 200 l 1xc780
 600 300 l 1
EndSplineSet
EndChar

StartChar: arrowupdnbse
Encoding: 270 8616 270
Width: 800
HStem: -100 100<100 300 500 700> 100 100<200 300 500 600> 200 100<100 200 600 700> 400 100<100 200 600 700> 500 100<200 300 500 600> 680 20G<300 500>
VStem: 100 100<200 300 400 500> 300 200<0 100 200 500 600 700> 600 100<200 300 400 500>
Fore
SplineSet
300 700 m 1x8f80
 500 700 l 1
 500 600 l 1
 600 600 l 1x8f80
 600 500 l 1x9780
 500 500 l 1
 500 200 l 1
 600 200 l 1
 600 100 l 1
 500 100 l 1
 500 0 l 1
 700 0 l 1
 700 -100 l 1
 100 -100 l 1
 100 0 l 1
 300 0 l 1
 300 100 l 1
 200 100 l 1
 200 200 l 1
 300 200 l 1
 300 500 l 1xcf80
 200 500 l 1x9780
 200 600 l 1
 300 600 l 1
 300 700 l 1x8f80
100 500 m 1x9780
 200 500 l 1
 200 400 l 1
 100 400 l 1
 100 500 l 1x9780
600 500 m 1
 700 500 l 1
 700 400 l 1
 600 400 l 1
 600 500 l 1
100 300 m 1xa780
 200 300 l 1xa780
 200 200 l 1xc780
 100 200 l 1
 100 300 l 1xa780
600 300 m 1
 700 300 l 1
 700 200 l 1xa780
 600 200 l 1xc780
 600 300 l 1
EndSplineSet
EndChar

StartChar: radical
Encoding: 272 8730 272
Width: 800
HStem: -100 21G<300 600> 200 100<0 100> 600 100<600 800>
VStem: 400 200<100 600>
Fore
SplineSet
400 700 m 1
 800 700 l 1
 800 600 l 1
 600 600 l 1
 600 -100 l 1
 300 -100 l 1
 300 0 l 1
 200 0 l 1
 200 100 l 1
 100 100 l 1
 100 200 l 1
 0 200 l 1
 0 300 l 1
 300 300 l 1
 300 100 l 1
 400 100 l 1
 400 700 l 1
EndSplineSet
EndChar

StartChar: infinity
Encoding: 273 8734 273
Width: 800
HStem: 100 100<100 300 500 700> 200 200<0 100 300 500 700 800> 400 100<100 300 500 700>
VStem: 0 100<200 400> 100 200<100 200 400 500> 300 200<200 400> 500 200<100 200 400 500> 700 100<200 400>
Fore
SplineSet
100 500 m 1x28
 300 500 l 1x28
 300 400 l 1x48
 100 400 l 1x50
 100 500 l 1x28
500 500 m 1x22
 700 500 l 1x22
 700 400 l 1x42
 500 400 l 1x44
 500 500 l 1x22
0 400 m 1x50
 100 400 l 1x50
 100 200 l 1x90
 0 200 l 1
 0 400 l 1x50
300 400 m 1x48
 500 400 l 1x44
 500 200 l 1x84
 300 200 l 1x88
 300 400 l 1x48
700 400 m 1x42
 800 400 l 1
 800 200 l 1x41
 700 200 l 1x82
 700 400 l 1x42
100 200 m 1x90
 300 200 l 1
 300 100 l 1
 100 100 l 1x88
 100 200 l 1x90
500 200 m 1x84
 700 200 l 1
 700 100 l 1
 500 100 l 1x82
 500 200 l 1x84
EndSplineSet
EndChar

StartChar: orthogonal
Encoding: 274 8735 274
Width: 800
HStem: 100 100<200 700> 480 20G<0 200>
VStem: 0 200<200 500>
Fore
SplineSet
0 500 m 1
 200 500 l 1
 200 200 l 1
 700 200 l 1
 700 100 l 1
 0 100 l 1
 0 500 l 1
EndSplineSet
EndChar

StartChar: intersection
Encoding: 275 8745 275
Width: 800
HStem: 0 21G<0 200 500 700> 500 100<200 500>
VStem: 0 200<0 500> 500 200<0 500>
Fore
SplineSet
100 600 m 1
 600 600 l 1
 600 500 l 1
 700 500 l 1
 700 0 l 1
 500 0 l 1
 500 500 l 1
 200 500 l 1
 200 0 l 1
 0 0 l 1
 0 500 l 1
 100 500 l 1
 100 600 l 1
EndSplineSet
EndChar

StartChar: equivalence
Encoding: 277 8801 277
Width: 800
HStem: 100 100<0 700> 300 100<0 700> 500 100<0 700>
Fore
SplineSet
0 600 m 1
 700 600 l 1
 700 500 l 1
 0 500 l 1
 0 600 l 1
0 400 m 1
 700 400 l 1
 700 300 l 1
 0 300 l 1
 0 400 l 1
0 200 m 1
 700 200 l 1
 700 100 l 1
 0 100 l 1
 0 200 l 1
EndSplineSet
EndChar

StartChar: lessequal
Encoding: 278 8804 278
Width: 800
HStem: 0 100<100 600> 200 100<400 500> 400 100<100 200> 600 100<400 500>
VStem: 200 200<300 400 500 600> 300 200<200 300 600 700>
Fore
SplineSet
300 700 m 1xf4
 500 700 l 1
 500 600 l 1xf4
 400 600 l 1
 400 500 l 1xf8
 300 500 l 1
 300 400 l 1xf4
 400 400 l 1
 400 300 l 1xf8
 500 300 l 1
 500 200 l 1
 300 200 l 1
 300 300 l 1xf4
 200 300 l 1
 200 400 l 1
 100 400 l 1
 100 500 l 1
 200 500 l 1
 200 600 l 1xf8
 300 600 l 1
 300 700 l 1xf4
100 100 m 1
 600 100 l 1
 600 0 l 1
 100 0 l 1
 100 100 l 1
EndSplineSet
EndChar

StartChar: greaterequal
Encoding: 279 8805 279
Width: 800
HStem: 0 100<100 600> 200 100<200 300> 400 100<500 600> 600 100<200 300>
VStem: 200 200<200 300 600 700> 300 200<300 400 500 600>
Fore
SplineSet
200 700 m 1xf8
 400 700 l 1
 400 600 l 1xf8
 500 600 l 1
 500 500 l 1
 600 500 l 1
 600 400 l 1
 500 400 l 1
 500 300 l 1xf4
 400 300 l 1
 400 200 l 1
 200 200 l 1
 200 300 l 1xf8
 300 300 l 1
 300 400 l 1xf4
 400 400 l 1
 400 500 l 1xf8
 300 500 l 1
 300 600 l 1xf4
 200 600 l 1
 200 700 l 1xf8
100 100 m 1
 600 100 l 1
 600 0 l 1
 100 0 l 1
 100 100 l 1
EndSplineSet
EndChar

StartChar: house
Encoding: 280 8962 280
Width: 800
HStem: 0 100<200 500> 300 200<200 300 400 500>
VStem: 0 200<100 300> 300 100<500 600> 500 200<100 300>
Fore
SplineSet
400 400 m 1
 300 400 l 1
 300 300 l 1
 200 300 l 1
 200 100 l 1
 500 100 l 1
 500 300 l 1
 400 300 l 1
 400 400 l 1
300 600 m 1
 400 600 l 1
 400 500 l 1
 500 500 l 1
 500 400 l 1
 600 400 l 1
 600 300 l 1
 700 300 l 1
 700 0 l 1
 0 0 l 1
 0 300 l 1
 100 300 l 1
 100 400 l 1
 200 400 l 1
 200 500 l 1
 300 500 l 1
 300 600 l 1
EndSplineSet
EndChar

StartChar: revlogicalnot
Encoding: 281 8976 281
Width: 800
HStem: 300 100<200 600>
VStem: 0 200<100 300>
Fore
SplineSet
0 400 m 1
 600 400 l 1
 600 300 l 1
 200 300 l 1
 200 100 l 1
 0 100 l 1
 0 400 l 1
EndSplineSet
EndChar

StartChar: integraltp
Encoding: 282 8992 282
Width: 800
HStem: -100 21G<300 500> 600 100<500 600>
VStem: 300 200<-100 600> 600 200<400 600>
Fore
SplineSet
400 700 m 1
 700 700 l 1
 700 600 l 1
 800 600 l 1
 800 400 l 1
 600 400 l 1
 600 600 l 1
 500 600 l 1
 500 -100 l 1
 300 -100 l 1
 300 600 l 1
 400 600 l 1
 400 700 l 1
EndSplineSet
EndChar

StartChar: integralbt
Encoding: 283 8993 283
Width: 800
HStem: -100 100<200 300> 680 20G<300 500>
VStem: 0 200<0 200> 300 200<0 700>
Fore
SplineSet
300 700 m 1
 500 700 l 1
 500 0 l 1
 400 0 l 1
 400 -100 l 1
 100 -100 l 1
 100 0 l 1
 0 0 l 1
 0 200 l 1
 200 200 l 1
 200 0 l 1
 300 0 l 1
 300 700 l 1
EndSplineSet
EndChar

StartChar: SF100000
Encoding: 284 9472 284
Width: 800
HStem: 200 100<0 800>
Fore
SplineSet
0 300 m 1
 800 300 l 1
 800 200 l 1
 0 200 l 1
 0 300 l 1
EndSplineSet
EndChar

StartChar: SF110000
Encoding: 285 9474 285
Width: 800
HStem: -100 21G<300 500> 680 20G<300 500>
VStem: 300 200<-100 700>
Fore
SplineSet
300 700 m 1
 500 700 l 1
 500 -100 l 1
 300 -100 l 1
 300 700 l 1
EndSplineSet
EndChar

StartChar: SF010000
Encoding: 286 9484 286
Width: 800
HStem: -100 21G<300 500> 200 100<500 800>
VStem: 300 200<-100 200>
Fore
SplineSet
300 300 m 1
 800 300 l 1
 800 200 l 1
 500 200 l 1
 500 -100 l 1
 300 -100 l 1
 300 300 l 1
EndSplineSet
EndChar

StartChar: SF030000
Encoding: 287 9488 287
Width: 800
HStem: -100 21G<300 500> 200 100<0 300>
VStem: 300 200<-100 200>
Fore
SplineSet
0 300 m 1
 500 300 l 1
 500 -100 l 1
 300 -100 l 1
 300 200 l 1
 0 200 l 1
 0 300 l 1
EndSplineSet
EndChar

StartChar: SF020000
Encoding: 288 9492 288
Width: 800
HStem: 200 100<500 800> 680 20G<300 500>
VStem: 300 200<300 700>
Fore
SplineSet
300 700 m 1
 500 700 l 1
 500 300 l 1
 800 300 l 1
 800 200 l 1
 300 200 l 1
 300 700 l 1
EndSplineSet
EndChar

StartChar: SF040000
Encoding: 289 9496 289
Width: 800
HStem: 200 100<0 300> 680 20G<300 500>
VStem: 300 200<300 700>
Fore
SplineSet
300 700 m 1
 500 700 l 1
 500 200 l 1
 0 200 l 1
 0 300 l 1
 300 300 l 1
 300 700 l 1
EndSplineSet
EndChar

StartChar: SF080000
Encoding: 290 9500 290
Width: 800
HStem: -100 21G<300 500> 200 100<500 800> 680 20G<300 500>
VStem: 300 200<-100 200 300 700>
Fore
SplineSet
300 700 m 1
 500 700 l 1
 500 300 l 1
 800 300 l 1
 800 200 l 1
 500 200 l 1
 500 -100 l 1
 300 -100 l 1
 300 700 l 1
EndSplineSet
EndChar

StartChar: SF090000
Encoding: 291 9508 291
Width: 800
HStem: -100 21G<300 500> 200 100<0 300> 680 20G<300 500>
VStem: 300 200<-100 200 300 700>
Fore
SplineSet
300 700 m 1
 500 700 l 1
 500 -100 l 1
 300 -100 l 1
 300 200 l 1
 0 200 l 1
 0 300 l 1
 300 300 l 1
 300 700 l 1
EndSplineSet
EndChar

StartChar: SF060000
Encoding: 292 9516 292
Width: 800
HStem: -100 21G<300 500> 200 100<0 300 500 800>
VStem: 300 200<-100 200>
Fore
SplineSet
0 300 m 1
 800 300 l 1
 800 200 l 1
 500 200 l 1
 500 -100 l 1
 300 -100 l 1
 300 200 l 1
 0 200 l 1
 0 300 l 1
EndSplineSet
EndChar

StartChar: SF070000
Encoding: 293 9524 293
Width: 800
HStem: 200 100<0 300 500 800> 680 20G<300 500>
VStem: 300 200<300 700>
Fore
SplineSet
300 700 m 1
 500 700 l 1
 500 300 l 1
 800 300 l 1
 800 200 l 1
 0 200 l 1
 0 300 l 1
 300 300 l 1
 300 700 l 1
EndSplineSet
EndChar

StartChar: SF050000
Encoding: 294 9532 294
Width: 800
HStem: -100 21G<300 500> 200 100<0 300 500 800> 680 20G<300 500>
VStem: 300 200<-100 200 300 700>
Fore
SplineSet
300 700 m 1
 500 700 l 1
 500 300 l 1
 800 300 l 1
 800 200 l 1
 500 200 l 1
 500 -100 l 1
 300 -100 l 1
 300 200 l 1
 0 200 l 1
 0 300 l 1
 300 300 l 1
 300 700 l 1
EndSplineSet
EndChar

StartChar: SF430000
Encoding: 295 9552 295
Width: 800
HStem: 200 100<0 800> 400 100<0 800>
Fore
SplineSet
0 500 m 1
 800 500 l 1
 800 400 l 1
 0 400 l 1
 0 500 l 1
0 300 m 1
 800 300 l 1
 800 200 l 1
 0 200 l 1
 0 300 l 1
EndSplineSet
EndChar

StartChar: SF240000
Encoding: 296 9553 296
Width: 800
HStem: -100 21G<200 400 500 700> 680 20G<200 400 500 700>
VStem: 200 200<-100 700> 500 200<-100 700>
Fore
SplineSet
200 700 m 1
 400 700 l 1
 400 -100 l 1
 200 -100 l 1
 200 700 l 1
500 700 m 1
 700 700 l 1
 700 -100 l 1
 500 -100 l 1
 500 700 l 1
EndSplineSet
EndChar

StartChar: SF510000
Encoding: 297 9554 297
Width: 800
HStem: -100 21G<300 500> 200 100<500 800> 400 100<500 800>
VStem: 300 200<-100 200 300 400>
Fore
SplineSet
300 500 m 1
 800 500 l 1
 800 400 l 1
 500 400 l 1
 500 300 l 1
 800 300 l 1
 800 200 l 1
 500 200 l 1
 500 -100 l 1
 300 -100 l 1
 300 500 l 1
EndSplineSet
EndChar

StartChar: SF520000
Encoding: 298 9555 298
Width: 800
HStem: -100 400<200 400 500 700> 200 100<400 500 700 800>
VStem: 200 200<-100 200> 500 200<-100 200>
Fore
SplineSet
200 300 m 1xb0
 800 300 l 1
 800 200 l 1
 700 200 l 1x70
 700 -100 l 1
 500 -100 l 1xb0
 500 200 l 1
 400 200 l 1x70
 400 -100 l 1
 200 -100 l 1
 200 300 l 1xb0
EndSplineSet
EndChar

StartChar: SF390000
Encoding: 299 9556 299
Width: 800
HStem: -100 21G<200 400 500 700> 200 100<700 800> 400 100<400 800>
VStem: 200 200<-100 400> 500 200<-100 200>
Fore
SplineSet
200 500 m 1
 800 500 l 1
 800 400 l 1
 400 400 l 1
 400 -100 l 1
 200 -100 l 1
 200 500 l 1
500 300 m 1
 800 300 l 1
 800 200 l 1
 700 200 l 1
 700 -100 l 1
 500 -100 l 1
 500 300 l 1
EndSplineSet
EndChar

StartChar: SF220000
Encoding: 300 9557 300
Width: 800
HStem: -100 21G<300 500> 200 100<0 300> 400 100<0 300>
VStem: 300 200<-100 200 300 400>
Fore
SplineSet
0 500 m 1
 500 500 l 1
 500 -100 l 1
 300 -100 l 1
 300 200 l 1
 0 200 l 1
 0 300 l 1
 300 300 l 1
 300 400 l 1
 0 400 l 1
 0 500 l 1
EndSplineSet
EndChar

StartChar: SF210000
Encoding: 301 9558 301
Width: 800
HStem: -100 400<200 400 500 700> 200 100<0 200 400 500>
VStem: 200 200<-100 200> 500 200<-100 200>
Fore
SplineSet
0 300 m 1x70
 700 300 l 1
 700 -100 l 1
 500 -100 l 1xb0
 500 200 l 1
 400 200 l 1x70
 400 -100 l 1
 200 -100 l 1xb0
 200 200 l 1
 0 200 l 1
 0 300 l 1x70
EndSplineSet
EndChar

StartChar: SF250000
Encoding: 302 9559 302
Width: 800
HStem: -100 21G<200 400 500 700> 200 100<0 200> 400 100<0 500>
VStem: 200 200<-100 200> 500 200<-100 400>
Fore
SplineSet
0 500 m 1
 700 500 l 1
 700 -100 l 1
 500 -100 l 1
 500 400 l 1
 0 400 l 1
 0 500 l 1
0 300 m 1
 400 300 l 1
 400 -100 l 1
 200 -100 l 1
 200 200 l 1
 0 200 l 1
 0 300 l 1
EndSplineSet
EndChar

StartChar: SF500000
Encoding: 303 9560 303
Width: 800
HStem: 200 100<500 800> 400 100<500 800> 680 20G<300 500>
VStem: 300 200<300 400 500 700>
Fore
SplineSet
300 700 m 1
 500 700 l 1
 500 500 l 1
 800 500 l 1
 800 400 l 1
 500 400 l 1
 500 300 l 1
 800 300 l 1
 800 200 l 1
 300 200 l 1
 300 700 l 1
EndSplineSet
EndChar

StartChar: SF490000
Encoding: 304 9561 304
Width: 800
HStem: 200 500<200 400 500 700> 200 100<400 500 700 800>
VStem: 200 200<300 700> 500 200<300 700>
Fore
SplineSet
200 700 m 1xb0
 400 700 l 1xb0
 400 300 l 1
 500 300 l 1x70
 500 700 l 1
 700 700 l 1xb0
 700 300 l 1
 800 300 l 1
 800 200 l 1x70
 200 200 l 1
 200 700 l 1xb0
EndSplineSet
EndChar

StartChar: SF380000
Encoding: 305 9562 305
Width: 800
HStem: 200 100<400 800> 400 100<700 800> 680 20G<200 400 500 700>
VStem: 200 200<300 700> 500 200<500 700>
Fore
SplineSet
200 700 m 1
 400 700 l 1
 400 300 l 1
 800 300 l 1
 800 200 l 1
 200 200 l 1
 200 700 l 1
500 700 m 1
 700 700 l 1
 700 500 l 1
 800 500 l 1
 800 400 l 1
 500 400 l 1
 500 700 l 1
EndSplineSet
EndChar

StartChar: SF280000
Encoding: 306 9563 306
Width: 800
HStem: 200 100<0 300> 400 100<0 300> 680 20G<300 500>
VStem: 300 200<300 400 500 700>
Fore
SplineSet
300 700 m 1
 500 700 l 1
 500 200 l 1
 0 200 l 1
 0 300 l 1
 300 300 l 1
 300 400 l 1
 0 400 l 1
 0 500 l 1
 300 500 l 1
 300 700 l 1
EndSplineSet
EndChar

StartChar: SF270000
Encoding: 307 9564 307
Width: 800
HStem: 200 500<200 400 500 700> 200 100<0 200 400 500>
VStem: 200 200<300 700> 500 200<300 700>
Fore
SplineSet
200 700 m 1xb0
 400 700 l 1xb0
 400 300 l 1
 500 300 l 1x70
 500 700 l 1
 700 700 l 1
 700 200 l 1xb0
 0 200 l 1
 0 300 l 1
 200 300 l 1x70
 200 700 l 1xb0
EndSplineSet
EndChar

StartChar: SF260000
Encoding: 308 9565 308
Width: 800
HStem: 200 100<0 500> 400 100<0 200> 680 20G<200 400 500 700>
VStem: 200 200<500 700> 500 200<300 700>
Fore
SplineSet
200 700 m 1
 400 700 l 1
 400 400 l 1
 0 400 l 1
 0 500 l 1
 200 500 l 1
 200 700 l 1
500 700 m 1
 700 700 l 1
 700 200 l 1
 0 200 l 1
 0 300 l 1
 500 300 l 1
 500 700 l 1
EndSplineSet
EndChar

StartChar: SF360000
Encoding: 309 9566 309
Width: 800
HStem: -100 21G<300 500> 200 100<500 800> 400 100<500 800> 680 20G<300 500>
VStem: 300 200<-100 200 300 400 500 700>
Fore
SplineSet
300 700 m 1
 500 700 l 1
 500 500 l 1
 800 500 l 1
 800 400 l 1
 500 400 l 1
 500 300 l 1
 800 300 l 1
 800 200 l 1
 500 200 l 1
 500 -100 l 1
 300 -100 l 1
 300 700 l 1
EndSplineSet
EndChar

StartChar: SF370000
Encoding: 310 9567 310
Width: 800
HStem: -100 21G<200 400 500 700> 200 100<700 800> 680 20G<200 400 500 700>
VStem: 200 200<-100 700> 500 200<-100 200 300 700>
Fore
SplineSet
200 700 m 1
 400 700 l 1
 400 -100 l 1
 200 -100 l 1
 200 700 l 1
500 700 m 1
 700 700 l 1
 700 300 l 1
 800 300 l 1
 800 200 l 1
 700 200 l 1
 700 -100 l 1
 500 -100 l 1
 500 700 l 1
EndSplineSet
EndChar

StartChar: SF420000
Encoding: 311 9568 311
Width: 800
HStem: -100 21G<200 400 500 700> 200 100<700 800> 400 100<700 800> 680 20G<200 400 500 700>
VStem: 200 200<-100 700> 500 200<-100 200 500 700>
Fore
SplineSet
200 700 m 1
 400 700 l 1
 400 -100 l 1
 200 -100 l 1
 200 700 l 1
500 700 m 1
 700 700 l 1
 700 500 l 1
 800 500 l 1
 800 400 l 1
 500 400 l 1
 500 700 l 1
500 300 m 1
 800 300 l 1
 800 200 l 1
 700 200 l 1
 700 -100 l 1
 500 -100 l 1
 500 300 l 1
EndSplineSet
EndChar

StartChar: SF190000
Encoding: 312 9569 312
Width: 800
HStem: -100 21G<300 500> 200 100<0 300> 400 100<0 300> 680 20G<300 500>
VStem: 300 200<-100 200 300 400 500 700>
Fore
SplineSet
300 700 m 1
 500 700 l 1
 500 -100 l 1
 300 -100 l 1
 300 200 l 1
 0 200 l 1
 0 300 l 1
 300 300 l 1
 300 400 l 1
 0 400 l 1
 0 500 l 1
 300 500 l 1
 300 700 l 1
EndSplineSet
EndChar

StartChar: SF200000
Encoding: 313 9570 313
Width: 800
HStem: -100 21G<200 400 500 700> 200 100<0 200> 680 20G<200 400 500 700>
VStem: 200 200<-100 200 300 700> 500 200<-100 700>
Fore
SplineSet
200 700 m 1
 400 700 l 1
 400 -100 l 1
 200 -100 l 1
 200 200 l 1
 0 200 l 1
 0 300 l 1
 200 300 l 1
 200 700 l 1
500 700 m 1
 700 700 l 1
 700 -100 l 1
 500 -100 l 1
 500 700 l 1
EndSplineSet
EndChar

StartChar: SF230000
Encoding: 314 9571 314
Width: 800
HStem: -100 21G<200 400 500 700> 200 100<0 200> 400 100<0 200> 680 20G<200 400 500 700>
VStem: 200 200<-100 200 500 700> 500 200<-100 700>
Fore
SplineSet
200 700 m 1
 400 700 l 1
 400 400 l 1
 0 400 l 1
 0 500 l 1
 200 500 l 1
 200 700 l 1
500 700 m 1
 700 700 l 1
 700 -100 l 1
 500 -100 l 1
 500 700 l 1
0 300 m 1
 400 300 l 1
 400 -100 l 1
 200 -100 l 1
 200 200 l 1
 0 200 l 1
 0 300 l 1
EndSplineSet
EndChar

StartChar: SF470000
Encoding: 315 9572 315
Width: 800
HStem: -100 21G<300 500> 200 100<0 300 500 800> 400 100<0 800>
VStem: 300 200<-100 200>
Fore
SplineSet
0 500 m 1
 800 500 l 1
 800 400 l 1
 0 400 l 1
 0 500 l 1
0 300 m 1
 800 300 l 1
 800 200 l 1
 500 200 l 1
 500 -100 l 1
 300 -100 l 1
 300 200 l 1
 0 200 l 1
 0 300 l 1
EndSplineSet
EndChar

StartChar: SF480000
Encoding: 316 9573 316
Width: 800
HStem: -100 400<200 400 500 700> 200 100<0 200 400 500 700 800>
VStem: 200 200<-100 200> 500 200<-100 200>
Fore
SplineSet
0 300 m 1x70
 800 300 l 1
 800 200 l 1
 700 200 l 1x70
 700 -100 l 1
 500 -100 l 1xb0
 500 200 l 1
 400 200 l 1x70
 400 -100 l 1
 200 -100 l 1xb0
 200 200 l 1
 0 200 l 1
 0 300 l 1x70
EndSplineSet
EndChar

StartChar: SF410000
Encoding: 317 9574 317
Width: 800
HStem: -100 400<200 400 500 700> 200 100<0 200 700 800> 400 100<0 800>
VStem: 200 200<-100 200> 500 200<-100 200>
Fore
SplineSet
0 500 m 1x38
 800 500 l 1
 800 400 l 1
 0 400 l 1
 0 500 l 1x38
0 300 m 1x78
 400 300 l 1
 400 -100 l 1
 200 -100 l 1xb8
 200 200 l 1
 0 200 l 1
 0 300 l 1x78
500 300 m 1
 800 300 l 1
 800 200 l 1
 700 200 l 1x78
 700 -100 l 1
 500 -100 l 1
 500 300 l 1
EndSplineSet
EndChar

StartChar: SF450000
Encoding: 318 9575 318
Width: 800
HStem: 200 100<0 800> 400 100<0 300 500 800> 680 20G<300 500>
VStem: 300 200<500 700>
Fore
SplineSet
300 700 m 1
 500 700 l 1
 500 500 l 1
 800 500 l 1
 800 400 l 1
 0 400 l 1
 0 500 l 1
 300 500 l 1
 300 700 l 1
0 300 m 1
 800 300 l 1
 800 200 l 1
 0 200 l 1
 0 300 l 1
EndSplineSet
EndChar

StartChar: SF460000
Encoding: 319 9576 319
Width: 800
HStem: 200 500<200 400 500 700> 200 100<0 200 400 500 700 800>
VStem: 200 200<300 700> 500 200<300 700>
Fore
SplineSet
200 700 m 1xb0
 400 700 l 1xb0
 400 300 l 1
 500 300 l 1x70
 500 700 l 1
 700 700 l 1xb0
 700 300 l 1
 800 300 l 1
 800 200 l 1
 0 200 l 1
 0 300 l 1
 200 300 l 1x70
 200 700 l 1xb0
EndSplineSet
EndChar

StartChar: SF400000
Encoding: 320 9577 320
Width: 800
HStem: 200 100<0 800> 400 300<200 400 500 700> 400 100<0 200 700 800>
VStem: 200 200<500 700> 500 200<500 700>
Fore
SplineSet
200 700 m 1xd8
 400 700 l 1
 400 400 l 1xd8
 0 400 l 1
 0 500 l 1
 200 500 l 1xb8
 200 700 l 1xd8
500 700 m 1
 700 700 l 1xd8
 700 500 l 1
 800 500 l 1
 800 400 l 1xb8
 500 400 l 1
 500 700 l 1
0 300 m 1
 800 300 l 1
 800 200 l 1
 0 200 l 1
 0 300 l 1
EndSplineSet
EndChar

StartChar: SF540000
Encoding: 321 9578 321
Width: 800
HStem: -100 21G<300 500> 200 100<0 300 500 800> 400 100<0 300 500 800> 680 20G<300 500>
VStem: 300 200<-100 200 300 400 500 700>
Fore
SplineSet
300 700 m 1
 500 700 l 1
 500 500 l 1
 800 500 l 1
 800 400 l 1
 500 400 l 1
 500 300 l 1
 800 300 l 1
 800 200 l 1
 500 200 l 1
 500 -100 l 1
 300 -100 l 1
 300 200 l 1
 0 200 l 1
 0 300 l 1
 300 300 l 1
 300 400 l 1
 0 400 l 1
 0 500 l 1
 300 500 l 1
 300 700 l 1
EndSplineSet
EndChar

StartChar: SF530000
Encoding: 322 9579 322
Width: 800
HStem: -100 21G<200 400 500 700> 200 100<0 200 400 500 700 800> 680 20G<200 400 500 700>
VStem: 200 200<-100 200 300 700> 500 200<-100 200 300 700>
Fore
SplineSet
200 700 m 1
 400 700 l 1
 400 300 l 1
 500 300 l 1
 500 700 l 1
 700 700 l 1
 700 300 l 1
 800 300 l 1
 800 200 l 1
 700 200 l 1
 700 -100 l 1
 500 -100 l 1
 500 200 l 1
 400 200 l 1
 400 -100 l 1
 200 -100 l 1
 200 200 l 1
 0 200 l 1
 0 300 l 1
 200 300 l 1
 200 700 l 1
EndSplineSet
EndChar

StartChar: SF440000
Encoding: 323 9580 323
Width: 800
HStem: -100 400<200 400 500 700> 200 100<0 200 700 800> 400 300<200 400 500 700> 400 100<0 200 700 800>
VStem: 200 200<-100 200 500 700> 500 200<-100 200 500 700>
Fore
SplineSet
200 700 m 1x2c
 400 700 l 1
 400 400 l 1x2c
 0 400 l 1
 0 500 l 1
 200 500 l 1x1c
 200 700 l 1x2c
500 700 m 1
 700 700 l 1x2c
 700 500 l 1
 800 500 l 1
 800 400 l 1x1c
 500 400 l 1
 500 700 l 1
0 300 m 1x4c
 400 300 l 1
 400 -100 l 1
 200 -100 l 1x8c
 200 200 l 1
 0 200 l 1
 0 300 l 1x4c
500 300 m 1
 800 300 l 1
 800 200 l 1
 700 200 l 1x4c
 700 -100 l 1
 500 -100 l 1
 500 300 l 1
EndSplineSet
EndChar

StartChar: upblock
Encoding: 324 9600 324
Width: 800
HStem: 300 400<0 800>
Fore
SplineSet
0 700 m 1
 800 700 l 1
 800 300 l 1
 0 300 l 1
 0 700 l 1
EndSplineSet
EndChar

StartChar: dnblock
Encoding: 325 9604 325
Width: 800
HStem: -100 400<0 800>
Fore
SplineSet
0 300 m 1
 800 300 l 1
 800 -100 l 1
 0 -100 l 1
 0 300 l 1
EndSplineSet
EndChar

StartChar: block
Encoding: 326 9608 326
Width: 800
HStem: -100 21G<0 800> 680 20G<0 800>
VStem: 0 800<-100 700>
Fore
SplineSet
0 700 m 1
 800 700 l 1
 800 -100 l 1
 0 -100 l 1
 0 700 l 1
EndSplineSet
EndChar

StartChar: lfblock
Encoding: 327 9612 327
Width: 800
HStem: -100 21G<0 400> 680 20G<0 400>
VStem: 0 400<-100 700>
Fore
SplineSet
0 700 m 1
 400 700 l 1
 400 -100 l 1
 0 -100 l 1
 0 700 l 1
EndSplineSet
EndChar

StartChar: rtblock
Encoding: 328 9616 328
Width: 800
HStem: -100 21G<400 800> 680 20G<400 800>
VStem: 400 400<-100 700>
Fore
SplineSet
400 700 m 1
 800 700 l 1
 800 -100 l 1
 400 -100 l 1
 400 700 l 1
EndSplineSet
EndChar

StartChar: ltshade
Encoding: 329 9617 329
Width: 800
HStem: -100 100<0 100 400 500> 0 100<200 300 600 700> 100 100<0 100 400 500> 200 100<200 300 600 700> 300 100<0 100 400 500> 400 100<200 300 600 700> 500 100<0 100 400 500> 600 100<200 300 600 700>
VStem: 0 100<-100 0 100 200 300 400 500 600> 200 100<0 100 200 300 400 500 600 700> 400 100<-100 0 100 200 300 400 500 600> 600 100<0 100 200 300 400 500 600 700>
Fore
SplineSet
200 700 m 1x01f0
 300 700 l 1
 300 600 l 1
 200 600 l 1
 200 700 l 1x01f0
600 700 m 1
 700 700 l 1
 700 600 l 1
 600 600 l 1
 600 700 l 1
0 600 m 1x02f0
 100 600 l 1
 100 500 l 1
 0 500 l 1
 0 600 l 1x02f0
400 600 m 1
 500 600 l 1
 500 500 l 1
 400 500 l 1
 400 600 l 1
200 500 m 1x04f0
 300 500 l 1
 300 400 l 1
 200 400 l 1
 200 500 l 1x04f0
600 500 m 1
 700 500 l 1
 700 400 l 1
 600 400 l 1
 600 500 l 1
0 400 m 1x08f0
 100 400 l 1
 100 300 l 1
 0 300 l 1
 0 400 l 1x08f0
400 400 m 1
 500 400 l 1
 500 300 l 1
 400 300 l 1
 400 400 l 1
200 300 m 1x10f0
 300 300 l 1
 300 200 l 1
 200 200 l 1
 200 300 l 1x10f0
600 300 m 1
 700 300 l 1
 700 200 l 1
 600 200 l 1
 600 300 l 1
0 200 m 1x20f0
 100 200 l 1
 100 100 l 1
 0 100 l 1
 0 200 l 1x20f0
400 200 m 1
 500 200 l 1
 500 100 l 1
 400 100 l 1
 400 200 l 1
200 100 m 1x40f0
 300 100 l 1
 300 0 l 1
 200 0 l 1
 200 100 l 1x40f0
600 100 m 1
 700 100 l 1
 700 0 l 1
 600 0 l 1
 600 100 l 1
0 0 m 1x80f0
 100 0 l 1
 100 -100 l 1
 0 -100 l 1
 0 0 l 1x80f0
400 0 m 1
 500 0 l 1
 500 -100 l 1
 400 -100 l 1
 400 0 l 1
EndSplineSet
EndChar

StartChar: shade
Encoding: 330 9618 330
Width: 800
HStem: -100 100<0 100 200 300 400 500 600 700> 0 100<100 200 300 400 500 600 700 800> 100 100<0 100 200 300 400 500 600 700> 200 100<100 200 300 400 500 600 700 800> 300 100<0 100 200 300 400 500 600 700> 400 100<100 200 300 400 500 600 700 800> 500 100<0 100 200 300 400 500 600 700> 600 100<100 200 300 400 500 600 700 800>
VStem: 0 100<-100 0 100 200 300 400 500 600> 100 100<0 100 200 300 400 500 600 700> 200 100<-100 0 100 200 300 400 500 600> 300 100<0 100 200 300 400 500 600 700> 400 100<-100 0 100 200 300 400 500 600> 500 100<0 100 200 300 400 500 600 700> 600 100<-100 0 100 200 300 400 500 600> 700 100<0 100 200 300 400 500 600 700>
Fore
SplineSet
100 700 m 1x0140
 200 700 l 1x0140
 200 600 l 1x0240
 100 600 l 1x0280
 100 700 l 1x0140
300 700 m 1x0110
 400 700 l 1x0110
 400 600 l 1x0210
 300 600 l 1x0220
 300 700 l 1x0110
500 700 m 1x0104
 600 700 l 1x0104
 600 600 l 1x0204
 500 600 l 1x0208
 500 700 l 1x0104
700 700 m 1x0101
 800 700 l 1
 800 600 l 1x0101
 700 600 l 1x0202
 700 700 l 1x0101
0 600 m 1x0280
 100 600 l 1x0280
 100 500 l 1x0480
 0 500 l 1
 0 600 l 1x0280
200 600 m 1x0240
 300 600 l 1x0220
 300 500 l 1x0420
 200 500 l 1x0440
 200 600 l 1x0240
400 600 m 1x0210
 500 600 l 1x0208
 500 500 l 1x0408
 400 500 l 1x0410
 400 600 l 1x0210
600 600 m 1x0204
 700 600 l 1x0202
 700 500 l 1x0402
 600 500 l 1x0404
 600 600 l 1x0204
100 500 m 1x0480
 200 500 l 1x0440
 200 400 l 1x0840
 100 400 l 1x0880
 100 500 l 1x0480
300 500 m 1x0420
 400 500 l 1x0410
 400 400 l 1x0810
 300 400 l 1x0820
 300 500 l 1x0420
500 500 m 1x0408
 600 500 l 1x0404
 600 400 l 1x0804
 500 400 l 1x0808
 500 500 l 1x0408
700 500 m 1x0402
 800 500 l 1
 800 400 l 1x0401
 700 400 l 1x0802
 700 500 l 1x0402
0 400 m 1x0880
 100 400 l 1x0880
 100 300 l 1x1080
 0 300 l 1
 0 400 l 1x0880
200 400 m 1x0840
 300 400 l 1x0820
 300 300 l 1x1020
 200 300 l 1x1040
 200 400 l 1x0840
400 400 m 1x0810
 500 400 l 1x0808
 500 300 l 1x1008
 400 300 l 1x1010
 400 400 l 1x0810
600 400 m 1x0804
 700 400 l 1x0802
 700 300 l 1x1002
 600 300 l 1x1004
 600 400 l 1x0804
100 300 m 1x1080
 200 300 l 1x1040
 200 200 l 1x2040
 100 200 l 1x2080
 100 300 l 1x1080
300 300 m 1x1020
 400 300 l 1x1010
 400 200 l 1x2010
 300 200 l 1x2020
 300 300 l 1x1020
500 300 m 1x1008
 600 300 l 1x1004
 600 200 l 1x2004
 500 200 l 1x2008
 500 300 l 1x1008
700 300 m 1x1002
 800 300 l 1
 800 200 l 1x1001
 700 200 l 1x2002
 700 300 l 1x1002
0 200 m 1x2080
 100 200 l 1x2080
 100 100 l 1x4080
 0 100 l 1
 0 200 l 1x2080
200 200 m 1x2040
 300 200 l 1x2020
 300 100 l 1x4020
 200 100 l 1x4040
 200 200 l 1x2040
400 200 m 1x2010
 500 200 l 1x2008
 500 100 l 1x4008
 400 100 l 1x4010
 400 200 l 1x2010
600 200 m 1x2004
 700 200 l 1x2002
 700 100 l 1x4002
 600 100 l 1x4004
 600 200 l 1x2004
100 100 m 1x4080
 200 100 l 1x4040
 200 0 l 1x8040
 100 0 l 1x8080
 100 100 l 1x4080
300 100 m 1x4020
 400 100 l 1x4010
 400 0 l 1x8010
 300 0 l 1x8020
 300 100 l 1x4020
500 100 m 1x4008
 600 100 l 1x4004
 600 0 l 1x8004
 500 0 l 1x8008
 500 100 l 1x4008
700 100 m 1x4002
 800 100 l 1
 800 0 l 1x4001
 700 0 l 1x8002
 700 100 l 1x4002
0 0 m 1x8080
 100 0 l 1
 100 -100 l 1
 0 -100 l 1
 0 0 l 1x8080
200 0 m 1x8040
 300 0 l 1
 300 -100 l 1
 200 -100 l 1x8020
 200 0 l 1x8040
400 0 m 1x8010
 500 0 l 1
 500 -100 l 1
 400 -100 l 1x8008
 400 0 l 1x8010
600 0 m 1x8004
 700 0 l 1
 700 -100 l 1
 600 -100 l 1x8002
 600 0 l 1x8004
EndSplineSet
EndChar

StartChar: dkshade
Encoding: 331 9619 331
Width: 800
HStem: -100 200<0 100 400 500> -100 100<200 300 500 600> 100 100<200 300 500 600> 300 100<200 300 500 600> 500 100<200 300 500 600> 600 100<0 100 400 500>
VStem: 0 200<0 100 200 300 400 500 600 700> 300 200<0 100 200 300 400 500 600 700> 600 200<0 100 200 300 400 500 600 700>
Fore
SplineSet
500 600 m 1x1b80
 400 600 l 1x1780
 400 500 l 1
 500 500 l 1
 500 600 l 1x1b80
300 500 m 1x1b80
 200 500 l 1
 200 400 l 1
 300 400 l 1
 300 500 l 1x1b80
600 500 m 1
 500 500 l 1
 500 400 l 1
 600 400 l 1
 600 500 l 1
400 400 m 1
 300 400 l 1
 300 300 l 1
 400 300 l 1
 400 400 l 1
300 300 m 1
 200 300 l 1
 200 200 l 1
 300 200 l 1x3380
 300 300 l 1
600 300 m 1
 500 300 l 1
 500 200 l 1
 600 200 l 1
 600 300 l 1
500 200 m 1
 400 200 l 1x3380
 400 100 l 1
 500 100 l 1x9380
 500 200 l 1
300 100 m 1
 200 100 l 1
 200 -0 l 1
 300 -0 l 1x7380
 300 100 l 1
600 100 m 1
 500 100 l 1x9380
 500 -0 l 1
 600 -0 l 1
 600 100 l 1
0 700 m 1x1780
 200 700 l 1x1780
 200 600 l 1
 300 600 l 1x1b80
 300 700 l 1
 500 700 l 1x1780
 500 600 l 1
 600 600 l 1x1b80
 600 700 l 1
 800 700 l 1
 800 400 l 1
 700 400 l 1
 700 300 l 1
 800 300 l 1
 800 0 l 1
 700 0 l 1
 700 -100 l 1x5780
 400 -100 l 1x9380
 400 0 l 1
 300 0 l 1
 300 -100 l 1x5380
 0 -100 l 1
 0 100 l 1
 100 100 l 1x9380
 100 200 l 1
 0 200 l 1
 0 500 l 1
 100 500 l 1x3b80
 100 600 l 1
 0 600 l 1
 0 700 l 1x1780
EndSplineSet
EndChar

StartChar: filledbox
Encoding: 332 9632 332
Width: 800
HStem: 100 400<200 600>
VStem: 200 400<100 500>
Fore
SplineSet
200 500 m 1
 600 500 l 1
 600 100 l 1
 200 100 l 1
 200 500 l 1
EndSplineSet
Colour: f46a4b
EndChar

StartChar: filledrect
Encoding: 333 9644 333
Width: 800
HStem: 0 300<100 700>
Fore
SplineSet
100 300 m 1
 700 300 l 1
 700 0 l 1
 100 0 l 1
 100 300 l 1
EndSplineSet
EndChar

StartChar: triagup
Encoding: 334 9650 334
Width: 800
HStem: 100 200<0 100 600 700>
VStem: 300 100<500 600>
Fore
SplineSet
300 600 m 1
 400 600 l 1
 400 500 l 1
 500 500 l 1
 500 400 l 1
 600 400 l 1
 600 300 l 1
 700 300 l 1
 700 100 l 1
 0 100 l 1
 0 300 l 1
 100 300 l 1
 100 400 l 1
 200 400 l 1
 200 500 l 1
 300 500 l 1
 300 600 l 1
EndSplineSet
EndChar

StartChar: triagrt
Encoding: 335 9658 335
Width: 800
HStem: 0 21G<0 100> 300 100<500 700> 680 20G<0 100>
VStem: 0 100<0 100 600 700>
Fore
SplineSet
0 700 m 1
 100 700 l 1
 100 600 l 1
 300 600 l 1
 300 500 l 1
 500 500 l 1
 500 400 l 1
 700 400 l 1
 700 300 l 1
 500 300 l 1
 500 200 l 1
 300 200 l 1
 300 100 l 1
 100 100 l 1
 100 0 l 1
 0 0 l 1
 0 700 l 1
EndSplineSet
EndChar

StartChar: triagdn
Encoding: 336 9660 336
Width: 800
HStem: 400 200<0 100 600 700>
VStem: 300 100<100 200>
Fore
SplineSet
0 600 m 1
 700 600 l 1
 700 400 l 1
 600 400 l 1
 600 300 l 1
 500 300 l 1
 500 200 l 1
 400 200 l 1
 400 100 l 1
 300 100 l 1
 300 200 l 1
 200 200 l 1
 200 300 l 1
 100 300 l 1
 100 400 l 1
 0 400 l 1
 0 600 l 1
EndSplineSet
EndChar

StartChar: triaglf
Encoding: 337 9668 337
Width: 800
HStem: 0 21G<600 700> 300 100<0 200> 680 20G<600 700>
VStem: 600 100<0 100 600 700>
Fore
SplineSet
600 700 m 1
 700 700 l 1
 700 0 l 1
 600 0 l 1
 600 100 l 1
 400 100 l 1
 400 200 l 1
 200 200 l 1
 200 300 l 1
 0 300 l 1
 0 400 l 1
 200 400 l 1
 200 500 l 1
 400 500 l 1
 400 600 l 1
 600 600 l 1
 600 700 l 1
EndSplineSet
EndChar

StartChar: circle
Encoding: 338 9675 338
Width: 800
HStem: 0 200<200 300 500 600> 0 100<300 500> 400 200<200 300 500 600> 500 100<300 500>
VStem: 100 200<100 200 400 500> 100 100<200 400> 500 200<100 200 400 500> 600 100<200 400>
Fore
SplineSet
500 500 m 1x12
 300 500 l 1x1a
 300 400 l 1x2a
 200 400 l 1
 200 200 l 1xa4
 300 200 l 1xa8
 300 100 l 1
 500 100 l 1x4a
 500 200 l 1x8a
 600 200 l 1
 600 400 l 1xa1
 500 400 l 1xa2
 500 500 l 1x12
200 600 m 1x24
 600 600 l 1x25
 600 500 l 1x15
 700 500 l 1
 700 100 l 1x52
 600 100 l 1x51
 600 0 l 1
 200 0 l 1x85
 200 100 l 1x45
 100 100 l 1
 100 500 l 1x58
 200 500 l 1x54
 200 600 l 1x24
EndSplineSet
EndChar

StartChar: invbullet
Encoding: 339 9688 339
Width: 800
HStem: -100 200<300 500> 500 200<300 500>
VStem: 0 200<200 400> 600 200<200 400>
Fore
SplineSet
500 500 m 1
 300 500 l 1
 300 400 l 1
 200 400 l 1
 200 200 l 1
 300 200 l 1
 300 100 l 1
 500 100 l 1
 500 200 l 1
 600 200 l 1
 600 400 l 1
 500 400 l 1
 500 500 l 1
0 700 m 1
 800 700 l 1
 800 -100 l 1
 0 -100 l 1
 0 700 l 1
EndSplineSet
EndChar

StartChar: invcircle
Encoding: 340 9689 340
Width: 800
HStem: -100 200<100 200 600 700> -100 100<200 600> 200 200<200 300 500 600> 480 20G<300 500> 500 200<100 200 600 700> 600 100<200 600>
VStem: 0 200<0 100 500 600> 0 100<100 500> 300 200<100 200 400 500> 600 200<0 100 500 600> 700 100<100 500>
Fore
SplineSet
300 500 m 1xb2c0
 500 500 l 1
 500 400 l 1
 600 400 l 1
 600 200 l 1
 500 200 l 1
 500 100 l 1
 300 100 l 1
 300 200 l 1
 200 200 l 1
 200 400 l 1
 300 400 l 1
 300 500 l 1xb2c0
600 600 m 1x24c0
 200 600 l 1x26c0
 200 500 l 1x2ac0
 100 500 l 1
 100 100 l 1xa980
 200 100 l 1xaa80
 200 0 l 1
 600 0 l 1x62c0
 600 100 l 1xa2c0
 700 100 l 1
 700 500 l 1xa8a0
 600 500 l 1xa8c0
 600 600 l 1x24c0
0 700 m 1x65a0
 800 700 l 1
 800 -100 l 1
 0 -100 l 1
 0 700 l 1x65a0
EndSplineSet
EndChar

StartChar: smileface
Encoding: 341 9786 341
Width: 800
HStem: -100 100<100 700> 0 21G<0 100 700 800> 100 200<300 500> 200 100<200 300 500 600> 400 100<200 300 500 600> 600 100<100 700>
VStem: 0 100<0 600> 200 100<400 500> 500 100<400 500> 700 100<0 600>
Fore
SplineSet
100 700 m 1x0fc0
 700 700 l 1
 700 600 l 1
 100 600 l 1
 100 700 l 1x0fc0
0 600 m 1
 100 600 l 1
 100 0 l 1x8fc0
 0 0 l 1x4fc0
 0 600 l 1
700 600 m 1
 800 600 l 1
 800 0 l 1x4fc0
 700 0 l 1
 700 600 l 1
200 500 m 1
 300 500 l 1
 300 400 l 1
 200 400 l 1
 200 500 l 1
500 500 m 1
 600 500 l 1
 600 400 l 1
 500 400 l 1
 500 500 l 1
200 300 m 1x1fc0
 600 300 l 1
 600 200 l 1
 500 200 l 1x1fc0
 500 100 l 1
 300 100 l 1x2fc0
 300 200 l 1
 200 200 l 1
 200 300 l 1x1fc0
100 0 m 1x8fc0
 700 0 l 1
 700 -100 l 1
 100 -100 l 1
 100 0 l 1x8fc0
EndSplineSet
EndChar

StartChar: invsmileface
Encoding: 342 9787 342
Width: 800
HStem: -100 200<300 500> 300 100<200 300 500 600> 500 200<200 300 500 600>
VStem: 0 200<200 300 400 500> 600 200<200 300 400 500>
Fore
SplineSet
300 500 m 1
 200 500 l 1
 200 400 l 1
 300 400 l 1
 300 500 l 1
600 500 m 1
 500 500 l 1
 500 400 l 1
 600 400 l 1
 600 500 l 1
600 300 m 1
 200 300 l 1
 200 200 l 1
 300 200 l 1
 300 100 l 1
 500 100 l 1
 500 200 l 1
 600 200 l 1
 600 300 l 1
100 700 m 1
 700 700 l 1
 700 600 l 1
 800 600 l 1
 800 0 l 1
 700 0 l 1
 700 -100 l 1
 100 -100 l 1
 100 0 l 1
 0 0 l 1
 0 600 l 1
 100 600 l 1
 100 700 l 1
EndSplineSet
EndChar

StartChar: sun
Encoding: 343 9788 343
Width: 800
HStem: 0 21G<300 400> 100 100<100 200 500 600> 300 100<0 200 500 700> 500 100<100 200 500 600> 680 20G<300 400>
VStem: 100 100<100 200 500 600> 300 100<0 200 500 700> 500 100<100 200 500 600>
Fore
SplineSet
400 400 m 1
 300 400 l 1
 300 300 l 1
 400 300 l 1
 400 400 l 1
300 700 m 1
 400 700 l 1
 400 500 l 1
 500 500 l 1
 500 400 l 1
 700 400 l 1
 700 300 l 1
 500 300 l 1
 500 200 l 1
 400 200 l 1
 400 0 l 1
 300 0 l 1
 300 200 l 1
 200 200 l 1
 200 300 l 1
 0 300 l 1
 0 400 l 1
 200 400 l 1
 200 500 l 1
 300 500 l 1
 300 700 l 1
100 600 m 1
 200 600 l 1
 200 500 l 1
 100 500 l 1
 100 600 l 1
500 600 m 1
 600 600 l 1
 600 500 l 1
 500 500 l 1
 500 600 l 1
100 200 m 1
 200 200 l 1
 200 100 l 1
 100 100 l 1
 100 200 l 1
500 200 m 1
 600 200 l 1
 600 100 l 1
 500 100 l 1
 500 200 l 1
EndSplineSet
EndChar

StartChar: female
Encoding: 344 9792 344
Width: 800
HStem: -100 21G<300 500> 0 100<100 300 500 700> 600 100<300 500>
VStem: 100 200<300 600> 300 200<-100 0 100 200> 500 200<300 600>
Fore
SplineSet
500 600 m 1xf4
 300 600 l 1
 300 300 l 1
 500 300 l 1
 500 600 l 1xf4
200 700 m 1
 600 700 l 1
 600 600 l 1
 700 600 l 1
 700 300 l 1xf4
 600 300 l 1
 600 200 l 1
 500 200 l 1
 500 100 l 1xe8
 700 100 l 1
 700 0 l 1xe4
 500 0 l 1
 500 -100 l 1
 300 -100 l 1
 300 0 l 1xe8
 100 0 l 1
 100 100 l 1xf0
 300 100 l 1
 300 200 l 1xe8
 200 200 l 1
 200 300 l 1
 100 300 l 1
 100 600 l 1
 200 600 l 1
 200 700 l 1
EndSplineSet
EndChar

StartChar: male
Encoding: 345 9794 345
Width: 800
HStem: -100 100<200 400> 300 100<200 400> 600 100<400 500>
VStem: 0 200<0 300> 400 200<0 300 400 500> 700 100<400 500>
Fore
SplineSet
400 300 m 1
 200 300 l 1
 200 0 l 1
 400 0 l 1
 400 300 l 1
400 700 m 1
 800 700 l 1
 800 400 l 1
 700 400 l 1
 700 500 l 1
 600 500 l 1
 600 0 l 1
 500 0 l 1
 500 -100 l 1
 100 -100 l 1
 100 0 l 1
 0 0 l 1
 0 300 l 1
 100 300 l 1
 100 400 l 1
 400 400 l 1
 400 500 l 1
 500 500 l 1
 500 600 l 1
 400 600 l 1
 400 700 l 1
EndSplineSet
EndChar

StartChar: spade
Encoding: 346 9824 346
Width: 800
HStem: 0 100<200 300 400 500> 200 200<0 100 600 700> 680 20G<300 400>
VStem: 300 100<100 200 600 700>
Fore
SplineSet
300 700 m 1
 400 700 l 1
 400 600 l 1
 500 600 l 1
 500 500 l 1
 600 500 l 1
 600 400 l 1
 700 400 l 1
 700 200 l 1
 400 200 l 1
 400 300 l 1
 300 300 l 1
 300 200 l 1
 0 200 l 1
 0 400 l 1
 100 400 l 1
 100 500 l 1
 200 500 l 1
 200 600 l 1
 300 600 l 1
 300 700 l 1
300 200 m 1
 400 200 l 1
 400 100 l 1
 500 100 l 1
 500 0 l 1
 200 0 l 1
 200 100 l 1
 300 100 l 1
 300 200 l 1
EndSplineSet
EndChar

StartChar: club
Encoding: 347 9827 347
Width: 800
HStem: 0 200<300 500> 0 100<200 300 500 600> 200 200<0 300 500 800> 500 200<200 300 500 600>
VStem: 200 400<0 100 500 700> 300 200<100 200 400 500>
Fore
SplineSet
200 700 m 1x38
 600 700 l 1
 600 500 l 1x38
 500 500 l 1
 500 400 l 1
 800 400 l 1
 800 200 l 1x34
 500 200 l 1
 500 300 l 1
 300 300 l 1
 300 200 l 1x94
 0 200 l 1
 0 400 l 1
 300 400 l 1
 300 500 l 1x34
 200 500 l 1
 200 700 l 1x38
300 200 m 1x94
 500 200 l 1x94
 500 100 l 1x54
 600 100 l 1
 600 0 l 1
 200 0 l 1
 200 100 l 1x58
 300 100 l 1x54
 300 200 l 1x94
EndSplineSet
EndChar

StartChar: heart
Encoding: 348 9829 348
Width: 800
HStem: 0 21G<300 400> 680 20G<100 300 400 600>
VStem: 300 100<0 100>
Fore
SplineSet
100 700 m 1
 300 700 l 1
 300 600 l 1
 400 600 l 1
 400 700 l 1
 600 700 l 1
 600 600 l 1
 700 600 l 1
 700 300 l 1
 600 300 l 1
 600 200 l 1
 500 200 l 1
 500 100 l 1
 400 100 l 1
 400 0 l 1
 300 0 l 1
 300 100 l 1
 200 100 l 1
 200 200 l 1
 100 200 l 1
 100 300 l 1
 0 300 l 1
 0 600 l 1
 100 600 l 1
 100 700 l 1
EndSplineSet
EndChar

StartChar: diamond
Encoding: 349 9830 349
Width: 800
HStem: 0 21G<300 400> 300 100<0 100 600 700> 680 20G<300 400>
VStem: 300 100<0 100 600 700>
Fore
SplineSet
300 700 m 1
 400 700 l 1
 400 600 l 1
 500 600 l 1
 500 500 l 1
 600 500 l 1
 600 400 l 1
 700 400 l 1
 700 300 l 1
 600 300 l 1
 600 200 l 1
 500 200 l 1
 500 100 l 1
 400 100 l 1
 400 0 l 1
 300 0 l 1
 300 100 l 1
 200 100 l 1
 200 200 l 1
 100 200 l 1
 100 300 l 1
 0 300 l 1
 0 400 l 1
 100 400 l 1
 100 500 l 1
 200 500 l 1
 200 600 l 1
 300 600 l 1
 300 700 l 1
EndSplineSet
EndChar

StartChar: musicalnote
Encoding: 350 9834 350
Width: 800
HStem: 0 200<100 400> 0 100<0 100> 480 20G<600 700> 500 100<500 600> 680 20G<400 500>
VStem: 400 100<200 500 600 700> 600 100<300 500>
Fore
SplineSet
400 700 m 1x8e
 500 700 l 1
 500 600 l 1
 600 600 l 1x9e
 600 500 l 1x2e
 500 500 l 1
 500 100 l 1
 400 100 l 1x5e
 400 0 l 1x8e
 0 0 l 1
 0 100 l 1
 100 100 l 1x4e
 100 200 l 1
 400 200 l 1
 400 700 l 1x8e
600 500 m 1x2e
 700 500 l 1
 700 300 l 1
 600 300 l 1
 600 500 l 1x2e
EndSplineSet
EndChar

StartChar: musicalnotedbl
Encoding: 351 9835 351
Width: 800
HStem: -100 200<400 600> -100 100<300 400> 100 200<100 300> 100 100<0 100> 400 100<400 500> 500 100<500 600> 600 100<400 500>
VStem: 300 200<400 500 600 700> 300 100<300 400 500 600> 500 100<500 600> 600 100<100 300 400 500>
Fore
SplineSet
300 700 m 1x23
 500 700 l 1x23
 500 600 l 1x05
 400 600 l 1
 400 500 l 1x0a80
 500 500 l 1
 500 400 l 1x0b
 400 400 l 1
 400 200 l 1
 300 200 l 1x1a80
 300 100 l 1x2080
 0 100 l 1
 0 200 l 1
 100 200 l 1x1080
 100 300 l 1
 300 300 l 1x2080
 300 700 l 1x23
500 600 m 1x05
 600 600 l 1
 600 500 l 1x0440
 500 500 l 1x09
 500 600 l 1x05
600 500 m 1
 700 500 l 1
 700 0 l 1
 600 0 l 1x4420
 600 -100 l 1x8020
 300 -100 l 1
 300 0 l 1
 400 0 l 1x40a0
 400 100 l 1
 600 100 l 1x80a0
 600 300 l 1x20a0
 500 300 l 1x2040
 500 400 l 1
 600 400 l 1x2920
 600 500 l 1
EndSplineSet
EndChar

StartChar: uniE0A0
Encoding: 352 57504 352
Width: 800
HStem: -100 200<100 200> -100 100<0 100> 0 200<200 300> 100 200<300 400> 400 100<200 300 700 800> 500 100<300 400 600 700> 680 20G<0 200 400 600>
VStem: 0 200<-100 0 200 400 500 700> 0 100<100 200> 100 200<0 100> 200 200<100 200> 300 200<200 300> 400 200<300 500 600 700> 700 100<400 500>
Fore
SplineSet
0 700 m 25x1304
 200 700 l 1
 200 500 l 25
 300 500 l 1
 300 400 l 25
 200 400 l 25
 200 200 l 25x2b14
 100 200 l 25x2a84
 100 100 l 25x8284
 0 100 l 25x1284
 0 700 l 25x1304
400 700 m 25x060c
 600 700 l 25
 600 600 l 25
 700 600 l 1x060c
 700 500 l 1x0a0c
 600 500 l 1
 600 300 l 1x160c
 500 300 l 1x1614
 500 200 l 1x2214
 400 200 l 1x2224
 400 100 l 1x1224
 300 100 l 1x1244
 300 0 l 1x2244
 200 0 l 25x2304
 200 -100 l 25x8304
 0 -100 l 1
 0 0 l 1x4304
 100 0 l 1x4244
 100 100 l 1
 200 100 l 1x82a4
 200 200 l 25
 300 200 l 1x2314
 300 300 l 1x1314
 400 300 l 1
 400 500 l 1x160c
 300 500 l 1x0a14
 300 600 l 1x0614
 400 600 l 25
 400 700 l 25x060c
700 500 m 1x0a04
 800 500 l 1
 800 400 l 1
 700 400 l 1
 700 500 l 1x0a04
EndSplineSet
EndChar

StartChar: uniE0A1
Encoding: 353 57505 353
Width: 800
HStem: -100 200<600 700> 0 200<500 600> 300 100<200 300> 680 20G<0 200>
VStem: 0 200<400 700> 300 200<-100 0 200 300> 600 200<-100 0> 700 100<100 300>
Fore
SplineSet
0 700 m 1xbe
 200 700 l 1
 200 400 l 1
 400 400 l 25
 400 300 l 1
 500 300 l 1
 500 200 l 1
 600 200 l 25x7e
 600 100 l 25xbe
 700 100 l 1
 700 300 l 25
 800 300 l 25xbd
 800 -100 l 25
 600 -100 l 25xbe
 600 0 l 25
 500 0 l 25x7e
 500 -100 l 25
 300 -100 l 25
 300 300 l 1
 0 300 l 1
 0 700 l 1xbe
EndSplineSet
EndChar

StartChar: uniE0A2
Encoding: 354 57506 354
Width: 800
HStem: -100 400<200 500> 600 100<200 500>
VStem: 100 100<300 600> 500 100<300 600>
Fore
SplineSet
200 700 m 25
 500 700 l 1
 500 600 l 25
 200 600 l 1
 200 700 l 25
100 600 m 25
 200 600 l 25
 200 300 l 25
 500 300 l 25
 500 600 l 25
 600 600 l 25
 600 -100 l 25
 100 -100 l 25
 100 600 l 25
EndSplineSet
EndChar

StartChar: uniE0A3
Encoding: 355 57507 355
Width: 800
HStem: -100 200<600 700> 0 200<500 600> 300 100<200 300> 400 200<0 100> 600 100<200 400>
VStem: 0 200<400 600> 100 300<300 400 600 700> 300 200<-100 0 200 300> 600 200<-100 0> 700 100<100 300>
Fore
SplineSet
100 700 m 1x0a
 400 700 l 1
 400 600 l 1x0a
 200 600 l 1
 200 400 l 1x2c
 400 400 l 25x12
 400 300 l 1x22
 500 300 l 1
 500 200 l 1
 600 200 l 25x6180
 600 100 l 25x8180
 700 100 l 1
 700 300 l 25
 800 300 l 25xa040
 800 -100 l 25
 600 -100 l 25xa080
 600 0 l 25
 500 0 l 25x4180
 500 -100 l 25
 300 -100 l 25
 300 300 l 1xa180
 100 300 l 1xa2
 100 400 l 1x12
 0 400 l 1
 0 600 l 1x14
 100 600 l 1x12
 100 700 l 1x0a
EndSplineSet
EndChar

StartChar: uniE0B0
Encoding: 356 57520 356
Width: 800
HStem: -100 21G<0 300> 200 200<500 600> 680 20G<0 300>
VStem: 0 300<-100 0 600 700>
Fore
SplineSet
0 700 m 1
 300 700 l 1
 300 600 l 1
 400 600 l 1
 400 500 l 1
 500 500 l 1
 500 400 l 1
 600 400 l 1
 600 200 l 1
 500 200 l 1
 500 100 l 1
 400 100 l 1
 400 0 l 1
 300 0 l 1
 300 -100 l 1
 0 -100 l 1
 0 700 l 1
EndSplineSet
EndChar

StartChar: uniE0B1
Encoding: 357 57521 357
Width: 800
HStem: -100 100<200 300> 0 100<300 400> 100 100<400 500> 200 200<500 600> 400 100<400 500> 500 100<300 400> 600 100<200 300>
VStem: 200 100<-100 0 600 700> 300 100<0 100 500 600> 400 100<100 200 400 500> 500 100<200 400>
Fore
SplineSet
200 700 m 1x03
 300 700 l 1x03
 300 600 l 1x05
 200 600 l 1
 200 700 l 1x03
300 600 m 1x05
 400 600 l 1x0480
 400 500 l 1x0880
 300 500 l 1x0480
 300 600 l 1x05
400 500 m 1x0880
 500 500 l 1x0840
 500 400 l 1x1040
 400 400 l 1x0840
 400 500 l 1x0880
500 400 m 1x1040
 600 400 l 1
 600 200 l 1x1020
 500 200 l 1x2040
 500 400 l 1x1040
400 200 m 1x2040
 500 200 l 1
 500 100 l 1x2040
 400 100 l 1x4080
 400 200 l 1x2040
300 100 m 1x4080
 400 100 l 1
 400 0 l 1x4080
 300 0 l 1x81
 300 100 l 1x4080
200 0 m 1x81
 300 0 l 1
 300 -100 l 1
 200 -100 l 1
 200 0 l 1x81
EndSplineSet
EndChar

StartChar: uniE0B2
Encoding: 358 57522 358
Width: 800
HStem: -100 21G<500 800> 200 200<200 300> 680 20G<500 800>
VStem: 500 300<-100 0 600 700>
Fore
SplineSet
500 700 m 1
 800 700 l 1
 800 -100 l 1
 500 -100 l 1
 500 0 l 1
 400 0 l 1
 400 100 l 1
 300 100 l 1
 300 200 l 1
 200 200 l 1
 200 400 l 1
 300 400 l 1
 300 500 l 1
 400 500 l 1
 400 600 l 1
 500 600 l 1
 500 700 l 1
EndSplineSet
EndChar

StartChar: uniE0B3
Encoding: 359 57523 359
Width: 800
HStem: -100 100<500 600> 0 100<400 500> 100 100<300 400> 200 200<200 300> 400 100<300 400> 500 100<400 500> 600 100<500 600>
VStem: 200 100<200 400> 300 100<100 200 400 500> 400 100<0 100 500 600> 500 100<-100 0 600 700>
Fore
SplineSet
500 700 m 1x0220
 600 700 l 1
 600 600 l 1x0220
 500 600 l 1x0440
 500 700 l 1x0220
400 600 m 1x0440
 500 600 l 1
 500 500 l 1x0440
 400 500 l 1x0880
 400 600 l 1x0440
300 500 m 1x0880
 400 500 l 1
 400 400 l 1x0880
 300 400 l 1x11
 300 500 l 1x0880
200 400 m 1x11
 300 400 l 1x11
 300 200 l 1x21
 200 200 l 1
 200 400 l 1x11
300 200 m 1x21
 400 200 l 1x2080
 400 100 l 1x4080
 300 100 l 1x2080
 300 200 l 1x21
400 100 m 1x4080
 500 100 l 1x4040
 500 0 l 1x8040
 400 0 l 1x4040
 400 100 l 1x4080
500 0 m 1x8040
 600 0 l 1
 600 -100 l 1
 500 -100 l 1x8020
 500 0 l 1x8040
EndSplineSet
EndChar

